M48
; DRILL file {KiCad 5.1.0-rc2-unknown-036be7d~80~ubuntu16.04.1} date 16.12.2022 (пт) 15:04:31 EET
; FORMAT={-:-/ absolute / inch / decimal}
; #@! TF.CreationDate,2022-12-16T15:04:31+02:00*
; #@! TF.GenerationSoftware,Kicad,Pcbnew,5.1.0-rc2-unknown-036be7d~80~ubuntu16.04.1
; #@! TF.FileFunction,Plated,1,4,PTH
FMAT,2
INCH
T1C0.0118
T2C0.0157
T3C0.0236
T4C0.0315
T5C0.0354
T6C0.0394
T7C0.0400
T8C0.0433
T9C0.0472
T10C0.0512
T11C0.0600
T12C0.0866
T13C0.0986
T14C0.1299
%
G90
G05
T1
X2.02Y-4.64
X2.02Y-5.19
X2.03Y-4.49
X2.06Y-5.235
X2.095Y-5.17
X2.105Y-3.99
X2.13Y-3.41
X2.135Y-5.23
X2.14Y-4.255
X2.18Y-5.23
X2.195Y-3.8
X2.2Y-5.67
X2.205Y-3.975
X2.205Y-5.855
X2.225Y-5.23
X2.24Y-4.045
X2.24Y-4.255
X2.24Y-4.345
X2.26Y-4.11
X2.26Y-5.365
X2.27Y-4.645
X2.29Y-5.23
X2.32Y-4.045
X2.335Y-3.405
X2.34Y-3.62
X2.34Y-5.23
X2.35Y-5.435
X2.4Y-4.57
X2.4035Y-3.9885
X2.405Y-5.23
X2.42Y-5.55
X2.425Y-5.85
X2.47Y-4.735
X2.475Y-4.955
X2.5Y-4.505
X2.51Y-3.805
X2.525Y-5.015
X2.56Y-4.98
X2.565Y-5.665
X2.59Y-5.015
X2.61Y-4.045
X2.62Y-4.98
X2.63Y-5.85
X2.64Y-5.28
X2.65Y-4.045
X2.65Y-5.015
X2.675Y-5.215
X2.69Y-4.725
X2.69Y-4.77
X2.69Y-4.815
X2.69Y-4.86
X2.715Y-4.045
X2.72Y-5.125
X2.73Y-4.895
X2.745Y-5.025
X2.75Y-3.66
X2.765Y-4.85
X2.77Y-4.215
X2.78Y-5.55
X2.8Y-4.815
X2.825Y-5.375
X2.83Y-5.175
X2.835Y-4.85
X2.835Y-5.715
X2.84Y-4.505
X2.84Y-4.55
X2.87Y-4.47
X2.87Y-4.815
X2.87Y-5.21
X2.885Y-4.565
X2.9075Y-4.4425
X2.915Y-4.865
X2.915Y-5.24
X2.925Y-4.565
X2.925Y-4.8
X2.95Y-4.415
X2.96Y-3.45
X2.96Y-3.625
X2.96Y-4.77
X2.965Y-4.565
X2.97Y-4.855
X2.97Y-4.9
X2.995Y-4.175
X3.005Y-4.565
X3.005Y-4.73
X3.01Y-4.91
X3.03Y-5.165
X3.03Y-5.55
X3.04Y-3.95
X3.04Y-4.07
X3.045Y-4.565
X3.05Y-4.69
X3.06Y-4.925
X3.125Y-5.165
X3.125Y-5.4
X3.155Y-4.07
X3.21Y-5.55
X3.245Y-4.77
X3.25Y-3.45
X3.265Y-4.63
X3.28Y-4.8
X3.295Y-5.165
X3.31Y-4.835
X3.355Y-4.835
X3.42Y-5.165
X3.445Y-5.34
X3.47Y-4.7683
X3.47Y-4.81
X3.475Y-4.87
X3.475Y-5.3
X3.505Y-4.835
X3.51Y-4.45
X3.51Y-4.54
X3.515Y-4.13
X3.515Y-4.19
X3.53Y-4.9
X3.545Y-3.45
X3.555Y-4.58
X3.59Y-4.54
X3.605Y-3.965
X3.63Y-4.45
X3.635Y-3.78
X3.645Y-5.19
X3.685Y-5.19
X3.695Y-4.92
X3.7Y-5.44
X3.725Y-5.21
X3.73Y-4.945
X3.745Y-5.44
X3.75Y-4.42
X3.755Y-5.175
X3.765Y-4.98
X3.78Y-5.76
X3.785Y-4.14
X3.8Y-4.62
X3.805Y-3.69
X3.805Y-5.015
X3.83Y-5.76
X3.835Y-4.59
X3.86Y-5.255
X3.87Y-4.62
X3.875Y-4.745
X3.88Y-5.325
X3.88Y-5.755
X3.895Y-4.445
X3.905Y-4.585
X3.91Y-4.71
X3.91Y-4.78
X3.92Y-4.545
X3.9275Y-5.7575
X3.935Y-4.445
X3.955Y-4.405
X3.96Y-5.675
X3.975Y-4.155
X3.975Y-4.445
X3.98Y-4.31
X3.99Y-5.345
X3.995Y-5.47
X4.01Y-5.74
X4.03Y-5.345
X4.035Y-4.535
X4.045Y-4.405
X4.05Y-4.075
X4.05Y-5.31
X4.065Y-4.505
X4.065Y-5.53
X4.1Y-4.25
X4.1Y-4.535
X4.11Y-5.47
X4.12Y-3.46
X4.135Y-4.505
X4.175Y-4.005
X4.18Y-5.395
X4.23Y-4.27
X4.25Y-4.505
X4.26Y-4.03
X4.265Y-4.19
X4.275Y-4.54
X4.28Y-5.685
X4.295Y-4.34
X4.305Y-3.91
X4.335Y-4.19
X4.335Y-5.395
X4.385Y-5.395
X4.4Y-4.03
X4.405Y-4.19
X4.445Y-3.465
X4.475Y-4.19
X4.475Y-4.45
X4.485Y-5.395
X4.505Y-4.605
X4.54Y-4.03
X4.545Y-4.19
X4.555Y-4.32
X4.565Y-4.96
X4.575Y-5.0
X4.595Y-4.875
X4.6Y-4.785
X4.6Y-4.83
X4.61Y-5.06
X4.63Y-4.865
X4.635Y-5.395
X4.64Y-4.385
X4.64Y-4.805
X4.65Y-5.105
X4.67Y-4.0
X4.67Y-4.125
X4.68Y-4.25
X4.68Y-5.695
X4.695Y-4.395
X4.725Y-3.465
X4.735Y-5.0
X4.811Y-5.0
X4.835Y-4.64
X4.835Y-5.395
X4.87Y-5.02
X4.88Y-4.065
X4.885Y-5.395
X4.9Y-3.985
X4.93Y-5.08
X4.935Y-4.63
X4.965Y-4.655
X4.975Y-5.035
X4.98Y-3.465
X5.005Y-4.07
X5.01Y-4.965
X5.025Y-4.9
X5.04Y-4.865
X5.045Y-4.385
X5.045Y-4.7
X5.055Y-5.74
X5.065Y-4.425
X5.08Y-5.035
X5.09Y-4.7
X5.09Y-5.27
X5.105Y-4.655
X5.115Y-3.595
X5.135Y-4.42
X5.15Y-5.265
X5.17Y-5.07
X5.22Y-4.625
X5.225Y-3.465
X5.225Y-4.895
X5.23Y-4.095
X5.23Y-4.22
X5.23Y-4.305
X5.235Y-5.395
X5.24Y-4.77
X5.24Y-5.135
X5.285Y-5.735
X5.31Y-3.865
X5.31Y-5.36
X5.315Y-4.68
X5.33Y-4.26
X5.335Y-4.435
X5.335Y-5.395
X5.36Y-4.53
X5.37Y-4.08
X5.385Y-4.63
X5.405Y-5.355
X5.42Y-3.39
X5.435Y-5.395
X5.465Y-4.525
X5.48Y-4.42
X5.505Y-3.74
X5.505Y-3.88
X5.51Y-4.495
X5.51Y-5.735
X5.56Y-5.365
X5.61Y-5.34
X5.625Y-3.39
X5.64Y-4.49
X5.695Y-4.415
X5.755Y-5.215
X5.755Y-5.365
X5.8Y-3.65
X5.845Y-3.965
X5.85Y-4.085
X5.87Y-5.83
X5.91Y-3.39
X5.965Y-3.6
X6.03Y-5.305
X6.04Y-5.265
X6.095Y-4.15
T2
X4.015Y-4.245
X4.505Y-4.935
X4.515Y-4.86
T3
X2.05Y-3.845
X2.07Y-3.525
X2.13Y-4.475
X2.23Y-4.15
X2.415Y-4.24
X2.45Y-3.99
X2.515Y-5.155
X2.605Y-5.22
X2.625Y-3.45
X2.625Y-3.845
X2.67Y-4.46
X2.73Y-4.41
X2.745Y-5.27
X2.765Y-4.165
X2.79Y-3.915
X2.815Y-4.195
X2.815Y-5.27
X3.175Y-4.655
X3.175Y-4.715
X3.255Y-4.845
X3.29Y-3.985
X3.3Y-4.19
X3.34Y-4.905
X3.425Y-3.965
X3.525Y-5.305
X3.54Y-4.24
X3.61Y-4.24
X3.62Y-4.875
X3.66Y-3.965
X3.675Y-5.325
X3.71Y-4.24
X3.725Y-5.325
X3.78Y-4.325
X3.805Y-3.46
X3.81Y-4.005
X3.835Y-5.34
X3.845Y-4.435
X3.9Y-3.81
X3.9Y-5.675
X3.97Y-5.55
X4.24Y-5.165
X4.255Y-5.05
X4.265Y-4.735
X4.265Y-4.805
X4.27Y-4.945
X4.27Y-4.99
X4.285Y-4.615
X4.3Y-5.05
X4.495Y-4.545
X4.52Y-4.675
X4.64Y-4.64
X4.685Y-4.53
X4.785Y-4.485
X4.825Y-5.215
X4.88Y-5.08
X4.915Y-4.475
X4.955Y-4.28
X5.025Y-4.28
X5.075Y-4.985
X5.105Y-4.6
X5.11Y-4.525
X5.135Y-4.715
X5.195Y-4.985
X5.31Y-5.155
X5.31Y-5.2
X5.34Y-3.695
X5.365Y-3.74
X5.385Y-4.765
X5.405Y-3.71
X5.415Y-3.89
X5.425Y-5.0
X5.425Y-5.05
X5.45Y-3.54
X5.47Y-5.0
X5.47Y-5.05
X5.475Y-4.215
X5.495Y-5.135
X5.495Y-5.185
X5.53Y-5.09
X5.545Y-4.63
X5.545Y-4.675
X5.555Y-3.54
X5.555Y-4.885
X5.57Y-4.785
X5.59Y-4.29
X5.595Y-3.89
X5.61Y-3.71
X5.615Y-4.0
X5.615Y-4.785
X5.645Y-3.74
X5.655Y-4.085
X5.695Y-3.71
X5.785Y-4.17
X5.805Y-3.82
X5.825Y-5.13
X5.83Y-4.17
X5.86Y-4.315
X5.87Y-5.13
X5.875Y-4.17
X5.905Y-4.315
X5.905Y-4.36
X5.915Y-5.13
X5.92Y-4.17
X5.925Y-4.72
X5.96Y-5.13
X5.97Y-4.72
X5.97Y-4.825
X6.08Y-4.545
X6.08Y-4.59
X4.7681Y-4.7581
X4.7681Y-4.8919
X4.9019Y-4.7581
X4.9019Y-4.8919
T5
X2.9209Y-5.8129
X3.0001Y-5.8128
X4.3869Y-3.7917
X4.4319Y-3.6917
X4.4319Y-3.8917
X4.4769Y-3.7917
X4.5219Y-3.6917
X4.5219Y-3.8917
X4.5669Y-3.7917
X4.6119Y-3.6917
X4.6119Y-3.8917
X4.6569Y-3.7917
X4.7019Y-3.6917
X4.7019Y-3.8917
X4.7469Y-3.7917
X4.7919Y-3.6917
X4.7919Y-3.8917
T6
X2.0866Y-4.102
X2.0866Y-4.202
X2.0866Y-4.302
X2.0866Y-4.402
X3.3039Y-5.5406
X3.3039Y-5.6406
X3.4039Y-5.5406
X3.4039Y-5.6406
X3.5039Y-5.5406
X3.5039Y-5.6406
X3.6039Y-5.5406
X3.6039Y-5.6406
X3.7039Y-5.5406
X3.7039Y-5.6406
X4.375Y-5.235
X4.475Y-5.235
X4.1291Y-5.5445
X4.1291Y-5.6445
X4.2291Y-5.5445
X4.2291Y-5.6445
X4.3291Y-5.5445
X4.3291Y-5.6445
X4.4291Y-5.5445
X4.4291Y-5.6445
X4.5291Y-5.5445
X4.5291Y-5.6445
X4.6291Y-5.5445
X4.6291Y-5.6445
X4.7291Y-5.5445
X4.7291Y-5.6445
X4.8291Y-5.5445
X4.8291Y-5.6445
X4.9291Y-5.5445
X4.9291Y-5.6445
X5.0291Y-5.5445
X5.0291Y-5.6445
X5.1291Y-5.5445
X5.1291Y-5.6445
X5.2291Y-5.5445
X5.2291Y-5.6445
X5.3291Y-5.5445
X5.3291Y-5.6445
X5.4291Y-5.5445
X5.4291Y-5.6445
X5.5291Y-5.5445
X5.5291Y-5.6445
X5.6291Y-5.5445
X5.6291Y-5.6445
X5.7291Y-5.5445
X5.7291Y-5.6445
X4.91Y-5.235
X5.01Y-5.235
X2.9173Y-3.8626
X3.0157Y-3.8626
X3.0945Y-3.8626
X3.1929Y-3.8626
X4.05Y-4.155
X4.15Y-4.155
T7
X5.848Y-3.4549
X6.026Y-3.4549
T8
X2.1154Y-4.7622
X2.1154Y-4.8622
X2.1154Y-4.9622
X2.2154Y-4.7622
X2.2154Y-4.8622
X2.2154Y-4.9622
T9
X4.835Y-4.825
T10
X3.142Y-4.189
X3.398Y-4.189
T11
X5.799Y-3.5529
X6.075Y-3.5529
T12
X2.8161Y-3.7559
X3.2941Y-3.7559
T13
X2.0869Y-5.7088
X2.3238Y-4.4264
X5.9471Y-3.7814
X6.0278Y-5.7065
T14
X2.0984Y-5.4646
X4.1104Y-3.7917
X5.0944Y-3.7917
X2.5394Y-4.3307
X6.0157Y-5.4646
X6.0157Y-3.9882
T4
G00X5.3417Y-3.4665
M15
G01X5.3417Y-3.4429
M16
G05
G00X5.3417Y-3.637
M15
G01X5.3417Y-3.6016
M16
G05
G00X5.6819Y-3.4665
M15
G01X5.6819Y-3.4429
M16
G05
G00X5.6819Y-3.637
M15
G01X5.6819Y-3.6016
M16
G05
T0
M30
