G04 #@! TF.GenerationSoftware,KiCad,Pcbnew,5.1.0-rc2-unknown-036be7d~80~ubuntu16.04.1*
G04 #@! TF.CreationDate,2022-12-16T15:04:29+02:00*
G04 #@! TF.ProjectId,AgonLight2_Rev_B,41676f6e-4c69-4676-9874-325f5265765f,rev?*
G04 #@! TF.SameCoordinates,Original*
G04 #@! TF.FileFunction,Soldermask,Top*
G04 #@! TF.FilePolarity,Negative*
%FSLAX46Y46*%
G04 Gerber Fmt 4.6, Leading zero omitted, Abs format (unit mm)*
G04 Created by KiCad (PCBNEW 5.1.0-rc2-unknown-036be7d~80~ubuntu16.04.1) date 2022-12-16 15:04:29*
%MOMM*%
%LPD*%
G04 APERTURE LIST*
%ADD10R,1.301600X1.501600*%
%ADD11C,1.901600*%
%ADD12R,1.851600X1.851600*%
%ADD13R,1.371600X1.625600*%
%ADD14C,1.801600*%
%ADD15R,1.801600X1.801600*%
%ADD16R,2.301600X0.701600*%
%ADD17R,1.901600X1.901600*%
%ADD18R,2.301600X2.301600*%
%ADD19C,2.301600*%
%ADD20R,0.351600X1.101600*%
%ADD21C,2.133600*%
%ADD22C,2.641600*%
%ADD23C,5.201600*%
%ADD24C,1.501600*%
%ADD25C,1.101600*%
%ADD26R,1.879600X1.879600*%
%ADD27C,1.879600*%
%ADD28R,3.101599X2.201600*%
%ADD29R,3.101599X2.601600*%
%ADD30R,1.301600X0.651600*%
%ADD31R,1.117600X1.117600*%
%ADD32R,1.625600X1.371600*%
%ADD33R,0.901600X0.901600*%
%ADD34R,1.101600X1.501600*%
%ADD35R,1.801600X2.101600*%
%ADD36R,1.501600X1.101600*%
%ADD37C,1.254000*%
%ADD38R,3.101600X1.701600*%
%ADD39R,1.701600X3.101600*%
%ADD40R,1.400000X2.400000*%
%ADD41R,1.800000X1.600000*%
%ADD42R,1.400000X1.600000*%
%ADD43R,0.700000X1.100000*%
%ADD44R,0.863600X1.117600*%
%ADD45R,0.609600X1.117600*%
%ADD46R,0.601600X0.651600*%
%ADD47R,0.651600X0.601600*%
%ADD48R,1.301600X0.351600*%
%ADD49R,0.351600X1.301600*%
%ADD50R,0.501600X1.601600*%
%ADD51C,1.701600*%
%ADD52R,4.601600X4.601600*%
%ADD53R,0.351600X0.801600*%
%ADD54R,0.801600X0.351600*%
%ADD55R,0.651600X1.301600*%
%ADD56R,1.371600X0.426600*%
%ADD57R,0.401600X1.251600*%
%ADD58O,1.301600X2.301600*%
%ADD59C,0.701600*%
%ADD60O,1.401600X2.101600*%
%ADD61R,0.351600X1.251600*%
%ADD62R,1.201600X2.301600*%
%ADD63R,1.201600X2.101600*%
%ADD64C,3.301600*%
%ADD65O,1.601600X3.101600*%
%ADD66R,1.501600X1.501600*%
%ADD67C,5.601600*%
G04 APERTURE END LIST*
D10*
X97752000Y-106342000D03*
X99352000Y-108542000D03*
X97752000Y-108542000D03*
X99352000Y-106342000D03*
D11*
X83920000Y-143270000D03*
X83920000Y-140730000D03*
X86460000Y-143270000D03*
X86460000Y-140730000D03*
X89000000Y-143270000D03*
X89000000Y-140730000D03*
X91540000Y-143270000D03*
X91540000Y-140730000D03*
X94080000Y-143270000D03*
D12*
X94080000Y-140730000D03*
D13*
X150495000Y-128651000D03*
X152527000Y-128651000D03*
D14*
X53730000Y-120960000D03*
X56270000Y-120960000D03*
X53730000Y-123500000D03*
X56270000Y-123500000D03*
X53730000Y-126040000D03*
D15*
X56270000Y-126040000D03*
D16*
X135188000Y-124841000D03*
X135188000Y-123571000D03*
X135188000Y-122301000D03*
X135188000Y-121031000D03*
X129988000Y-121031000D03*
X129988000Y-122301000D03*
X129988000Y-123571000D03*
X129988000Y-124841000D03*
D11*
X105410000Y-105537000D03*
D17*
X102870000Y-105537000D03*
D18*
X79808000Y-106400000D03*
D19*
X86308000Y-106400000D03*
D20*
X139827000Y-95964000D03*
X139327000Y-95964000D03*
X140327000Y-95964000D03*
X139327000Y-97584000D03*
X139827000Y-97584000D03*
X140327000Y-97584000D03*
D21*
X153060600Y-87755400D03*
X148539400Y-87755400D03*
D22*
X154305200Y-90244600D03*
X147294800Y-90244600D03*
D23*
X104403000Y-96310000D03*
X129397000Y-96310000D03*
D24*
X121715000Y-93770000D03*
X119429000Y-93770000D03*
X117143000Y-93770000D03*
X114857000Y-93770000D03*
X112571000Y-93770000D03*
X120572000Y-96310000D03*
X118286000Y-96310000D03*
X116000000Y-96310000D03*
X113714000Y-96310000D03*
X111428000Y-96310000D03*
X121715000Y-98850000D03*
X119429000Y-98850000D03*
X117143000Y-98850000D03*
X114857000Y-98850000D03*
X112571000Y-98850000D03*
D25*
X154559000Y-96901000D03*
D26*
X53000000Y-111810000D03*
D27*
X53000000Y-109270000D03*
X53000000Y-106730000D03*
X53000000Y-104190000D03*
D14*
X93600000Y-94100000D03*
X93600000Y-88100000D03*
D28*
X98900000Y-91000000D03*
X88300000Y-90200000D03*
X98900000Y-94100000D03*
D29*
X88300000Y-94400000D03*
X98900000Y-87900000D03*
D30*
X113187000Y-118933000D03*
X113187000Y-117983000D03*
X113187000Y-117033000D03*
X110587000Y-118933000D03*
X110587000Y-117033000D03*
X110587000Y-122494000D03*
X110587000Y-124394000D03*
X113187000Y-122494000D03*
X113187000Y-123444000D03*
X113187000Y-124394000D03*
X113187000Y-127950000D03*
X113187000Y-127000000D03*
X113187000Y-126050000D03*
X110587000Y-127950000D03*
X110587000Y-126050000D03*
D17*
X111125000Y-132969000D03*
D11*
X113665000Y-132969000D03*
X124714000Y-132969000D03*
D17*
X127254000Y-132969000D03*
D31*
X81661000Y-120015000D03*
X81661000Y-118237000D03*
X81661000Y-123571000D03*
X81661000Y-125349000D03*
X92329000Y-134620000D03*
X90551000Y-134620000D03*
X95631000Y-134620000D03*
X97409000Y-134620000D03*
X107188000Y-125095000D03*
X107188000Y-126873000D03*
X107188000Y-120269000D03*
X107188000Y-122047000D03*
X94234000Y-108712000D03*
X96012000Y-108712000D03*
X89916000Y-108712000D03*
X91694000Y-108712000D03*
X71501000Y-132715000D03*
X69723000Y-132715000D03*
X70739000Y-113284000D03*
X68961000Y-113284000D03*
X117856000Y-115062000D03*
X117856000Y-116840000D03*
X122936000Y-130048000D03*
X121158000Y-130048000D03*
X94361000Y-98806000D03*
X92583000Y-98806000D03*
X117602000Y-119253000D03*
X115824000Y-119253000D03*
X98171000Y-98806000D03*
X98171000Y-100584000D03*
X121539000Y-115062000D03*
X121539000Y-116840000D03*
X123190000Y-114808000D03*
X124968000Y-114808000D03*
X128524000Y-115062000D03*
X128524000Y-116840000D03*
D13*
X152527000Y-124079000D03*
X150495000Y-124079000D03*
D32*
X99060000Y-140970000D03*
X99060000Y-143002000D03*
D13*
X150495000Y-126365000D03*
X152527000Y-126365000D03*
D31*
X55626000Y-105410000D03*
X55626000Y-103632000D03*
D13*
X62611000Y-103886000D03*
X60579000Y-103886000D03*
D31*
X136398000Y-132715000D03*
X136398000Y-130937000D03*
X141859000Y-118364000D03*
X143637000Y-118364000D03*
D13*
X143764000Y-116332000D03*
X141732000Y-116332000D03*
D31*
X140081000Y-105283000D03*
X140081000Y-107061000D03*
X140081000Y-102235000D03*
X140081000Y-104013000D03*
X127635000Y-109855000D03*
X125857000Y-109855000D03*
X152908000Y-116586000D03*
X151130000Y-116586000D03*
X152908000Y-115062000D03*
X151130000Y-115062000D03*
X138430000Y-125857000D03*
X138430000Y-124079000D03*
D33*
X154400000Y-134562000D03*
X154400000Y-133038000D03*
X154400000Y-110562000D03*
X154400000Y-109038000D03*
D34*
X94102000Y-102743000D03*
X90302000Y-102743000D03*
X90302000Y-100711000D03*
X94102000Y-100711000D03*
D35*
X150749000Y-112482000D03*
X150749000Y-107482000D03*
X147320000Y-107482000D03*
X147320000Y-112482000D03*
X147955000Y-128357000D03*
X147955000Y-123357000D03*
D34*
X73403460Y-108244640D03*
X74358500Y-110454440D03*
X72456040Y-110454440D03*
X73403460Y-102402640D03*
X74358500Y-104612440D03*
X72456040Y-104612440D03*
D36*
X145125440Y-131632960D03*
X145125440Y-129730500D03*
X142915640Y-130685540D03*
D37*
X154559000Y-93853000D03*
X68707000Y-86868000D03*
X154559000Y-148463000D03*
D25*
X154559000Y-106934000D03*
D13*
X115697000Y-115189000D03*
X115697000Y-117221000D03*
D32*
X84963000Y-99187000D03*
X86995000Y-99187000D03*
X62611000Y-105918000D03*
X60579000Y-105918000D03*
D13*
X146177000Y-97028000D03*
X146177000Y-94996000D03*
D38*
X147955000Y-118561000D03*
X147955000Y-120961000D03*
D39*
X142805000Y-126365000D03*
X140405000Y-126365000D03*
D25*
X63853000Y-89167800D03*
X55852000Y-89167800D03*
D40*
X51150000Y-89570000D03*
X66650000Y-89570000D03*
D41*
X52050000Y-99170000D03*
D42*
X66650000Y-99170000D03*
D43*
X56650000Y-100050000D03*
X57750000Y-100050000D03*
X58850000Y-100050000D03*
X59950000Y-100050000D03*
X61050000Y-100050000D03*
X62150000Y-100050000D03*
X63250000Y-100050000D03*
X64350000Y-100050000D03*
X65450000Y-100050000D03*
D36*
X98008440Y-104200960D03*
X98008440Y-102298500D03*
X95798640Y-103253540D03*
D10*
X143675000Y-107399000D03*
X142075000Y-105199000D03*
X143675000Y-105199000D03*
X142075000Y-107399000D03*
D34*
X122933460Y-103164640D03*
X123888500Y-105374440D03*
X121986040Y-105374440D03*
X123885960Y-107858560D03*
X121983500Y-107858560D03*
X122938540Y-110068360D03*
D31*
X88519000Y-133604000D03*
X88519000Y-131826000D03*
X98933000Y-132334000D03*
X98933000Y-134112000D03*
X100457000Y-134112000D03*
X100457000Y-132334000D03*
X101981000Y-132334000D03*
X101981000Y-134112000D03*
X90297000Y-104902000D03*
X92075000Y-104902000D03*
X92075000Y-106426000D03*
X90297000Y-106426000D03*
X89281000Y-112014000D03*
X89281000Y-110236000D03*
X108204000Y-118618000D03*
X106426000Y-118618000D03*
X104648000Y-129794000D03*
X106426000Y-129794000D03*
X106426000Y-128270000D03*
X104648000Y-128270000D03*
X104902000Y-123571000D03*
X106680000Y-123571000D03*
X99441000Y-110490000D03*
X97663000Y-110490000D03*
X94234000Y-106553000D03*
X96012000Y-106553000D03*
X67945000Y-131445000D03*
X66167000Y-131445000D03*
X66294000Y-114808000D03*
X68072000Y-114808000D03*
X74041000Y-131445000D03*
X75819000Y-131445000D03*
X110998000Y-129921000D03*
X112776000Y-129921000D03*
X110998000Y-115443000D03*
X112776000Y-115443000D03*
X112776000Y-120523000D03*
X110998000Y-120523000D03*
X117475000Y-133223000D03*
X119253000Y-133223000D03*
X119253000Y-131445000D03*
X117475000Y-131445000D03*
X99949000Y-104140000D03*
X99949000Y-102362000D03*
X96520000Y-98806000D03*
X96520000Y-100584000D03*
X127889000Y-129032000D03*
X126111000Y-129032000D03*
X99949000Y-98806000D03*
X99949000Y-100584000D03*
X110109000Y-103632000D03*
X110109000Y-105410000D03*
X108331000Y-105410000D03*
X108331000Y-103632000D03*
X111887000Y-103632000D03*
X111887000Y-105410000D03*
X113665000Y-105410000D03*
X113665000Y-103632000D03*
X115443000Y-103632000D03*
X115443000Y-105410000D03*
X117221000Y-103632000D03*
X117221000Y-105410000D03*
X135128000Y-127000000D03*
X133350000Y-127000000D03*
X68961000Y-108712000D03*
X68961000Y-110490000D03*
X70866000Y-104648000D03*
X70866000Y-102870000D03*
X75946000Y-108712000D03*
X75946000Y-110490000D03*
X75946000Y-104648000D03*
X75946000Y-102870000D03*
X70866000Y-108712000D03*
X70866000Y-110490000D03*
X72517000Y-106426000D03*
X74295000Y-106426000D03*
X56896000Y-109220000D03*
X58674000Y-109220000D03*
X58674000Y-107188000D03*
X56896000Y-107188000D03*
X70866000Y-101219000D03*
X69088000Y-101219000D03*
X58674000Y-105410000D03*
X58674000Y-103632000D03*
X64516000Y-105410000D03*
X64516000Y-103632000D03*
X146177000Y-135128000D03*
X146177000Y-133350000D03*
X142113000Y-95885000D03*
X142113000Y-97663000D03*
X137541000Y-97663000D03*
X137541000Y-95885000D03*
X152273000Y-132969000D03*
X152273000Y-134747000D03*
X140462000Y-134493000D03*
X138684000Y-134493000D03*
X138430000Y-120142000D03*
X138430000Y-121920000D03*
X138049000Y-118364000D03*
X139827000Y-118364000D03*
D44*
X66421000Y-103759000D03*
X66421000Y-105283000D03*
X68961000Y-103759000D03*
X68961000Y-105283000D03*
D45*
X67310000Y-103759000D03*
X68072000Y-103759000D03*
X67310000Y-105283000D03*
X68072000Y-105283000D03*
D46*
X89662000Y-98933000D03*
X90678000Y-98933000D03*
X109093000Y-102362000D03*
X110109000Y-102362000D03*
X113665000Y-102362000D03*
X112649000Y-102362000D03*
D47*
X118618000Y-103378000D03*
X118618000Y-102362000D03*
D46*
X117221000Y-102362000D03*
X116205000Y-102362000D03*
D47*
X119761000Y-102362000D03*
X119761000Y-103378000D03*
X100838000Y-143002000D03*
X100838000Y-141986000D03*
D46*
X74549000Y-101092000D03*
X75565000Y-101092000D03*
D47*
X146177000Y-137033000D03*
X146177000Y-138049000D03*
D46*
X77216000Y-101092000D03*
X78232000Y-101092000D03*
D47*
X106934000Y-137033000D03*
X106934000Y-138049000D03*
X108204000Y-138049000D03*
X108204000Y-137033000D03*
X109474000Y-138049000D03*
X109474000Y-137033000D03*
X110744000Y-137033000D03*
X110744000Y-138049000D03*
D46*
X61087000Y-132080000D03*
X60071000Y-132080000D03*
D47*
X112014000Y-137033000D03*
X112014000Y-138049000D03*
X113284000Y-138049000D03*
X113284000Y-137033000D03*
X114554000Y-138049000D03*
X114554000Y-137033000D03*
X115824000Y-137033000D03*
X115824000Y-138049000D03*
X55245000Y-107696000D03*
X55245000Y-106680000D03*
X117094000Y-137033000D03*
X117094000Y-138049000D03*
X118364000Y-138049000D03*
X118364000Y-137033000D03*
X55245000Y-109855000D03*
X55245000Y-108839000D03*
D46*
X57912000Y-132080000D03*
X58928000Y-132080000D03*
D47*
X119634000Y-138049000D03*
X119634000Y-137033000D03*
X120904000Y-137033000D03*
X120904000Y-138049000D03*
X55245000Y-111506000D03*
X55245000Y-112522000D03*
D46*
X55499000Y-132080000D03*
X56515000Y-132080000D03*
D47*
X122174000Y-138049000D03*
X122174000Y-137033000D03*
X123444000Y-138049000D03*
X123444000Y-137033000D03*
D46*
X54229000Y-132080000D03*
X53213000Y-132080000D03*
D47*
X124714000Y-137033000D03*
X124714000Y-138049000D03*
X125984000Y-137033000D03*
X125984000Y-138049000D03*
X127254000Y-138049000D03*
X127254000Y-137033000D03*
X128524000Y-138049000D03*
X128524000Y-137033000D03*
X129794000Y-137033000D03*
X129794000Y-138049000D03*
X131064000Y-137033000D03*
X131064000Y-138049000D03*
X132334000Y-138049000D03*
X132334000Y-137033000D03*
X133604000Y-138049000D03*
X133604000Y-137033000D03*
X134874000Y-137033000D03*
X134874000Y-138049000D03*
X136144000Y-137033000D03*
X136144000Y-138049000D03*
X137414000Y-138049000D03*
X137414000Y-137033000D03*
X138684000Y-137033000D03*
X138684000Y-138049000D03*
D46*
X56896000Y-102108000D03*
X55880000Y-102108000D03*
D47*
X139954000Y-137033000D03*
X139954000Y-138049000D03*
D46*
X58928000Y-102108000D03*
X57912000Y-102108000D03*
X62230000Y-102235000D03*
X61214000Y-102235000D03*
X64389000Y-102235000D03*
X63373000Y-102235000D03*
X136017000Y-95758000D03*
X135001000Y-95758000D03*
D48*
X86611000Y-121920000D03*
X102111000Y-121920000D03*
X86611000Y-121420000D03*
X86611000Y-120920000D03*
X86611000Y-120420000D03*
X86611000Y-119920000D03*
X86611000Y-119420000D03*
X86611000Y-118920000D03*
X86611000Y-118420000D03*
X86611000Y-117920000D03*
X86611000Y-117420000D03*
X86611000Y-116920000D03*
X86611000Y-116420000D03*
X86611000Y-115920000D03*
X86611000Y-122420000D03*
X86611000Y-122920000D03*
X86611000Y-123420000D03*
X86611000Y-123920000D03*
X86611000Y-124420000D03*
X86611000Y-124920000D03*
X86611000Y-125420000D03*
X86611000Y-125920000D03*
X86611000Y-126420000D03*
X86611000Y-126920000D03*
X86611000Y-127420000D03*
X86611000Y-127920000D03*
D49*
X94361000Y-129670000D03*
X94361000Y-114170000D03*
X93861000Y-129670000D03*
X93361000Y-129670000D03*
X92861000Y-129670000D03*
X92361000Y-129670000D03*
X91861000Y-129670000D03*
X91361000Y-129670000D03*
X90861000Y-129670000D03*
X90361000Y-129670000D03*
X89861000Y-129670000D03*
X89361000Y-129670000D03*
X88861000Y-129670000D03*
X88361000Y-129670000D03*
X94861000Y-129670000D03*
X95361000Y-129670000D03*
X95861000Y-129670000D03*
X96361000Y-129670000D03*
X96861000Y-129670000D03*
X97361000Y-129670000D03*
X97861000Y-129670000D03*
X98361000Y-129670000D03*
X98861000Y-129670000D03*
X99361000Y-129670000D03*
X99861000Y-129670000D03*
X100361000Y-129670000D03*
D48*
X102111000Y-127920000D03*
X102111000Y-127420000D03*
X102111000Y-126920000D03*
X102111000Y-126420000D03*
X102111000Y-125920000D03*
X102111000Y-125420000D03*
X102111000Y-124920000D03*
X102111000Y-124420000D03*
X102111000Y-123920000D03*
X102111000Y-123420000D03*
X102111000Y-122920000D03*
X102111000Y-122420000D03*
X102111000Y-121420000D03*
X102111000Y-120920000D03*
X102111000Y-120420000D03*
X102111000Y-119920000D03*
X102111000Y-119420000D03*
X102111000Y-118920000D03*
X102111000Y-118420000D03*
X102111000Y-117920000D03*
X102111000Y-117420000D03*
X102111000Y-116920000D03*
X102111000Y-116420000D03*
X102111000Y-115920000D03*
D49*
X100361000Y-114170000D03*
X99861000Y-114170000D03*
X99361000Y-114170000D03*
X98861000Y-114170000D03*
X98361000Y-114170000D03*
X97861000Y-114170000D03*
X97361000Y-114170000D03*
X96861000Y-114170000D03*
X96361000Y-114170000D03*
X95861000Y-114170000D03*
X95361000Y-114170000D03*
X94861000Y-114170000D03*
X93861000Y-114170000D03*
X93361000Y-114170000D03*
X92861000Y-114170000D03*
X92361000Y-114170000D03*
X91861000Y-114170000D03*
X91361000Y-114170000D03*
X90861000Y-114170000D03*
X90361000Y-114170000D03*
X89861000Y-114170000D03*
X89361000Y-114170000D03*
X88861000Y-114170000D03*
X88361000Y-114170000D03*
D50*
X62466000Y-128863000D03*
X63266000Y-128863000D03*
X64066000Y-128863000D03*
X64866000Y-128863000D03*
X65666000Y-128863000D03*
X66466000Y-128863000D03*
X67266000Y-128863000D03*
X68066000Y-128863000D03*
X68866000Y-128863000D03*
X69666000Y-128863000D03*
X70466000Y-128863000D03*
X71266000Y-128863000D03*
X72066000Y-128863000D03*
X72866000Y-128863000D03*
X73666000Y-128863000D03*
X74466000Y-128863000D03*
X75266000Y-128863000D03*
X76066000Y-128863000D03*
X76866000Y-128863000D03*
X77666000Y-128863000D03*
X78466000Y-128863000D03*
X79266000Y-128863000D03*
X79266000Y-117263000D03*
X78466000Y-117263000D03*
X77666000Y-117263000D03*
X76866000Y-117263000D03*
X76066000Y-117263000D03*
X75266000Y-117263000D03*
X74466000Y-117263000D03*
X73666000Y-117263000D03*
X72866000Y-117263000D03*
X72066000Y-117263000D03*
X71266000Y-117263000D03*
X70466000Y-117263000D03*
X69666000Y-117263000D03*
X68866000Y-117263000D03*
X68066000Y-117263000D03*
X67266000Y-117263000D03*
X66466000Y-117263000D03*
X65666000Y-117263000D03*
X64866000Y-117263000D03*
X64066000Y-117263000D03*
X63266000Y-117263000D03*
X62466000Y-117263000D03*
D51*
X122809000Y-122555000D03*
D52*
X122809000Y-122555000D03*
D53*
X120059000Y-119190000D03*
X120559000Y-119190000D03*
X121059000Y-119190000D03*
X121559000Y-119190000D03*
X122059000Y-119190000D03*
X122559000Y-119190000D03*
X123059000Y-119190000D03*
X123559000Y-119190000D03*
X124059000Y-119190000D03*
X124559000Y-119190000D03*
X125059000Y-119190000D03*
X125559000Y-119190000D03*
D54*
X126174000Y-119805000D03*
X126174000Y-120305000D03*
X126174000Y-120805000D03*
X126174000Y-121305000D03*
X126174000Y-121805000D03*
X126174000Y-122305000D03*
X126174000Y-122805000D03*
X126174000Y-123305000D03*
X126174000Y-123805000D03*
X126174000Y-124305000D03*
X126174000Y-124805000D03*
X126174000Y-125305000D03*
D53*
X125559000Y-125920000D03*
X125059000Y-125920000D03*
X124559000Y-125920000D03*
X124059000Y-125920000D03*
X123559000Y-125920000D03*
X123059000Y-125920000D03*
X122559000Y-125920000D03*
X122059000Y-125920000D03*
X121559000Y-125920000D03*
X121059000Y-125920000D03*
X120559000Y-125920000D03*
X120059000Y-125920000D03*
D54*
X119444000Y-125305000D03*
X119444000Y-124805000D03*
X119444000Y-124305000D03*
X119444000Y-123805000D03*
X119444000Y-123305000D03*
X119444000Y-122805000D03*
X119444000Y-122305000D03*
X119444000Y-121805000D03*
X119444000Y-121305000D03*
X119444000Y-120805000D03*
X119444000Y-120305000D03*
X119444000Y-119805000D03*
D30*
X138273000Y-130749000D03*
X138273000Y-132649000D03*
X140873000Y-130749000D03*
X140873000Y-131699000D03*
X140873000Y-132649000D03*
D55*
X142174000Y-120239000D03*
X140274000Y-120239000D03*
X142174000Y-122839000D03*
X141224000Y-122839000D03*
X140274000Y-122839000D03*
X150815000Y-118587900D03*
X151765000Y-118587900D03*
X152715000Y-118587900D03*
X152715000Y-121188100D03*
X151765000Y-121188100D03*
X150815000Y-121188100D03*
D56*
X130365500Y-110240000D03*
X130365500Y-109590000D03*
X130365500Y-108940000D03*
X130365500Y-108290000D03*
X130365500Y-107640000D03*
X130365500Y-106990000D03*
X130365500Y-106340000D03*
X130365500Y-105690000D03*
X130365500Y-105040000D03*
X130365500Y-104390000D03*
X137604500Y-104390000D03*
X137604500Y-105040000D03*
X137604500Y-105690000D03*
X137604500Y-106340000D03*
X137604500Y-106990000D03*
X137604500Y-107640000D03*
X137604500Y-108290000D03*
X137604500Y-108940000D03*
X137604500Y-109590000D03*
X137604500Y-110240000D03*
D34*
X145984000Y-99103000D03*
X144084000Y-99103000D03*
X145034000Y-101303000D03*
D57*
X136675000Y-92832000D03*
X143325000Y-92832000D03*
X136925000Y-92832000D03*
X143075000Y-92832000D03*
X137475000Y-92832000D03*
X142525000Y-92832000D03*
X137725000Y-92832000D03*
X142275000Y-92832000D03*
D58*
X144320000Y-91930000D03*
D59*
X142890000Y-91430000D03*
D60*
X144320000Y-87750000D03*
X135680000Y-87750000D03*
D58*
X135680000Y-91930000D03*
D61*
X140250000Y-92832000D03*
X139250000Y-92832000D03*
X138750000Y-92832000D03*
X139750000Y-92832000D03*
X138250000Y-92832000D03*
X140750000Y-92832000D03*
X141250000Y-92832000D03*
X141750000Y-92832000D03*
D59*
X137110000Y-91430000D03*
D62*
X144927600Y-91930000D03*
D63*
X144927600Y-87750000D03*
D62*
X135072400Y-91930000D03*
D63*
X135072400Y-87750000D03*
D64*
X83670000Y-95400000D03*
X71530000Y-95400000D03*
D65*
X81100000Y-98110000D03*
X78600000Y-98110000D03*
X76600000Y-98110000D03*
X74100000Y-98110000D03*
D31*
X154432000Y-122936000D03*
X154432000Y-124714000D03*
X154432000Y-121285000D03*
X154432000Y-119507000D03*
X154432000Y-112522000D03*
X154432000Y-114300000D03*
X140462000Y-112268000D03*
X142240000Y-112268000D03*
X127635000Y-104775000D03*
X125857000Y-104775000D03*
X125857000Y-107442000D03*
X127635000Y-107442000D03*
X124968000Y-111887000D03*
X123190000Y-111887000D03*
X121158000Y-133858000D03*
X121158000Y-132080000D03*
X148590000Y-102108000D03*
X146812000Y-102108000D03*
D24*
X76203300Y-147645320D03*
D66*
X74191620Y-147647860D03*
D67*
X53300000Y-138800000D03*
X152800000Y-101300000D03*
X64500000Y-110000000D03*
X152800000Y-138800000D03*
D34*
X134117000Y-112776000D03*
X137917000Y-112776000D03*
X137917000Y-115062000D03*
X134117000Y-115062000D03*
D31*
X142240000Y-110490000D03*
X140462000Y-110490000D03*
X132080000Y-112903000D03*
X132080000Y-114681000D03*
D47*
X82931000Y-120142000D03*
X82931000Y-119126000D03*
X82931000Y-124968000D03*
X82931000Y-123952000D03*
D46*
X90678000Y-132842000D03*
X91694000Y-132842000D03*
X97282000Y-132842000D03*
X96266000Y-132842000D03*
X105029000Y-131191000D03*
X106045000Y-131191000D03*
D47*
X105791000Y-125730000D03*
X105791000Y-126746000D03*
X105791000Y-121285000D03*
X105791000Y-120269000D03*
D46*
X94234000Y-110236000D03*
X95250000Y-110236000D03*
X90678000Y-110236000D03*
X91694000Y-110236000D03*
D47*
X101092000Y-108839000D03*
X101092000Y-107823000D03*
D46*
X70866000Y-131191000D03*
X69850000Y-131191000D03*
X70739000Y-114808000D03*
X69723000Y-114808000D03*
D47*
X119253000Y-117094000D03*
X119253000Y-116078000D03*
D46*
X122936000Y-128651000D03*
X121920000Y-128651000D03*
X116205000Y-120650000D03*
X117221000Y-120650000D03*
X130937000Y-126619000D03*
X129921000Y-126619000D03*
D47*
X120142000Y-116078000D03*
X120142000Y-117094000D03*
X122936000Y-117094000D03*
X122936000Y-116078000D03*
X127127000Y-117094000D03*
X127127000Y-116078000D03*
D46*
X140843000Y-108966000D03*
X139827000Y-108966000D03*
D47*
X142621000Y-100711000D03*
X142621000Y-99695000D03*
X147574000Y-99695000D03*
X147574000Y-100711000D03*
X83820000Y-119126000D03*
X83820000Y-120142000D03*
X83820000Y-124968000D03*
X83820000Y-123952000D03*
D46*
X90678000Y-131953000D03*
X91694000Y-131953000D03*
X97282000Y-131953000D03*
X96266000Y-131953000D03*
D47*
X104648000Y-126746000D03*
X104648000Y-125730000D03*
X104648000Y-120269000D03*
X104648000Y-121285000D03*
D46*
X95250000Y-111252000D03*
X94234000Y-111252000D03*
X91694000Y-111252000D03*
X90678000Y-111252000D03*
D11*
X120120000Y-140830000D03*
X117580000Y-140830000D03*
X117580000Y-143370000D03*
X120120000Y-143370000D03*
X112500000Y-140830000D03*
X109960000Y-143370000D03*
X112500000Y-143370000D03*
X109960000Y-140830000D03*
X104880000Y-140830000D03*
X107420000Y-143370000D03*
X107420000Y-140830000D03*
X104880000Y-143370000D03*
X115040000Y-140830000D03*
X115040000Y-143370000D03*
X122660000Y-140830000D03*
X122660000Y-143370000D03*
X125200000Y-140830000D03*
X125200000Y-143370000D03*
X127740000Y-140830000D03*
X127740000Y-143370000D03*
X130280000Y-140830000D03*
X130280000Y-143370000D03*
X132820000Y-140830000D03*
X132820000Y-143370000D03*
X135360000Y-143370000D03*
X135360000Y-140830000D03*
X137900000Y-143370000D03*
X137900000Y-140830000D03*
X140440000Y-143370000D03*
X140440000Y-140830000D03*
X142980000Y-143370000D03*
X142980000Y-140830000D03*
X145520000Y-143370000D03*
D12*
X145520000Y-140830000D03*
D47*
X141224000Y-137033000D03*
X141224000Y-138049000D03*
X142494000Y-138049000D03*
X142494000Y-137033000D03*
D31*
X56515000Y-133858000D03*
X56515000Y-135636000D03*
X52324000Y-133858000D03*
X54102000Y-133858000D03*
D37*
X51181000Y-142240000D03*
M02*
