G04 #@! TF.GenerationSoftware,KiCad,Pcbnew,5.1.0-rc2-unknown-036be7d~80~ubuntu16.04.1*
G04 #@! TF.CreationDate,2022-12-16T15:04:29+02:00*
G04 #@! TF.ProjectId,AgonLight2_Rev_B,41676f6e-4c69-4676-9874-325f5265765f,rev?*
G04 #@! TF.SameCoordinates,Original*
G04 #@! TF.FileFunction,Legend,Bot*
G04 #@! TF.FilePolarity,Positive*
%FSLAX46Y46*%
G04 Gerber Fmt 4.6, Leading zero omitted, Abs format (unit mm)*
G04 Created by KiCad (PCBNEW 5.1.0-rc2-unknown-036be7d~80~ubuntu16.04.1) date 2022-12-16 15:04:29*
%MOMM*%
%LPD*%
G04 APERTURE LIST*
%ADD10C,0.381000*%
%ADD11C,0.254000*%
%ADD12C,0.190500*%
%ADD13C,0.317500*%
%ADD14C,0.152400*%
%ADD15C,0.100000*%
%ADD16C,0.700000*%
%ADD17C,0.400000*%
%ADD18C,0.500000*%
%ADD19C,0.508000*%
%ADD20C,0.127000*%
%ADD21C,0.150000*%
%ADD22C,0.200000*%
%ADD23C,0.370000*%
%ADD24C,1.000000*%
%ADD25C,0.380000*%
%ADD26C,0.420000*%
%ADD27C,0.300000*%
%ADD28C,0.350000*%
%ADD29C,0.180000*%
G04 APERTURE END LIST*
D10*
X150737207Y-141732000D02*
X150882350Y-141659428D01*
X151100064Y-141659428D01*
X151317778Y-141732000D01*
X151462921Y-141877142D01*
X151535492Y-142022285D01*
X151608064Y-142312571D01*
X151608064Y-142530285D01*
X151535492Y-142820571D01*
X151462921Y-142965714D01*
X151317778Y-143110857D01*
X151100064Y-143183428D01*
X150954921Y-143183428D01*
X150737207Y-143110857D01*
X150664635Y-143038285D01*
X150664635Y-142530285D01*
X150954921Y-142530285D01*
X150011492Y-143183428D02*
X150011492Y-141659428D01*
X149430921Y-141659428D01*
X149285778Y-141732000D01*
X149213207Y-141804571D01*
X149140635Y-141949714D01*
X149140635Y-142167428D01*
X149213207Y-142312571D01*
X149285778Y-142385142D01*
X149430921Y-142457714D01*
X150011492Y-142457714D01*
X148487492Y-143183428D02*
X148487492Y-141659428D01*
X147471492Y-141659428D02*
X147181207Y-141659428D01*
X147036064Y-141732000D01*
X146890921Y-141877142D01*
X146818350Y-142167428D01*
X146818350Y-142675428D01*
X146890921Y-142965714D01*
X147036064Y-143110857D01*
X147181207Y-143183428D01*
X147471492Y-143183428D01*
X147616635Y-143110857D01*
X147761778Y-142965714D01*
X147834350Y-142675428D01*
X147834350Y-142167428D01*
X147761778Y-141877142D01*
X147616635Y-141732000D01*
X147471492Y-141659428D01*
X64613064Y-101473000D02*
X63887350Y-101473000D01*
X64758207Y-101908428D02*
X64250207Y-100384428D01*
X63742207Y-101908428D01*
X62363350Y-101763285D02*
X62435921Y-101835857D01*
X62653635Y-101908428D01*
X62798778Y-101908428D01*
X63016492Y-101835857D01*
X63161635Y-101690714D01*
X63234207Y-101545571D01*
X63306778Y-101255285D01*
X63306778Y-101037571D01*
X63234207Y-100747285D01*
X63161635Y-100602142D01*
X63016492Y-100457000D01*
X62798778Y-100384428D01*
X62653635Y-100384428D01*
X62435921Y-100457000D01*
X62363350Y-100529571D01*
X60839350Y-101763285D02*
X60911921Y-101835857D01*
X61129635Y-101908428D01*
X61274778Y-101908428D01*
X61492492Y-101835857D01*
X61637635Y-101690714D01*
X61710207Y-101545571D01*
X61782778Y-101255285D01*
X61782778Y-101037571D01*
X61710207Y-100747285D01*
X61637635Y-100602142D01*
X61492492Y-100457000D01*
X61274778Y-100384428D01*
X61129635Y-100384428D01*
X60911921Y-100457000D01*
X60839350Y-100529571D01*
X60186207Y-101110142D02*
X59678207Y-101110142D01*
X59460492Y-101908428D02*
X60186207Y-101908428D01*
X60186207Y-100384428D01*
X59460492Y-100384428D01*
X58879921Y-101835857D02*
X58662207Y-101908428D01*
X58299350Y-101908428D01*
X58154207Y-101835857D01*
X58081635Y-101763285D01*
X58009064Y-101618142D01*
X58009064Y-101473000D01*
X58081635Y-101327857D01*
X58154207Y-101255285D01*
X58299350Y-101182714D01*
X58589635Y-101110142D01*
X58734778Y-101037571D01*
X58807350Y-100965000D01*
X58879921Y-100819857D01*
X58879921Y-100674714D01*
X58807350Y-100529571D01*
X58734778Y-100457000D01*
X58589635Y-100384428D01*
X58226778Y-100384428D01*
X58009064Y-100457000D01*
X57428492Y-101835857D02*
X57210778Y-101908428D01*
X56847921Y-101908428D01*
X56702778Y-101835857D01*
X56630207Y-101763285D01*
X56557635Y-101618142D01*
X56557635Y-101473000D01*
X56630207Y-101327857D01*
X56702778Y-101255285D01*
X56847921Y-101182714D01*
X57138207Y-101110142D01*
X57283350Y-101037571D01*
X57355921Y-100965000D01*
X57428492Y-100819857D01*
X57428492Y-100674714D01*
X57355921Y-100529571D01*
X57283350Y-100457000D01*
X57138207Y-100384428D01*
X56775350Y-100384428D01*
X56557635Y-100457000D01*
X54235350Y-101110142D02*
X54017635Y-101182714D01*
X53945064Y-101255285D01*
X53872492Y-101400428D01*
X53872492Y-101618142D01*
X53945064Y-101763285D01*
X54017635Y-101835857D01*
X54162778Y-101908428D01*
X54743350Y-101908428D01*
X54743350Y-100384428D01*
X54235350Y-100384428D01*
X54090207Y-100457000D01*
X54017635Y-100529571D01*
X53945064Y-100674714D01*
X53945064Y-100819857D01*
X54017635Y-100965000D01*
X54090207Y-101037571D01*
X54235350Y-101110142D01*
X54743350Y-101110142D01*
X53219350Y-100384428D02*
X53219350Y-101618142D01*
X53146778Y-101763285D01*
X53074207Y-101835857D01*
X52929064Y-101908428D01*
X52638778Y-101908428D01*
X52493635Y-101835857D01*
X52421064Y-101763285D01*
X52348492Y-101618142D01*
X52348492Y-100384428D01*
X51695350Y-101835857D02*
X51477635Y-101908428D01*
X51114778Y-101908428D01*
X50969635Y-101835857D01*
X50897064Y-101763285D01*
X50824492Y-101618142D01*
X50824492Y-101473000D01*
X50897064Y-101327857D01*
X50969635Y-101255285D01*
X51114778Y-101182714D01*
X51405064Y-101110142D01*
X51550207Y-101037571D01*
X51622778Y-100965000D01*
X51695350Y-100819857D01*
X51695350Y-100674714D01*
X51622778Y-100529571D01*
X51550207Y-100457000D01*
X51405064Y-100384428D01*
X51042207Y-100384428D01*
X50824492Y-100457000D01*
X56430635Y-117275428D02*
X55414635Y-117275428D01*
X56430635Y-118799428D01*
X55414635Y-118799428D01*
X54834064Y-118799428D02*
X54834064Y-117275428D01*
X54471207Y-117275428D01*
X54253492Y-117348000D01*
X54108350Y-117493142D01*
X54035778Y-117638285D01*
X53963207Y-117928571D01*
X53963207Y-118146285D01*
X54035778Y-118436571D01*
X54108350Y-118581714D01*
X54253492Y-118726857D01*
X54471207Y-118799428D01*
X54834064Y-118799428D01*
X53310064Y-118799428D02*
X53310064Y-117275428D01*
X79018492Y-143782142D02*
X78800778Y-143854714D01*
X78728207Y-143927285D01*
X78655635Y-144072428D01*
X78655635Y-144290142D01*
X78728207Y-144435285D01*
X78800778Y-144507857D01*
X78945921Y-144580428D01*
X79526492Y-144580428D01*
X79526492Y-143056428D01*
X79018492Y-143056428D01*
X78873350Y-143129000D01*
X78800778Y-143201571D01*
X78728207Y-143346714D01*
X78728207Y-143491857D01*
X78800778Y-143637000D01*
X78873350Y-143709571D01*
X79018492Y-143782142D01*
X79526492Y-143782142D01*
X78075064Y-144145000D02*
X77349350Y-144145000D01*
X78220207Y-144580428D02*
X77712207Y-143056428D01*
X77204207Y-144580428D01*
X76913921Y-143056428D02*
X76043064Y-143056428D01*
X76478492Y-144580428D02*
X76478492Y-143056428D01*
X75752778Y-143056428D02*
X74881921Y-143056428D01*
X75317350Y-144580428D02*
X75317350Y-143056428D01*
X74373921Y-143782142D02*
X73865921Y-143782142D01*
X73648207Y-144580428D02*
X74373921Y-144580428D01*
X74373921Y-143056428D01*
X73648207Y-143056428D01*
X72124207Y-144580428D02*
X72632207Y-143854714D01*
X72995064Y-144580428D02*
X72995064Y-143056428D01*
X72414492Y-143056428D01*
X72269350Y-143129000D01*
X72196778Y-143201571D01*
X72124207Y-143346714D01*
X72124207Y-143564428D01*
X72196778Y-143709571D01*
X72269350Y-143782142D01*
X72414492Y-143854714D01*
X72995064Y-143854714D01*
X71180778Y-143854714D02*
X71180778Y-144580428D01*
X71688778Y-143056428D02*
X71180778Y-143854714D01*
X70672778Y-143056428D01*
X100862492Y-141532428D02*
X100862492Y-142766142D01*
X100789921Y-142911285D01*
X100717350Y-142983857D01*
X100572207Y-143056428D01*
X100281921Y-143056428D01*
X100136778Y-142983857D01*
X100064207Y-142911285D01*
X99991635Y-142766142D01*
X99991635Y-141532428D01*
X99265921Y-142258142D02*
X98757921Y-142258142D01*
X98540207Y-143056428D02*
X99265921Y-143056428D01*
X99265921Y-141532428D01*
X98540207Y-141532428D01*
X98032207Y-141532428D02*
X97016207Y-143056428D01*
X97016207Y-141532428D02*
X98032207Y-143056428D01*
X96653350Y-141532428D02*
X95782492Y-141532428D01*
X96217921Y-143056428D02*
X96217921Y-141532428D01*
X63016492Y-90478428D02*
X63016492Y-88954428D01*
X62508492Y-90043000D01*
X62000492Y-88954428D01*
X62000492Y-90478428D01*
X61274778Y-90478428D02*
X61274778Y-88954428D01*
X59678207Y-90333285D02*
X59750778Y-90405857D01*
X59968492Y-90478428D01*
X60113635Y-90478428D01*
X60331350Y-90405857D01*
X60476492Y-90260714D01*
X60549064Y-90115571D01*
X60621635Y-89825285D01*
X60621635Y-89607571D01*
X60549064Y-89317285D01*
X60476492Y-89172142D01*
X60331350Y-89027000D01*
X60113635Y-88954428D01*
X59968492Y-88954428D01*
X59750778Y-89027000D01*
X59678207Y-89099571D01*
X58154207Y-90478428D02*
X58662207Y-89752714D01*
X59025064Y-90478428D02*
X59025064Y-88954428D01*
X58444492Y-88954428D01*
X58299350Y-89027000D01*
X58226778Y-89099571D01*
X58154207Y-89244714D01*
X58154207Y-89462428D01*
X58226778Y-89607571D01*
X58299350Y-89680142D01*
X58444492Y-89752714D01*
X59025064Y-89752714D01*
X57210778Y-88954428D02*
X56920492Y-88954428D01*
X56775350Y-89027000D01*
X56630207Y-89172142D01*
X56557635Y-89462428D01*
X56557635Y-89970428D01*
X56630207Y-90260714D01*
X56775350Y-90405857D01*
X56920492Y-90478428D01*
X57210778Y-90478428D01*
X57355921Y-90405857D01*
X57501064Y-90260714D01*
X57573635Y-89970428D01*
X57573635Y-89462428D01*
X57501064Y-89172142D01*
X57355921Y-89027000D01*
X57210778Y-88954428D01*
X54815921Y-90405857D02*
X54598207Y-90478428D01*
X54235350Y-90478428D01*
X54090207Y-90405857D01*
X54017635Y-90333285D01*
X53945064Y-90188142D01*
X53945064Y-90043000D01*
X54017635Y-89897857D01*
X54090207Y-89825285D01*
X54235350Y-89752714D01*
X54525635Y-89680142D01*
X54670778Y-89607571D01*
X54743350Y-89535000D01*
X54815921Y-89389857D01*
X54815921Y-89244714D01*
X54743350Y-89099571D01*
X54670778Y-89027000D01*
X54525635Y-88954428D01*
X54162778Y-88954428D01*
X53945064Y-89027000D01*
X53291921Y-90478428D02*
X53291921Y-88954428D01*
X52929064Y-88954428D01*
X52711350Y-89027000D01*
X52566207Y-89172142D01*
X52493635Y-89317285D01*
X52421064Y-89607571D01*
X52421064Y-89825285D01*
X52493635Y-90115571D01*
X52566207Y-90260714D01*
X52711350Y-90405857D01*
X52929064Y-90478428D01*
X53291921Y-90478428D01*
X83209492Y-90478428D02*
X83209492Y-88954428D01*
X82338635Y-90478428D02*
X82991778Y-89607571D01*
X82338635Y-88954428D02*
X83209492Y-89825285D01*
X81685492Y-89680142D02*
X81177492Y-89680142D01*
X80959778Y-90478428D02*
X81685492Y-90478428D01*
X81685492Y-88954428D01*
X80959778Y-88954428D01*
X80016350Y-89752714D02*
X80016350Y-90478428D01*
X80524350Y-88954428D02*
X80016350Y-89752714D01*
X79508350Y-88954428D01*
X78492350Y-89680142D02*
X78274635Y-89752714D01*
X78202064Y-89825285D01*
X78129492Y-89970428D01*
X78129492Y-90188142D01*
X78202064Y-90333285D01*
X78274635Y-90405857D01*
X78419778Y-90478428D01*
X79000350Y-90478428D01*
X79000350Y-88954428D01*
X78492350Y-88954428D01*
X78347207Y-89027000D01*
X78274635Y-89099571D01*
X78202064Y-89244714D01*
X78202064Y-89389857D01*
X78274635Y-89535000D01*
X78347207Y-89607571D01*
X78492350Y-89680142D01*
X79000350Y-89680142D01*
X77186064Y-88954428D02*
X76895778Y-88954428D01*
X76750635Y-89027000D01*
X76605492Y-89172142D01*
X76532921Y-89462428D01*
X76532921Y-89970428D01*
X76605492Y-90260714D01*
X76750635Y-90405857D01*
X76895778Y-90478428D01*
X77186064Y-90478428D01*
X77331207Y-90405857D01*
X77476350Y-90260714D01*
X77548921Y-89970428D01*
X77548921Y-89462428D01*
X77476350Y-89172142D01*
X77331207Y-89027000D01*
X77186064Y-88954428D01*
X75952350Y-90043000D02*
X75226635Y-90043000D01*
X76097492Y-90478428D02*
X75589492Y-88954428D01*
X75081492Y-90478428D01*
X73702635Y-90478428D02*
X74210635Y-89752714D01*
X74573492Y-90478428D02*
X74573492Y-88954428D01*
X73992921Y-88954428D01*
X73847778Y-89027000D01*
X73775207Y-89099571D01*
X73702635Y-89244714D01*
X73702635Y-89462428D01*
X73775207Y-89607571D01*
X73847778Y-89680142D01*
X73992921Y-89752714D01*
X74573492Y-89752714D01*
X73049492Y-90478428D02*
X73049492Y-88954428D01*
X72686635Y-88954428D01*
X72468921Y-89027000D01*
X72323778Y-89172142D01*
X72251207Y-89317285D01*
X72178635Y-89607571D01*
X72178635Y-89825285D01*
X72251207Y-90115571D01*
X72323778Y-90260714D01*
X72468921Y-90405857D01*
X72686635Y-90478428D01*
X73049492Y-90478428D01*
X100427064Y-90043000D02*
X99701350Y-90043000D01*
X100572207Y-90478428D02*
X100064207Y-88954428D01*
X99556207Y-90478428D01*
X99048207Y-88954428D02*
X99048207Y-90188142D01*
X98975635Y-90333285D01*
X98903064Y-90405857D01*
X98757921Y-90478428D01*
X98467635Y-90478428D01*
X98322492Y-90405857D01*
X98249921Y-90333285D01*
X98177350Y-90188142D01*
X98177350Y-88954428D01*
X97451635Y-90478428D02*
X97451635Y-88954428D01*
X97088778Y-88954428D01*
X96871064Y-89027000D01*
X96725921Y-89172142D01*
X96653350Y-89317285D01*
X96580778Y-89607571D01*
X96580778Y-89825285D01*
X96653350Y-90115571D01*
X96725921Y-90260714D01*
X96871064Y-90405857D01*
X97088778Y-90478428D01*
X97451635Y-90478428D01*
X95927635Y-90478428D02*
X95927635Y-88954428D01*
X94911635Y-88954428D02*
X94621350Y-88954428D01*
X94476207Y-89027000D01*
X94331064Y-89172142D01*
X94258492Y-89462428D01*
X94258492Y-89970428D01*
X94331064Y-90260714D01*
X94476207Y-90405857D01*
X94621350Y-90478428D01*
X94911635Y-90478428D01*
X95056778Y-90405857D01*
X95201921Y-90260714D01*
X95274492Y-89970428D01*
X95274492Y-89462428D01*
X95201921Y-89172142D01*
X95056778Y-89027000D01*
X94911635Y-88954428D01*
X118860207Y-88954428D02*
X118352207Y-90478428D01*
X117844207Y-88954428D01*
X116537921Y-89027000D02*
X116683064Y-88954428D01*
X116900778Y-88954428D01*
X117118492Y-89027000D01*
X117263635Y-89172142D01*
X117336207Y-89317285D01*
X117408778Y-89607571D01*
X117408778Y-89825285D01*
X117336207Y-90115571D01*
X117263635Y-90260714D01*
X117118492Y-90405857D01*
X116900778Y-90478428D01*
X116755635Y-90478428D01*
X116537921Y-90405857D01*
X116465350Y-90333285D01*
X116465350Y-89825285D01*
X116755635Y-89825285D01*
X115884778Y-90043000D02*
X115159064Y-90043000D01*
X116029921Y-90478428D02*
X115521921Y-88954428D01*
X115013921Y-90478428D01*
X143280492Y-90478428D02*
X143280492Y-88954428D01*
X142699921Y-88954428D01*
X142554778Y-89027000D01*
X142482207Y-89099571D01*
X142409635Y-89244714D01*
X142409635Y-89462428D01*
X142482207Y-89607571D01*
X142554778Y-89680142D01*
X142699921Y-89752714D01*
X143280492Y-89752714D01*
X141466207Y-88954428D02*
X141175921Y-88954428D01*
X141030778Y-89027000D01*
X140885635Y-89172142D01*
X140813064Y-89462428D01*
X140813064Y-89970428D01*
X140885635Y-90260714D01*
X141030778Y-90405857D01*
X141175921Y-90478428D01*
X141466207Y-90478428D01*
X141611350Y-90405857D01*
X141756492Y-90260714D01*
X141829064Y-89970428D01*
X141829064Y-89462428D01*
X141756492Y-89172142D01*
X141611350Y-89027000D01*
X141466207Y-88954428D01*
X140305064Y-88954428D02*
X139942207Y-90478428D01*
X139651921Y-89389857D01*
X139361635Y-90478428D01*
X138998778Y-88954428D01*
X138418207Y-89680142D02*
X137910207Y-89680142D01*
X137692492Y-90478428D02*
X138418207Y-90478428D01*
X138418207Y-88954428D01*
X137692492Y-88954428D01*
X136168492Y-90478428D02*
X136676492Y-89752714D01*
X137039350Y-90478428D02*
X137039350Y-88954428D01*
X136458778Y-88954428D01*
X136313635Y-89027000D01*
X136241064Y-89099571D01*
X136168492Y-89244714D01*
X136168492Y-89462428D01*
X136241064Y-89607571D01*
X136313635Y-89680142D01*
X136458778Y-89752714D01*
X137039350Y-89752714D01*
X153077635Y-93653428D02*
X153585635Y-92927714D01*
X153948492Y-93653428D02*
X153948492Y-92129428D01*
X153367921Y-92129428D01*
X153222778Y-92202000D01*
X153150207Y-92274571D01*
X153077635Y-92419714D01*
X153077635Y-92637428D01*
X153150207Y-92782571D01*
X153222778Y-92855142D01*
X153367921Y-92927714D01*
X153948492Y-92927714D01*
X152424492Y-92855142D02*
X151916492Y-92855142D01*
X151698778Y-93653428D02*
X152424492Y-93653428D01*
X152424492Y-92129428D01*
X151698778Y-92129428D01*
X151118207Y-93580857D02*
X150900492Y-93653428D01*
X150537635Y-93653428D01*
X150392492Y-93580857D01*
X150319921Y-93508285D01*
X150247350Y-93363142D01*
X150247350Y-93218000D01*
X150319921Y-93072857D01*
X150392492Y-93000285D01*
X150537635Y-92927714D01*
X150827921Y-92855142D01*
X150973064Y-92782571D01*
X151045635Y-92710000D01*
X151118207Y-92564857D01*
X151118207Y-92419714D01*
X151045635Y-92274571D01*
X150973064Y-92202000D01*
X150827921Y-92129428D01*
X150465064Y-92129428D01*
X150247350Y-92202000D01*
X149594207Y-92855142D02*
X149086207Y-92855142D01*
X148868492Y-93653428D02*
X149594207Y-93653428D01*
X149594207Y-92129428D01*
X148868492Y-92129428D01*
X148433064Y-92129428D02*
X147562207Y-92129428D01*
X147997635Y-93653428D02*
X147997635Y-92129428D01*
D11*
X123901804Y-94312619D02*
X124482376Y-94312619D01*
X124192090Y-94312619D02*
X124192090Y-93296619D01*
X124288852Y-93441761D01*
X124385614Y-93538523D01*
X124482376Y-93586904D01*
X122982566Y-93296619D02*
X123466376Y-93296619D01*
X123514757Y-93780428D01*
X123466376Y-93732047D01*
X123369614Y-93683666D01*
X123127709Y-93683666D01*
X123030947Y-93732047D01*
X122982566Y-93780428D01*
X122934185Y-93877190D01*
X122934185Y-94119095D01*
X122982566Y-94215857D01*
X123030947Y-94264238D01*
X123127709Y-94312619D01*
X123369614Y-94312619D01*
X123466376Y-94264238D01*
X123514757Y-94215857D01*
X110566804Y-99392619D02*
X111147376Y-99392619D01*
X110857090Y-99392619D02*
X110857090Y-98376619D01*
X110953852Y-98521761D01*
X111050614Y-98618523D01*
X111147376Y-98666904D01*
D12*
X145124714Y-136975396D02*
X145886714Y-137229396D01*
X145124714Y-137483396D01*
X145487571Y-137991396D02*
X145523857Y-138100253D01*
X145560142Y-138136539D01*
X145632714Y-138172825D01*
X145741571Y-138172825D01*
X145814142Y-138136539D01*
X145850428Y-138100253D01*
X145886714Y-138027682D01*
X145886714Y-137737396D01*
X145124714Y-137737396D01*
X145124714Y-137991396D01*
X145161000Y-138063967D01*
X145197285Y-138100253D01*
X145269857Y-138136539D01*
X145342428Y-138136539D01*
X145415000Y-138100253D01*
X145451285Y-138063967D01*
X145487571Y-137991396D01*
X145487571Y-137737396D01*
X145669000Y-138463110D02*
X145669000Y-138825967D01*
X145886714Y-138390539D02*
X145124714Y-138644539D01*
X145886714Y-138898539D01*
X145124714Y-139043682D02*
X145124714Y-139479110D01*
X145886714Y-139261396D02*
X145124714Y-139261396D01*
X142621000Y-137864396D02*
X142584714Y-137791825D01*
X142584714Y-137682967D01*
X142621000Y-137574110D01*
X142693571Y-137501539D01*
X142766142Y-137465253D01*
X142911285Y-137428967D01*
X143020142Y-137428967D01*
X143165285Y-137465253D01*
X143237857Y-137501539D01*
X143310428Y-137574110D01*
X143346714Y-137682967D01*
X143346714Y-137755539D01*
X143310428Y-137864396D01*
X143274142Y-137900682D01*
X143020142Y-137900682D01*
X143020142Y-137755539D01*
X143346714Y-138227253D02*
X142584714Y-138227253D01*
X143346714Y-138662682D01*
X142584714Y-138662682D01*
X143346714Y-139025539D02*
X142584714Y-139025539D01*
X142584714Y-139206967D01*
X142621000Y-139315825D01*
X142693571Y-139388396D01*
X142766142Y-139424682D01*
X142911285Y-139460967D01*
X143020142Y-139460967D01*
X143165285Y-139424682D01*
X143237857Y-139388396D01*
X143310428Y-139315825D01*
X143346714Y-139206967D01*
X143346714Y-139025539D01*
X140081000Y-137864396D02*
X140044714Y-137791825D01*
X140044714Y-137682967D01*
X140081000Y-137574110D01*
X140153571Y-137501539D01*
X140226142Y-137465253D01*
X140371285Y-137428967D01*
X140480142Y-137428967D01*
X140625285Y-137465253D01*
X140697857Y-137501539D01*
X140770428Y-137574110D01*
X140806714Y-137682967D01*
X140806714Y-137755539D01*
X140770428Y-137864396D01*
X140734142Y-137900682D01*
X140480142Y-137900682D01*
X140480142Y-137755539D01*
X140806714Y-138227253D02*
X140044714Y-138227253D01*
X140806714Y-138662682D01*
X140044714Y-138662682D01*
X140806714Y-139025539D02*
X140044714Y-139025539D01*
X140044714Y-139206967D01*
X140081000Y-139315825D01*
X140153571Y-139388396D01*
X140226142Y-139424682D01*
X140371285Y-139460967D01*
X140480142Y-139460967D01*
X140625285Y-139424682D01*
X140697857Y-139388396D01*
X140770428Y-139315825D01*
X140806714Y-139206967D01*
X140806714Y-139025539D01*
X137867571Y-135052253D02*
X137867571Y-135306253D01*
X138266714Y-135415110D02*
X138266714Y-135052253D01*
X137504714Y-135052253D01*
X137504714Y-135415110D01*
X138230428Y-135705396D02*
X138266714Y-135814253D01*
X138266714Y-135995682D01*
X138230428Y-136068253D01*
X138194142Y-136104539D01*
X138121571Y-136140825D01*
X138049000Y-136140825D01*
X137976428Y-136104539D01*
X137940142Y-136068253D01*
X137903857Y-135995682D01*
X137867571Y-135850539D01*
X137831285Y-135777967D01*
X137795000Y-135741682D01*
X137722428Y-135705396D01*
X137649857Y-135705396D01*
X137577285Y-135741682D01*
X137541000Y-135777967D01*
X137504714Y-135850539D01*
X137504714Y-136031967D01*
X137541000Y-136140825D01*
X138266714Y-136467396D02*
X137504714Y-136467396D01*
X137504714Y-136757682D01*
X137541000Y-136830253D01*
X137577285Y-136866539D01*
X137649857Y-136902825D01*
X137758714Y-136902825D01*
X137831285Y-136866539D01*
X137867571Y-136830253D01*
X137903857Y-136757682D01*
X137903857Y-136467396D01*
X138266714Y-137229396D02*
X137504714Y-137229396D01*
X137504714Y-137737396D02*
X137504714Y-137882539D01*
X137541000Y-137955110D01*
X137613571Y-138027682D01*
X137758714Y-138063967D01*
X138012714Y-138063967D01*
X138157857Y-138027682D01*
X138230428Y-137955110D01*
X138266714Y-137882539D01*
X138266714Y-137737396D01*
X138230428Y-137664825D01*
X138157857Y-137592253D01*
X138012714Y-137555967D01*
X137758714Y-137555967D01*
X137613571Y-137592253D01*
X137541000Y-137664825D01*
X137504714Y-137737396D01*
X137504714Y-138317967D02*
X137504714Y-138789682D01*
X137795000Y-138535682D01*
X137795000Y-138644539D01*
X137831285Y-138717110D01*
X137867571Y-138753396D01*
X137940142Y-138789682D01*
X138121571Y-138789682D01*
X138194142Y-138753396D01*
X138230428Y-138717110D01*
X138266714Y-138644539D01*
X138266714Y-138426825D01*
X138230428Y-138354253D01*
X138194142Y-138317967D01*
X137504714Y-139479110D02*
X137504714Y-139116253D01*
X137867571Y-139079967D01*
X137831285Y-139116253D01*
X137795000Y-139188825D01*
X137795000Y-139370253D01*
X137831285Y-139442825D01*
X137867571Y-139479110D01*
X137940142Y-139515396D01*
X138121571Y-139515396D01*
X138194142Y-139479110D01*
X138230428Y-139442825D01*
X138266714Y-139370253D01*
X138266714Y-139188825D01*
X138230428Y-139116253D01*
X138194142Y-139079967D01*
X135327571Y-135052253D02*
X135327571Y-135306253D01*
X135726714Y-135415110D02*
X135726714Y-135052253D01*
X134964714Y-135052253D01*
X134964714Y-135415110D01*
X135690428Y-135705396D02*
X135726714Y-135814253D01*
X135726714Y-135995682D01*
X135690428Y-136068253D01*
X135654142Y-136104539D01*
X135581571Y-136140825D01*
X135509000Y-136140825D01*
X135436428Y-136104539D01*
X135400142Y-136068253D01*
X135363857Y-135995682D01*
X135327571Y-135850539D01*
X135291285Y-135777967D01*
X135255000Y-135741682D01*
X135182428Y-135705396D01*
X135109857Y-135705396D01*
X135037285Y-135741682D01*
X135001000Y-135777967D01*
X134964714Y-135850539D01*
X134964714Y-136031967D01*
X135001000Y-136140825D01*
X135726714Y-136467396D02*
X134964714Y-136467396D01*
X134964714Y-136757682D01*
X135001000Y-136830253D01*
X135037285Y-136866539D01*
X135109857Y-136902825D01*
X135218714Y-136902825D01*
X135291285Y-136866539D01*
X135327571Y-136830253D01*
X135363857Y-136757682D01*
X135363857Y-136467396D01*
X135726714Y-137229396D02*
X134964714Y-137229396D01*
X134964714Y-137737396D02*
X134964714Y-137882539D01*
X135001000Y-137955110D01*
X135073571Y-138027682D01*
X135218714Y-138063967D01*
X135472714Y-138063967D01*
X135617857Y-138027682D01*
X135690428Y-137955110D01*
X135726714Y-137882539D01*
X135726714Y-137737396D01*
X135690428Y-137664825D01*
X135617857Y-137592253D01*
X135472714Y-137555967D01*
X135218714Y-137555967D01*
X135073571Y-137592253D01*
X135001000Y-137664825D01*
X134964714Y-137737396D01*
X135037285Y-138354253D02*
X135001000Y-138390539D01*
X134964714Y-138463110D01*
X134964714Y-138644539D01*
X135001000Y-138717110D01*
X135037285Y-138753396D01*
X135109857Y-138789682D01*
X135182428Y-138789682D01*
X135291285Y-138753396D01*
X135726714Y-138317967D01*
X135726714Y-138789682D01*
X134964714Y-139442825D02*
X134964714Y-139297682D01*
X135001000Y-139225110D01*
X135037285Y-139188825D01*
X135146142Y-139116253D01*
X135291285Y-139079967D01*
X135581571Y-139079967D01*
X135654142Y-139116253D01*
X135690428Y-139152539D01*
X135726714Y-139225110D01*
X135726714Y-139370253D01*
X135690428Y-139442825D01*
X135654142Y-139479110D01*
X135581571Y-139515396D01*
X135400142Y-139515396D01*
X135327571Y-139479110D01*
X135291285Y-139442825D01*
X135255000Y-139370253D01*
X135255000Y-139225110D01*
X135291285Y-139152539D01*
X135327571Y-139116253D01*
X135400142Y-139079967D01*
X132787571Y-135052253D02*
X132787571Y-135306253D01*
X133186714Y-135415110D02*
X133186714Y-135052253D01*
X132424714Y-135052253D01*
X132424714Y-135415110D01*
X133150428Y-135705396D02*
X133186714Y-135814253D01*
X133186714Y-135995682D01*
X133150428Y-136068253D01*
X133114142Y-136104539D01*
X133041571Y-136140825D01*
X132969000Y-136140825D01*
X132896428Y-136104539D01*
X132860142Y-136068253D01*
X132823857Y-135995682D01*
X132787571Y-135850539D01*
X132751285Y-135777967D01*
X132715000Y-135741682D01*
X132642428Y-135705396D01*
X132569857Y-135705396D01*
X132497285Y-135741682D01*
X132461000Y-135777967D01*
X132424714Y-135850539D01*
X132424714Y-136031967D01*
X132461000Y-136140825D01*
X133186714Y-136467396D02*
X132424714Y-136467396D01*
X132424714Y-136757682D01*
X132461000Y-136830253D01*
X132497285Y-136866539D01*
X132569857Y-136902825D01*
X132678714Y-136902825D01*
X132751285Y-136866539D01*
X132787571Y-136830253D01*
X132823857Y-136757682D01*
X132823857Y-136467396D01*
X133186714Y-137229396D02*
X132424714Y-137229396D01*
X132424714Y-137737396D02*
X132424714Y-137882539D01*
X132461000Y-137955110D01*
X132533571Y-138027682D01*
X132678714Y-138063967D01*
X132932714Y-138063967D01*
X133077857Y-138027682D01*
X133150428Y-137955110D01*
X133186714Y-137882539D01*
X133186714Y-137737396D01*
X133150428Y-137664825D01*
X133077857Y-137592253D01*
X132932714Y-137555967D01*
X132678714Y-137555967D01*
X132533571Y-137592253D01*
X132461000Y-137664825D01*
X132424714Y-137737396D01*
X132424714Y-138317967D02*
X132424714Y-138789682D01*
X132715000Y-138535682D01*
X132715000Y-138644539D01*
X132751285Y-138717110D01*
X132787571Y-138753396D01*
X132860142Y-138789682D01*
X133041571Y-138789682D01*
X133114142Y-138753396D01*
X133150428Y-138717110D01*
X133186714Y-138644539D01*
X133186714Y-138426825D01*
X133150428Y-138354253D01*
X133114142Y-138317967D01*
X132424714Y-139043682D02*
X132424714Y-139551682D01*
X133186714Y-139225110D01*
X129921000Y-134816396D02*
X129884714Y-134743825D01*
X129884714Y-134634967D01*
X129921000Y-134526110D01*
X129993571Y-134453539D01*
X130066142Y-134417253D01*
X130211285Y-134380967D01*
X130320142Y-134380967D01*
X130465285Y-134417253D01*
X130537857Y-134453539D01*
X130610428Y-134526110D01*
X130646714Y-134634967D01*
X130646714Y-134707539D01*
X130610428Y-134816396D01*
X130574142Y-134852682D01*
X130320142Y-134852682D01*
X130320142Y-134707539D01*
X130646714Y-135179253D02*
X129884714Y-135179253D01*
X129884714Y-135469539D01*
X129921000Y-135542110D01*
X129957285Y-135578396D01*
X130029857Y-135614682D01*
X130138714Y-135614682D01*
X130211285Y-135578396D01*
X130247571Y-135542110D01*
X130283857Y-135469539D01*
X130283857Y-135179253D01*
X130646714Y-135941253D02*
X129884714Y-135941253D01*
X129884714Y-136449253D02*
X129884714Y-136594396D01*
X129921000Y-136666967D01*
X129993571Y-136739539D01*
X130138714Y-136775825D01*
X130392714Y-136775825D01*
X130537857Y-136739539D01*
X130610428Y-136666967D01*
X130646714Y-136594396D01*
X130646714Y-136449253D01*
X130610428Y-136376682D01*
X130537857Y-136304110D01*
X130392714Y-136267825D01*
X130138714Y-136267825D01*
X129993571Y-136304110D01*
X129921000Y-136376682D01*
X129884714Y-136449253D01*
X130719285Y-136920967D02*
X130719285Y-137501539D01*
X130646714Y-137682967D02*
X129884714Y-137682967D01*
X129884714Y-137973253D01*
X129921000Y-138045825D01*
X129957285Y-138082110D01*
X130029857Y-138118396D01*
X130138714Y-138118396D01*
X130211285Y-138082110D01*
X130247571Y-138045825D01*
X130283857Y-137973253D01*
X130283857Y-137682967D01*
X130646714Y-138444967D02*
X129884714Y-138444967D01*
X129884714Y-138626396D01*
X129921000Y-138735253D01*
X129993571Y-138807825D01*
X130066142Y-138844110D01*
X130211285Y-138880396D01*
X130320142Y-138880396D01*
X130465285Y-138844110D01*
X130537857Y-138807825D01*
X130610428Y-138735253D01*
X130646714Y-138626396D01*
X130646714Y-138444967D01*
X130138714Y-139533539D02*
X130646714Y-139533539D01*
X129848428Y-139352110D02*
X130392714Y-139170682D01*
X130392714Y-139642396D01*
X127381000Y-134816396D02*
X127344714Y-134743825D01*
X127344714Y-134634967D01*
X127381000Y-134526110D01*
X127453571Y-134453539D01*
X127526142Y-134417253D01*
X127671285Y-134380967D01*
X127780142Y-134380967D01*
X127925285Y-134417253D01*
X127997857Y-134453539D01*
X128070428Y-134526110D01*
X128106714Y-134634967D01*
X128106714Y-134707539D01*
X128070428Y-134816396D01*
X128034142Y-134852682D01*
X127780142Y-134852682D01*
X127780142Y-134707539D01*
X128106714Y-135179253D02*
X127344714Y-135179253D01*
X127344714Y-135469539D01*
X127381000Y-135542110D01*
X127417285Y-135578396D01*
X127489857Y-135614682D01*
X127598714Y-135614682D01*
X127671285Y-135578396D01*
X127707571Y-135542110D01*
X127743857Y-135469539D01*
X127743857Y-135179253D01*
X128106714Y-135941253D02*
X127344714Y-135941253D01*
X127344714Y-136449253D02*
X127344714Y-136594396D01*
X127381000Y-136666967D01*
X127453571Y-136739539D01*
X127598714Y-136775825D01*
X127852714Y-136775825D01*
X127997857Y-136739539D01*
X128070428Y-136666967D01*
X128106714Y-136594396D01*
X128106714Y-136449253D01*
X128070428Y-136376682D01*
X127997857Y-136304110D01*
X127852714Y-136267825D01*
X127598714Y-136267825D01*
X127453571Y-136304110D01*
X127381000Y-136376682D01*
X127344714Y-136449253D01*
X128179285Y-136920967D02*
X128179285Y-137501539D01*
X128106714Y-137682967D02*
X127344714Y-137682967D01*
X127344714Y-137973253D01*
X127381000Y-138045825D01*
X127417285Y-138082110D01*
X127489857Y-138118396D01*
X127598714Y-138118396D01*
X127671285Y-138082110D01*
X127707571Y-138045825D01*
X127743857Y-137973253D01*
X127743857Y-137682967D01*
X128106714Y-138444967D02*
X127344714Y-138444967D01*
X127344714Y-138626396D01*
X127381000Y-138735253D01*
X127453571Y-138807825D01*
X127526142Y-138844110D01*
X127671285Y-138880396D01*
X127780142Y-138880396D01*
X127925285Y-138844110D01*
X127997857Y-138807825D01*
X128070428Y-138735253D01*
X128106714Y-138626396D01*
X128106714Y-138444967D01*
X127344714Y-139533539D02*
X127344714Y-139388396D01*
X127381000Y-139315825D01*
X127417285Y-139279539D01*
X127526142Y-139206967D01*
X127671285Y-139170682D01*
X127961571Y-139170682D01*
X128034142Y-139206967D01*
X128070428Y-139243253D01*
X128106714Y-139315825D01*
X128106714Y-139460967D01*
X128070428Y-139533539D01*
X128034142Y-139569825D01*
X127961571Y-139606110D01*
X127780142Y-139606110D01*
X127707571Y-139569825D01*
X127671285Y-139533539D01*
X127635000Y-139460967D01*
X127635000Y-139315825D01*
X127671285Y-139243253D01*
X127707571Y-139206967D01*
X127780142Y-139170682D01*
X124841000Y-134816396D02*
X124804714Y-134743825D01*
X124804714Y-134634967D01*
X124841000Y-134526110D01*
X124913571Y-134453539D01*
X124986142Y-134417253D01*
X125131285Y-134380967D01*
X125240142Y-134380967D01*
X125385285Y-134417253D01*
X125457857Y-134453539D01*
X125530428Y-134526110D01*
X125566714Y-134634967D01*
X125566714Y-134707539D01*
X125530428Y-134816396D01*
X125494142Y-134852682D01*
X125240142Y-134852682D01*
X125240142Y-134707539D01*
X125566714Y-135179253D02*
X124804714Y-135179253D01*
X124804714Y-135469539D01*
X124841000Y-135542110D01*
X124877285Y-135578396D01*
X124949857Y-135614682D01*
X125058714Y-135614682D01*
X125131285Y-135578396D01*
X125167571Y-135542110D01*
X125203857Y-135469539D01*
X125203857Y-135179253D01*
X125566714Y-135941253D02*
X124804714Y-135941253D01*
X124804714Y-136449253D02*
X124804714Y-136594396D01*
X124841000Y-136666967D01*
X124913571Y-136739539D01*
X125058714Y-136775825D01*
X125312714Y-136775825D01*
X125457857Y-136739539D01*
X125530428Y-136666967D01*
X125566714Y-136594396D01*
X125566714Y-136449253D01*
X125530428Y-136376682D01*
X125457857Y-136304110D01*
X125312714Y-136267825D01*
X125058714Y-136267825D01*
X124913571Y-136304110D01*
X124841000Y-136376682D01*
X124804714Y-136449253D01*
X125639285Y-136920967D02*
X125639285Y-137501539D01*
X125566714Y-137682967D02*
X124804714Y-137682967D01*
X124804714Y-137973253D01*
X124841000Y-138045825D01*
X124877285Y-138082110D01*
X124949857Y-138118396D01*
X125058714Y-138118396D01*
X125131285Y-138082110D01*
X125167571Y-138045825D01*
X125203857Y-137973253D01*
X125203857Y-137682967D01*
X125494142Y-138880396D02*
X125530428Y-138844110D01*
X125566714Y-138735253D01*
X125566714Y-138662682D01*
X125530428Y-138553825D01*
X125457857Y-138481253D01*
X125385285Y-138444967D01*
X125240142Y-138408682D01*
X125131285Y-138408682D01*
X124986142Y-138444967D01*
X124913571Y-138481253D01*
X124841000Y-138553825D01*
X124804714Y-138662682D01*
X124804714Y-138735253D01*
X124841000Y-138844110D01*
X124877285Y-138880396D01*
X124804714Y-139352110D02*
X124804714Y-139424682D01*
X124841000Y-139497253D01*
X124877285Y-139533539D01*
X124949857Y-139569825D01*
X125095000Y-139606110D01*
X125276428Y-139606110D01*
X125421571Y-139569825D01*
X125494142Y-139533539D01*
X125530428Y-139497253D01*
X125566714Y-139424682D01*
X125566714Y-139352110D01*
X125530428Y-139279539D01*
X125494142Y-139243253D01*
X125421571Y-139206967D01*
X125276428Y-139170682D01*
X125095000Y-139170682D01*
X124949857Y-139206967D01*
X124877285Y-139243253D01*
X124841000Y-139279539D01*
X124804714Y-139352110D01*
X122301000Y-134816396D02*
X122264714Y-134743825D01*
X122264714Y-134634967D01*
X122301000Y-134526110D01*
X122373571Y-134453539D01*
X122446142Y-134417253D01*
X122591285Y-134380967D01*
X122700142Y-134380967D01*
X122845285Y-134417253D01*
X122917857Y-134453539D01*
X122990428Y-134526110D01*
X123026714Y-134634967D01*
X123026714Y-134707539D01*
X122990428Y-134816396D01*
X122954142Y-134852682D01*
X122700142Y-134852682D01*
X122700142Y-134707539D01*
X123026714Y-135179253D02*
X122264714Y-135179253D01*
X122264714Y-135469539D01*
X122301000Y-135542110D01*
X122337285Y-135578396D01*
X122409857Y-135614682D01*
X122518714Y-135614682D01*
X122591285Y-135578396D01*
X122627571Y-135542110D01*
X122663857Y-135469539D01*
X122663857Y-135179253D01*
X123026714Y-135941253D02*
X122264714Y-135941253D01*
X122264714Y-136449253D02*
X122264714Y-136594396D01*
X122301000Y-136666967D01*
X122373571Y-136739539D01*
X122518714Y-136775825D01*
X122772714Y-136775825D01*
X122917857Y-136739539D01*
X122990428Y-136666967D01*
X123026714Y-136594396D01*
X123026714Y-136449253D01*
X122990428Y-136376682D01*
X122917857Y-136304110D01*
X122772714Y-136267825D01*
X122518714Y-136267825D01*
X122373571Y-136304110D01*
X122301000Y-136376682D01*
X122264714Y-136449253D01*
X123099285Y-136920967D02*
X123099285Y-137501539D01*
X123026714Y-137682967D02*
X122264714Y-137682967D01*
X122264714Y-137973253D01*
X122301000Y-138045825D01*
X122337285Y-138082110D01*
X122409857Y-138118396D01*
X122518714Y-138118396D01*
X122591285Y-138082110D01*
X122627571Y-138045825D01*
X122663857Y-137973253D01*
X122663857Y-137682967D01*
X122954142Y-138880396D02*
X122990428Y-138844110D01*
X123026714Y-138735253D01*
X123026714Y-138662682D01*
X122990428Y-138553825D01*
X122917857Y-138481253D01*
X122845285Y-138444967D01*
X122700142Y-138408682D01*
X122591285Y-138408682D01*
X122446142Y-138444967D01*
X122373571Y-138481253D01*
X122301000Y-138553825D01*
X122264714Y-138662682D01*
X122264714Y-138735253D01*
X122301000Y-138844110D01*
X122337285Y-138880396D01*
X122337285Y-139170682D02*
X122301000Y-139206967D01*
X122264714Y-139279539D01*
X122264714Y-139460967D01*
X122301000Y-139533539D01*
X122337285Y-139569825D01*
X122409857Y-139606110D01*
X122482428Y-139606110D01*
X122591285Y-139569825D01*
X123026714Y-139134396D01*
X123026714Y-139606110D01*
X119761000Y-134689396D02*
X119724714Y-134616825D01*
X119724714Y-134507967D01*
X119761000Y-134399110D01*
X119833571Y-134326539D01*
X119906142Y-134290253D01*
X120051285Y-134253967D01*
X120160142Y-134253967D01*
X120305285Y-134290253D01*
X120377857Y-134326539D01*
X120450428Y-134399110D01*
X120486714Y-134507967D01*
X120486714Y-134580539D01*
X120450428Y-134689396D01*
X120414142Y-134725682D01*
X120160142Y-134725682D01*
X120160142Y-134580539D01*
X120486714Y-135052253D02*
X119724714Y-135052253D01*
X119724714Y-135342539D01*
X119761000Y-135415110D01*
X119797285Y-135451396D01*
X119869857Y-135487682D01*
X119978714Y-135487682D01*
X120051285Y-135451396D01*
X120087571Y-135415110D01*
X120123857Y-135342539D01*
X120123857Y-135052253D01*
X120486714Y-135814253D02*
X119724714Y-135814253D01*
X119724714Y-136322253D02*
X119724714Y-136467396D01*
X119761000Y-136539967D01*
X119833571Y-136612539D01*
X119978714Y-136648825D01*
X120232714Y-136648825D01*
X120377857Y-136612539D01*
X120450428Y-136539967D01*
X120486714Y-136467396D01*
X120486714Y-136322253D01*
X120450428Y-136249682D01*
X120377857Y-136177110D01*
X120232714Y-136140825D01*
X119978714Y-136140825D01*
X119833571Y-136177110D01*
X119761000Y-136249682D01*
X119724714Y-136322253D01*
X120559285Y-136793967D02*
X120559285Y-137374539D01*
X120486714Y-137555967D02*
X119724714Y-137555967D01*
X119724714Y-137846253D01*
X119761000Y-137918825D01*
X119797285Y-137955110D01*
X119869857Y-137991396D01*
X119978714Y-137991396D01*
X120051285Y-137955110D01*
X120087571Y-137918825D01*
X120123857Y-137846253D01*
X120123857Y-137555967D01*
X120414142Y-138753396D02*
X120450428Y-138717110D01*
X120486714Y-138608253D01*
X120486714Y-138535682D01*
X120450428Y-138426825D01*
X120377857Y-138354253D01*
X120305285Y-138317967D01*
X120160142Y-138281682D01*
X120051285Y-138281682D01*
X119906142Y-138317967D01*
X119833571Y-138354253D01*
X119761000Y-138426825D01*
X119724714Y-138535682D01*
X119724714Y-138608253D01*
X119761000Y-138717110D01*
X119797285Y-138753396D01*
X119978714Y-139406539D02*
X120486714Y-139406539D01*
X119688428Y-139225110D02*
X120232714Y-139043682D01*
X120232714Y-139515396D01*
X117221000Y-134816396D02*
X117184714Y-134743825D01*
X117184714Y-134634967D01*
X117221000Y-134526110D01*
X117293571Y-134453539D01*
X117366142Y-134417253D01*
X117511285Y-134380967D01*
X117620142Y-134380967D01*
X117765285Y-134417253D01*
X117837857Y-134453539D01*
X117910428Y-134526110D01*
X117946714Y-134634967D01*
X117946714Y-134707539D01*
X117910428Y-134816396D01*
X117874142Y-134852682D01*
X117620142Y-134852682D01*
X117620142Y-134707539D01*
X117946714Y-135179253D02*
X117184714Y-135179253D01*
X117184714Y-135469539D01*
X117221000Y-135542110D01*
X117257285Y-135578396D01*
X117329857Y-135614682D01*
X117438714Y-135614682D01*
X117511285Y-135578396D01*
X117547571Y-135542110D01*
X117583857Y-135469539D01*
X117583857Y-135179253D01*
X117946714Y-135941253D02*
X117184714Y-135941253D01*
X117184714Y-136449253D02*
X117184714Y-136594396D01*
X117221000Y-136666967D01*
X117293571Y-136739539D01*
X117438714Y-136775825D01*
X117692714Y-136775825D01*
X117837857Y-136739539D01*
X117910428Y-136666967D01*
X117946714Y-136594396D01*
X117946714Y-136449253D01*
X117910428Y-136376682D01*
X117837857Y-136304110D01*
X117692714Y-136267825D01*
X117438714Y-136267825D01*
X117293571Y-136304110D01*
X117221000Y-136376682D01*
X117184714Y-136449253D01*
X118019285Y-136920967D02*
X118019285Y-137501539D01*
X117946714Y-137682967D02*
X117184714Y-137682967D01*
X117184714Y-137973253D01*
X117221000Y-138045825D01*
X117257285Y-138082110D01*
X117329857Y-138118396D01*
X117438714Y-138118396D01*
X117511285Y-138082110D01*
X117547571Y-138045825D01*
X117583857Y-137973253D01*
X117583857Y-137682967D01*
X117874142Y-138880396D02*
X117910428Y-138844110D01*
X117946714Y-138735253D01*
X117946714Y-138662682D01*
X117910428Y-138553825D01*
X117837857Y-138481253D01*
X117765285Y-138444967D01*
X117620142Y-138408682D01*
X117511285Y-138408682D01*
X117366142Y-138444967D01*
X117293571Y-138481253D01*
X117221000Y-138553825D01*
X117184714Y-138662682D01*
X117184714Y-138735253D01*
X117221000Y-138844110D01*
X117257285Y-138880396D01*
X117184714Y-139533539D02*
X117184714Y-139388396D01*
X117221000Y-139315825D01*
X117257285Y-139279539D01*
X117366142Y-139206967D01*
X117511285Y-139170682D01*
X117801571Y-139170682D01*
X117874142Y-139206967D01*
X117910428Y-139243253D01*
X117946714Y-139315825D01*
X117946714Y-139460967D01*
X117910428Y-139533539D01*
X117874142Y-139569825D01*
X117801571Y-139606110D01*
X117620142Y-139606110D01*
X117547571Y-139569825D01*
X117511285Y-139533539D01*
X117475000Y-139460967D01*
X117475000Y-139315825D01*
X117511285Y-139243253D01*
X117547571Y-139206967D01*
X117620142Y-139170682D01*
X114681000Y-135578396D02*
X114644714Y-135505825D01*
X114644714Y-135396967D01*
X114681000Y-135288110D01*
X114753571Y-135215539D01*
X114826142Y-135179253D01*
X114971285Y-135142967D01*
X115080142Y-135142967D01*
X115225285Y-135179253D01*
X115297857Y-135215539D01*
X115370428Y-135288110D01*
X115406714Y-135396967D01*
X115406714Y-135469539D01*
X115370428Y-135578396D01*
X115334142Y-135614682D01*
X115080142Y-135614682D01*
X115080142Y-135469539D01*
X115406714Y-135941253D02*
X114644714Y-135941253D01*
X114644714Y-136231539D01*
X114681000Y-136304110D01*
X114717285Y-136340396D01*
X114789857Y-136376682D01*
X114898714Y-136376682D01*
X114971285Y-136340396D01*
X115007571Y-136304110D01*
X115043857Y-136231539D01*
X115043857Y-135941253D01*
X115406714Y-136703253D02*
X114644714Y-136703253D01*
X114644714Y-137211253D02*
X114644714Y-137356396D01*
X114681000Y-137428967D01*
X114753571Y-137501539D01*
X114898714Y-137537825D01*
X115152714Y-137537825D01*
X115297857Y-137501539D01*
X115370428Y-137428967D01*
X115406714Y-137356396D01*
X115406714Y-137211253D01*
X115370428Y-137138682D01*
X115297857Y-137066110D01*
X115152714Y-137029825D01*
X114898714Y-137029825D01*
X114753571Y-137066110D01*
X114681000Y-137138682D01*
X114644714Y-137211253D01*
X115479285Y-137682967D02*
X115479285Y-138263539D01*
X115334142Y-138880396D02*
X115370428Y-138844110D01*
X115406714Y-138735253D01*
X115406714Y-138662682D01*
X115370428Y-138553825D01*
X115297857Y-138481253D01*
X115225285Y-138444967D01*
X115080142Y-138408682D01*
X114971285Y-138408682D01*
X114826142Y-138444967D01*
X114753571Y-138481253D01*
X114681000Y-138553825D01*
X114644714Y-138662682D01*
X114644714Y-138735253D01*
X114681000Y-138844110D01*
X114717285Y-138880396D01*
X115370428Y-139170682D02*
X115406714Y-139279539D01*
X115406714Y-139460967D01*
X115370428Y-139533539D01*
X115334142Y-139569825D01*
X115261571Y-139606110D01*
X115189000Y-139606110D01*
X115116428Y-139569825D01*
X115080142Y-139533539D01*
X115043857Y-139460967D01*
X115007571Y-139315825D01*
X114971285Y-139243253D01*
X114935000Y-139206967D01*
X114862428Y-139170682D01*
X114789857Y-139170682D01*
X114717285Y-139206967D01*
X114681000Y-139243253D01*
X114644714Y-139315825D01*
X114644714Y-139497253D01*
X114681000Y-139606110D01*
X112199964Y-134925253D02*
X111437964Y-134925253D01*
X111982250Y-135179253D01*
X111437964Y-135433253D01*
X112199964Y-135433253D01*
X112199964Y-135796110D02*
X111437964Y-135796110D01*
X112127392Y-136594396D02*
X112163678Y-136558110D01*
X112199964Y-136449253D01*
X112199964Y-136376682D01*
X112163678Y-136267825D01*
X112091107Y-136195253D01*
X112018535Y-136158967D01*
X111873392Y-136122682D01*
X111764535Y-136122682D01*
X111619392Y-136158967D01*
X111546821Y-136195253D01*
X111474250Y-136267825D01*
X111437964Y-136376682D01*
X111437964Y-136449253D01*
X111474250Y-136558110D01*
X111510535Y-136594396D01*
X112199964Y-137356396D02*
X111837107Y-137102396D01*
X112199964Y-136920967D02*
X111437964Y-136920967D01*
X111437964Y-137211253D01*
X111474250Y-137283825D01*
X111510535Y-137320110D01*
X111583107Y-137356396D01*
X111691964Y-137356396D01*
X111764535Y-137320110D01*
X111800821Y-137283825D01*
X111837107Y-137211253D01*
X111837107Y-136920967D01*
X111437964Y-137828110D02*
X111437964Y-137973253D01*
X111474250Y-138045825D01*
X111546821Y-138118396D01*
X111691964Y-138154682D01*
X111945964Y-138154682D01*
X112091107Y-138118396D01*
X112163678Y-138045825D01*
X112199964Y-137973253D01*
X112199964Y-137828110D01*
X112163678Y-137755539D01*
X112091107Y-137682967D01*
X111945964Y-137646682D01*
X111691964Y-137646682D01*
X111546821Y-137682967D01*
X111474250Y-137755539D01*
X111437964Y-137828110D01*
X112163678Y-138444967D02*
X112199964Y-138553825D01*
X112199964Y-138735253D01*
X112163678Y-138807825D01*
X112127392Y-138844110D01*
X112054821Y-138880396D01*
X111982250Y-138880396D01*
X111909678Y-138844110D01*
X111873392Y-138807825D01*
X111837107Y-138735253D01*
X111800821Y-138590110D01*
X111764535Y-138517539D01*
X111728250Y-138481253D01*
X111655678Y-138444967D01*
X111583107Y-138444967D01*
X111510535Y-138481253D01*
X111474250Y-138517539D01*
X111437964Y-138590110D01*
X111437964Y-138771539D01*
X111474250Y-138880396D01*
X112199964Y-139206967D02*
X111437964Y-139206967D01*
X111437964Y-139388396D01*
X111474250Y-139497253D01*
X111546821Y-139569825D01*
X111619392Y-139606110D01*
X111764535Y-139642396D01*
X111873392Y-139642396D01*
X112018535Y-139606110D01*
X112091107Y-139569825D01*
X112163678Y-139497253D01*
X112199964Y-139388396D01*
X112199964Y-139206967D01*
X113606035Y-134743825D02*
X113606035Y-135324396D01*
X113533464Y-135505825D02*
X112771464Y-135505825D01*
X113315750Y-135759825D01*
X112771464Y-136013825D01*
X113533464Y-136013825D01*
X113533464Y-136376682D02*
X112771464Y-136376682D01*
X113497178Y-136703253D02*
X113533464Y-136812110D01*
X113533464Y-136993539D01*
X113497178Y-137066110D01*
X113460892Y-137102396D01*
X113388321Y-137138682D01*
X113315750Y-137138682D01*
X113243178Y-137102396D01*
X113206892Y-137066110D01*
X113170607Y-136993539D01*
X113134321Y-136848396D01*
X113098035Y-136775825D01*
X113061750Y-136739539D01*
X112989178Y-136703253D01*
X112916607Y-136703253D01*
X112844035Y-136739539D01*
X112807750Y-136775825D01*
X112771464Y-136848396D01*
X112771464Y-137029825D01*
X112807750Y-137138682D01*
X112771464Y-137610396D02*
X112771464Y-137755539D01*
X112807750Y-137828110D01*
X112880321Y-137900682D01*
X113025464Y-137936967D01*
X113279464Y-137936967D01*
X113424607Y-137900682D01*
X113497178Y-137828110D01*
X113533464Y-137755539D01*
X113533464Y-137610396D01*
X113497178Y-137537825D01*
X113424607Y-137465253D01*
X113279464Y-137428967D01*
X113025464Y-137428967D01*
X112880321Y-137465253D01*
X112807750Y-137537825D01*
X112771464Y-137610396D01*
X110290428Y-137682967D02*
X110326714Y-137791825D01*
X110326714Y-137973253D01*
X110290428Y-138045825D01*
X110254142Y-138082110D01*
X110181571Y-138118396D01*
X110109000Y-138118396D01*
X110036428Y-138082110D01*
X110000142Y-138045825D01*
X109963857Y-137973253D01*
X109927571Y-137828110D01*
X109891285Y-137755539D01*
X109855000Y-137719253D01*
X109782428Y-137682967D01*
X109709857Y-137682967D01*
X109637285Y-137719253D01*
X109601000Y-137755539D01*
X109564714Y-137828110D01*
X109564714Y-138009539D01*
X109601000Y-138118396D01*
X110326714Y-138444967D02*
X109564714Y-138444967D01*
X109564714Y-138626396D01*
X109601000Y-138735253D01*
X109673571Y-138807825D01*
X109746142Y-138844110D01*
X109891285Y-138880396D01*
X110000142Y-138880396D01*
X110145285Y-138844110D01*
X110217857Y-138807825D01*
X110290428Y-138735253D01*
X110326714Y-138626396D01*
X110326714Y-138444967D01*
X110109000Y-139170682D02*
X110109000Y-139533539D01*
X110326714Y-139098110D02*
X109564714Y-139352110D01*
X110326714Y-139606110D01*
X107119964Y-134925253D02*
X106357964Y-134925253D01*
X106902250Y-135179253D01*
X106357964Y-135433253D01*
X107119964Y-135433253D01*
X107119964Y-135796110D02*
X106357964Y-135796110D01*
X107047392Y-136594396D02*
X107083678Y-136558110D01*
X107119964Y-136449253D01*
X107119964Y-136376682D01*
X107083678Y-136267825D01*
X107011107Y-136195253D01*
X106938535Y-136158967D01*
X106793392Y-136122682D01*
X106684535Y-136122682D01*
X106539392Y-136158967D01*
X106466821Y-136195253D01*
X106394250Y-136267825D01*
X106357964Y-136376682D01*
X106357964Y-136449253D01*
X106394250Y-136558110D01*
X106430535Y-136594396D01*
X107119964Y-137356396D02*
X106757107Y-137102396D01*
X107119964Y-136920967D02*
X106357964Y-136920967D01*
X106357964Y-137211253D01*
X106394250Y-137283825D01*
X106430535Y-137320110D01*
X106503107Y-137356396D01*
X106611964Y-137356396D01*
X106684535Y-137320110D01*
X106720821Y-137283825D01*
X106757107Y-137211253D01*
X106757107Y-136920967D01*
X106357964Y-137828110D02*
X106357964Y-137973253D01*
X106394250Y-138045825D01*
X106466821Y-138118396D01*
X106611964Y-138154682D01*
X106865964Y-138154682D01*
X107011107Y-138118396D01*
X107083678Y-138045825D01*
X107119964Y-137973253D01*
X107119964Y-137828110D01*
X107083678Y-137755539D01*
X107011107Y-137682967D01*
X106865964Y-137646682D01*
X106611964Y-137646682D01*
X106466821Y-137682967D01*
X106394250Y-137755539D01*
X106357964Y-137828110D01*
X107083678Y-138444967D02*
X107119964Y-138553825D01*
X107119964Y-138735253D01*
X107083678Y-138807825D01*
X107047392Y-138844110D01*
X106974821Y-138880396D01*
X106902250Y-138880396D01*
X106829678Y-138844110D01*
X106793392Y-138807825D01*
X106757107Y-138735253D01*
X106720821Y-138590110D01*
X106684535Y-138517539D01*
X106648250Y-138481253D01*
X106575678Y-138444967D01*
X106503107Y-138444967D01*
X106430535Y-138481253D01*
X106394250Y-138517539D01*
X106357964Y-138590110D01*
X106357964Y-138771539D01*
X106394250Y-138880396D01*
X107119964Y-139206967D02*
X106357964Y-139206967D01*
X106357964Y-139388396D01*
X106394250Y-139497253D01*
X106466821Y-139569825D01*
X106539392Y-139606110D01*
X106684535Y-139642396D01*
X106793392Y-139642396D01*
X106938535Y-139606110D01*
X107011107Y-139569825D01*
X107083678Y-139497253D01*
X107119964Y-139388396D01*
X107119964Y-139206967D01*
X108526035Y-134743825D02*
X108526035Y-135324396D01*
X108380892Y-135941253D02*
X108417178Y-135904967D01*
X108453464Y-135796110D01*
X108453464Y-135723539D01*
X108417178Y-135614682D01*
X108344607Y-135542110D01*
X108272035Y-135505825D01*
X108126892Y-135469539D01*
X108018035Y-135469539D01*
X107872892Y-135505825D01*
X107800321Y-135542110D01*
X107727750Y-135614682D01*
X107691464Y-135723539D01*
X107691464Y-135796110D01*
X107727750Y-135904967D01*
X107764035Y-135941253D01*
X108453464Y-136630682D02*
X108453464Y-136267825D01*
X107691464Y-136267825D01*
X108453464Y-136884682D02*
X107691464Y-136884682D01*
X108453464Y-137320110D02*
X108018035Y-136993539D01*
X107691464Y-137320110D02*
X108126892Y-136884682D01*
X104521000Y-137991396D02*
X104484714Y-137918825D01*
X104484714Y-137809967D01*
X104521000Y-137701110D01*
X104593571Y-137628539D01*
X104666142Y-137592253D01*
X104811285Y-137555967D01*
X104920142Y-137555967D01*
X105065285Y-137592253D01*
X105137857Y-137628539D01*
X105210428Y-137701110D01*
X105246714Y-137809967D01*
X105246714Y-137882539D01*
X105210428Y-137991396D01*
X105174142Y-138027682D01*
X104920142Y-138027682D01*
X104920142Y-137882539D01*
X105246714Y-138354253D02*
X104484714Y-138354253D01*
X105246714Y-138789682D01*
X104484714Y-138789682D01*
X105246714Y-139152539D02*
X104484714Y-139152539D01*
X104484714Y-139333967D01*
X104521000Y-139442825D01*
X104593571Y-139515396D01*
X104666142Y-139551682D01*
X104811285Y-139587967D01*
X104920142Y-139587967D01*
X105065285Y-139551682D01*
X105137857Y-139515396D01*
X105210428Y-139442825D01*
X105246714Y-139333967D01*
X105246714Y-139152539D01*
X145596428Y-144577253D02*
X145596428Y-145157825D01*
X145886714Y-144867539D02*
X145306142Y-144867539D01*
X145124714Y-145883539D02*
X145124714Y-145520682D01*
X145487571Y-145484396D01*
X145451285Y-145520682D01*
X145415000Y-145593253D01*
X145415000Y-145774682D01*
X145451285Y-145847253D01*
X145487571Y-145883539D01*
X145560142Y-145919825D01*
X145741571Y-145919825D01*
X145814142Y-145883539D01*
X145850428Y-145847253D01*
X145886714Y-145774682D01*
X145886714Y-145593253D01*
X145850428Y-145520682D01*
X145814142Y-145484396D01*
X145124714Y-146137539D02*
X145886714Y-146391539D01*
X145124714Y-146645539D01*
X145959285Y-146718110D02*
X145959285Y-147298682D01*
X145124714Y-147480110D02*
X145741571Y-147480110D01*
X145814142Y-147516396D01*
X145850428Y-147552682D01*
X145886714Y-147625253D01*
X145886714Y-147770396D01*
X145850428Y-147842967D01*
X145814142Y-147879253D01*
X145741571Y-147915539D01*
X145124714Y-147915539D01*
X145850428Y-148242110D02*
X145886714Y-148350967D01*
X145886714Y-148532396D01*
X145850428Y-148604967D01*
X145814142Y-148641253D01*
X145741571Y-148677539D01*
X145669000Y-148677539D01*
X145596428Y-148641253D01*
X145560142Y-148604967D01*
X145523857Y-148532396D01*
X145487571Y-148387253D01*
X145451285Y-148314682D01*
X145415000Y-148278396D01*
X145342428Y-148242110D01*
X145269857Y-148242110D01*
X145197285Y-148278396D01*
X145161000Y-148314682D01*
X145124714Y-148387253D01*
X145124714Y-148568682D01*
X145161000Y-148677539D01*
X145487571Y-149258110D02*
X145523857Y-149366967D01*
X145560142Y-149403253D01*
X145632714Y-149439539D01*
X145741571Y-149439539D01*
X145814142Y-149403253D01*
X145850428Y-149366967D01*
X145886714Y-149294396D01*
X145886714Y-149004110D01*
X145124714Y-149004110D01*
X145124714Y-149258110D01*
X145161000Y-149330682D01*
X145197285Y-149366967D01*
X145269857Y-149403253D01*
X145342428Y-149403253D01*
X145415000Y-149366967D01*
X145451285Y-149330682D01*
X145487571Y-149258110D01*
X145487571Y-149004110D01*
X143056428Y-144577253D02*
X143056428Y-145157825D01*
X143346714Y-144867539D02*
X142766142Y-144867539D01*
X142584714Y-145883539D02*
X142584714Y-145520682D01*
X142947571Y-145484396D01*
X142911285Y-145520682D01*
X142875000Y-145593253D01*
X142875000Y-145774682D01*
X142911285Y-145847253D01*
X142947571Y-145883539D01*
X143020142Y-145919825D01*
X143201571Y-145919825D01*
X143274142Y-145883539D01*
X143310428Y-145847253D01*
X143346714Y-145774682D01*
X143346714Y-145593253D01*
X143310428Y-145520682D01*
X143274142Y-145484396D01*
X142584714Y-146137539D02*
X143346714Y-146391539D01*
X142584714Y-146645539D01*
X140407571Y-144577253D02*
X140407571Y-144831253D01*
X140806714Y-144940110D02*
X140806714Y-144577253D01*
X140044714Y-144577253D01*
X140044714Y-144940110D01*
X140770428Y-145230396D02*
X140806714Y-145339253D01*
X140806714Y-145520682D01*
X140770428Y-145593253D01*
X140734142Y-145629539D01*
X140661571Y-145665825D01*
X140589000Y-145665825D01*
X140516428Y-145629539D01*
X140480142Y-145593253D01*
X140443857Y-145520682D01*
X140407571Y-145375539D01*
X140371285Y-145302967D01*
X140335000Y-145266682D01*
X140262428Y-145230396D01*
X140189857Y-145230396D01*
X140117285Y-145266682D01*
X140081000Y-145302967D01*
X140044714Y-145375539D01*
X140044714Y-145556967D01*
X140081000Y-145665825D01*
X140806714Y-145992396D02*
X140044714Y-145992396D01*
X140044714Y-146282682D01*
X140081000Y-146355253D01*
X140117285Y-146391539D01*
X140189857Y-146427825D01*
X140298714Y-146427825D01*
X140371285Y-146391539D01*
X140407571Y-146355253D01*
X140443857Y-146282682D01*
X140443857Y-145992396D01*
X140806714Y-146754396D02*
X140044714Y-146754396D01*
X140044714Y-147262396D02*
X140044714Y-147407539D01*
X140081000Y-147480110D01*
X140153571Y-147552682D01*
X140298714Y-147588967D01*
X140552714Y-147588967D01*
X140697857Y-147552682D01*
X140770428Y-147480110D01*
X140806714Y-147407539D01*
X140806714Y-147262396D01*
X140770428Y-147189825D01*
X140697857Y-147117253D01*
X140552714Y-147080967D01*
X140298714Y-147080967D01*
X140153571Y-147117253D01*
X140081000Y-147189825D01*
X140044714Y-147262396D01*
X140044714Y-147842967D02*
X140044714Y-148314682D01*
X140335000Y-148060682D01*
X140335000Y-148169539D01*
X140371285Y-148242110D01*
X140407571Y-148278396D01*
X140480142Y-148314682D01*
X140661571Y-148314682D01*
X140734142Y-148278396D01*
X140770428Y-148242110D01*
X140806714Y-148169539D01*
X140806714Y-147951825D01*
X140770428Y-147879253D01*
X140734142Y-147842967D01*
X140806714Y-148677539D02*
X140806714Y-148822682D01*
X140770428Y-148895253D01*
X140734142Y-148931539D01*
X140625285Y-149004110D01*
X140480142Y-149040396D01*
X140189857Y-149040396D01*
X140117285Y-149004110D01*
X140081000Y-148967825D01*
X140044714Y-148895253D01*
X140044714Y-148750110D01*
X140081000Y-148677539D01*
X140117285Y-148641253D01*
X140189857Y-148604967D01*
X140371285Y-148604967D01*
X140443857Y-148641253D01*
X140480142Y-148677539D01*
X140516428Y-148750110D01*
X140516428Y-148895253D01*
X140480142Y-148967825D01*
X140443857Y-149004110D01*
X140371285Y-149040396D01*
X137867571Y-144577253D02*
X137867571Y-144831253D01*
X138266714Y-144940110D02*
X138266714Y-144577253D01*
X137504714Y-144577253D01*
X137504714Y-144940110D01*
X138230428Y-145230396D02*
X138266714Y-145339253D01*
X138266714Y-145520682D01*
X138230428Y-145593253D01*
X138194142Y-145629539D01*
X138121571Y-145665825D01*
X138049000Y-145665825D01*
X137976428Y-145629539D01*
X137940142Y-145593253D01*
X137903857Y-145520682D01*
X137867571Y-145375539D01*
X137831285Y-145302967D01*
X137795000Y-145266682D01*
X137722428Y-145230396D01*
X137649857Y-145230396D01*
X137577285Y-145266682D01*
X137541000Y-145302967D01*
X137504714Y-145375539D01*
X137504714Y-145556967D01*
X137541000Y-145665825D01*
X138266714Y-145992396D02*
X137504714Y-145992396D01*
X137504714Y-146282682D01*
X137541000Y-146355253D01*
X137577285Y-146391539D01*
X137649857Y-146427825D01*
X137758714Y-146427825D01*
X137831285Y-146391539D01*
X137867571Y-146355253D01*
X137903857Y-146282682D01*
X137903857Y-145992396D01*
X138266714Y-146754396D02*
X137504714Y-146754396D01*
X137504714Y-147262396D02*
X137504714Y-147407539D01*
X137541000Y-147480110D01*
X137613571Y-147552682D01*
X137758714Y-147588967D01*
X138012714Y-147588967D01*
X138157857Y-147552682D01*
X138230428Y-147480110D01*
X138266714Y-147407539D01*
X138266714Y-147262396D01*
X138230428Y-147189825D01*
X138157857Y-147117253D01*
X138012714Y-147080967D01*
X137758714Y-147080967D01*
X137613571Y-147117253D01*
X137541000Y-147189825D01*
X137504714Y-147262396D01*
X137577285Y-147879253D02*
X137541000Y-147915539D01*
X137504714Y-147988110D01*
X137504714Y-148169539D01*
X137541000Y-148242110D01*
X137577285Y-148278396D01*
X137649857Y-148314682D01*
X137722428Y-148314682D01*
X137831285Y-148278396D01*
X138266714Y-147842967D01*
X138266714Y-148314682D01*
X137504714Y-148568682D02*
X137504714Y-149076682D01*
X138266714Y-148750110D01*
X135327571Y-144577253D02*
X135327571Y-144831253D01*
X135726714Y-144940110D02*
X135726714Y-144577253D01*
X134964714Y-144577253D01*
X134964714Y-144940110D01*
X135690428Y-145230396D02*
X135726714Y-145339253D01*
X135726714Y-145520682D01*
X135690428Y-145593253D01*
X135654142Y-145629539D01*
X135581571Y-145665825D01*
X135509000Y-145665825D01*
X135436428Y-145629539D01*
X135400142Y-145593253D01*
X135363857Y-145520682D01*
X135327571Y-145375539D01*
X135291285Y-145302967D01*
X135255000Y-145266682D01*
X135182428Y-145230396D01*
X135109857Y-145230396D01*
X135037285Y-145266682D01*
X135001000Y-145302967D01*
X134964714Y-145375539D01*
X134964714Y-145556967D01*
X135001000Y-145665825D01*
X135726714Y-145992396D02*
X134964714Y-145992396D01*
X134964714Y-146282682D01*
X135001000Y-146355253D01*
X135037285Y-146391539D01*
X135109857Y-146427825D01*
X135218714Y-146427825D01*
X135291285Y-146391539D01*
X135327571Y-146355253D01*
X135363857Y-146282682D01*
X135363857Y-145992396D01*
X135726714Y-146754396D02*
X134964714Y-146754396D01*
X134964714Y-147262396D02*
X134964714Y-147407539D01*
X135001000Y-147480110D01*
X135073571Y-147552682D01*
X135218714Y-147588967D01*
X135472714Y-147588967D01*
X135617857Y-147552682D01*
X135690428Y-147480110D01*
X135726714Y-147407539D01*
X135726714Y-147262396D01*
X135690428Y-147189825D01*
X135617857Y-147117253D01*
X135472714Y-147080967D01*
X135218714Y-147080967D01*
X135073571Y-147117253D01*
X135001000Y-147189825D01*
X134964714Y-147262396D01*
X134964714Y-147842967D02*
X134964714Y-148314682D01*
X135255000Y-148060682D01*
X135255000Y-148169539D01*
X135291285Y-148242110D01*
X135327571Y-148278396D01*
X135400142Y-148314682D01*
X135581571Y-148314682D01*
X135654142Y-148278396D01*
X135690428Y-148242110D01*
X135726714Y-148169539D01*
X135726714Y-147951825D01*
X135690428Y-147879253D01*
X135654142Y-147842967D01*
X134964714Y-148967825D02*
X134964714Y-148822682D01*
X135001000Y-148750110D01*
X135037285Y-148713825D01*
X135146142Y-148641253D01*
X135291285Y-148604967D01*
X135581571Y-148604967D01*
X135654142Y-148641253D01*
X135690428Y-148677539D01*
X135726714Y-148750110D01*
X135726714Y-148895253D01*
X135690428Y-148967825D01*
X135654142Y-149004110D01*
X135581571Y-149040396D01*
X135400142Y-149040396D01*
X135327571Y-149004110D01*
X135291285Y-148967825D01*
X135255000Y-148895253D01*
X135255000Y-148750110D01*
X135291285Y-148677539D01*
X135327571Y-148641253D01*
X135400142Y-148604967D01*
X132787571Y-144577253D02*
X132787571Y-144831253D01*
X133186714Y-144940110D02*
X133186714Y-144577253D01*
X132424714Y-144577253D01*
X132424714Y-144940110D01*
X133150428Y-145230396D02*
X133186714Y-145339253D01*
X133186714Y-145520682D01*
X133150428Y-145593253D01*
X133114142Y-145629539D01*
X133041571Y-145665825D01*
X132969000Y-145665825D01*
X132896428Y-145629539D01*
X132860142Y-145593253D01*
X132823857Y-145520682D01*
X132787571Y-145375539D01*
X132751285Y-145302967D01*
X132715000Y-145266682D01*
X132642428Y-145230396D01*
X132569857Y-145230396D01*
X132497285Y-145266682D01*
X132461000Y-145302967D01*
X132424714Y-145375539D01*
X132424714Y-145556967D01*
X132461000Y-145665825D01*
X133186714Y-145992396D02*
X132424714Y-145992396D01*
X132424714Y-146282682D01*
X132461000Y-146355253D01*
X132497285Y-146391539D01*
X132569857Y-146427825D01*
X132678714Y-146427825D01*
X132751285Y-146391539D01*
X132787571Y-146355253D01*
X132823857Y-146282682D01*
X132823857Y-145992396D01*
X133186714Y-146754396D02*
X132424714Y-146754396D01*
X132424714Y-147262396D02*
X132424714Y-147407539D01*
X132461000Y-147480110D01*
X132533571Y-147552682D01*
X132678714Y-147588967D01*
X132932714Y-147588967D01*
X133077857Y-147552682D01*
X133150428Y-147480110D01*
X133186714Y-147407539D01*
X133186714Y-147262396D01*
X133150428Y-147189825D01*
X133077857Y-147117253D01*
X132932714Y-147080967D01*
X132678714Y-147080967D01*
X132533571Y-147117253D01*
X132461000Y-147189825D01*
X132424714Y-147262396D01*
X132424714Y-147842967D02*
X132424714Y-148314682D01*
X132715000Y-148060682D01*
X132715000Y-148169539D01*
X132751285Y-148242110D01*
X132787571Y-148278396D01*
X132860142Y-148314682D01*
X133041571Y-148314682D01*
X133114142Y-148278396D01*
X133150428Y-148242110D01*
X133186714Y-148169539D01*
X133186714Y-147951825D01*
X133150428Y-147879253D01*
X133114142Y-147842967D01*
X132751285Y-148750110D02*
X132715000Y-148677539D01*
X132678714Y-148641253D01*
X132606142Y-148604967D01*
X132569857Y-148604967D01*
X132497285Y-148641253D01*
X132461000Y-148677539D01*
X132424714Y-148750110D01*
X132424714Y-148895253D01*
X132461000Y-148967825D01*
X132497285Y-149004110D01*
X132569857Y-149040396D01*
X132606142Y-149040396D01*
X132678714Y-149004110D01*
X132715000Y-148967825D01*
X132751285Y-148895253D01*
X132751285Y-148750110D01*
X132787571Y-148677539D01*
X132823857Y-148641253D01*
X132896428Y-148604967D01*
X133041571Y-148604967D01*
X133114142Y-148641253D01*
X133150428Y-148677539D01*
X133186714Y-148750110D01*
X133186714Y-148895253D01*
X133150428Y-148967825D01*
X133114142Y-149004110D01*
X133041571Y-149040396D01*
X132896428Y-149040396D01*
X132823857Y-149004110D01*
X132787571Y-148967825D01*
X132751285Y-148895253D01*
X129921000Y-144976396D02*
X129884714Y-144903825D01*
X129884714Y-144794967D01*
X129921000Y-144686110D01*
X129993571Y-144613539D01*
X130066142Y-144577253D01*
X130211285Y-144540967D01*
X130320142Y-144540967D01*
X130465285Y-144577253D01*
X130537857Y-144613539D01*
X130610428Y-144686110D01*
X130646714Y-144794967D01*
X130646714Y-144867539D01*
X130610428Y-144976396D01*
X130574142Y-145012682D01*
X130320142Y-145012682D01*
X130320142Y-144867539D01*
X130646714Y-145339253D02*
X129884714Y-145339253D01*
X129884714Y-145629539D01*
X129921000Y-145702110D01*
X129957285Y-145738396D01*
X130029857Y-145774682D01*
X130138714Y-145774682D01*
X130211285Y-145738396D01*
X130247571Y-145702110D01*
X130283857Y-145629539D01*
X130283857Y-145339253D01*
X130646714Y-146101253D02*
X129884714Y-146101253D01*
X129884714Y-146609253D02*
X129884714Y-146754396D01*
X129921000Y-146826967D01*
X129993571Y-146899539D01*
X130138714Y-146935825D01*
X130392714Y-146935825D01*
X130537857Y-146899539D01*
X130610428Y-146826967D01*
X130646714Y-146754396D01*
X130646714Y-146609253D01*
X130610428Y-146536682D01*
X130537857Y-146464110D01*
X130392714Y-146427825D01*
X130138714Y-146427825D01*
X129993571Y-146464110D01*
X129921000Y-146536682D01*
X129884714Y-146609253D01*
X130719285Y-147080967D02*
X130719285Y-147661539D01*
X130646714Y-147842967D02*
X129884714Y-147842967D01*
X129884714Y-148133253D01*
X129921000Y-148205825D01*
X129957285Y-148242110D01*
X130029857Y-148278396D01*
X130138714Y-148278396D01*
X130211285Y-148242110D01*
X130247571Y-148205825D01*
X130283857Y-148133253D01*
X130283857Y-147842967D01*
X130646714Y-148604967D02*
X129884714Y-148604967D01*
X129884714Y-148786396D01*
X129921000Y-148895253D01*
X129993571Y-148967825D01*
X130066142Y-149004110D01*
X130211285Y-149040396D01*
X130320142Y-149040396D01*
X130465285Y-149004110D01*
X130537857Y-148967825D01*
X130610428Y-148895253D01*
X130646714Y-148786396D01*
X130646714Y-148604967D01*
X129884714Y-149729825D02*
X129884714Y-149366967D01*
X130247571Y-149330682D01*
X130211285Y-149366967D01*
X130175000Y-149439539D01*
X130175000Y-149620967D01*
X130211285Y-149693539D01*
X130247571Y-149729825D01*
X130320142Y-149766110D01*
X130501571Y-149766110D01*
X130574142Y-149729825D01*
X130610428Y-149693539D01*
X130646714Y-149620967D01*
X130646714Y-149439539D01*
X130610428Y-149366967D01*
X130574142Y-149330682D01*
X127381000Y-144976396D02*
X127344714Y-144903825D01*
X127344714Y-144794967D01*
X127381000Y-144686110D01*
X127453571Y-144613539D01*
X127526142Y-144577253D01*
X127671285Y-144540967D01*
X127780142Y-144540967D01*
X127925285Y-144577253D01*
X127997857Y-144613539D01*
X128070428Y-144686110D01*
X128106714Y-144794967D01*
X128106714Y-144867539D01*
X128070428Y-144976396D01*
X128034142Y-145012682D01*
X127780142Y-145012682D01*
X127780142Y-144867539D01*
X128106714Y-145339253D02*
X127344714Y-145339253D01*
X127344714Y-145629539D01*
X127381000Y-145702110D01*
X127417285Y-145738396D01*
X127489857Y-145774682D01*
X127598714Y-145774682D01*
X127671285Y-145738396D01*
X127707571Y-145702110D01*
X127743857Y-145629539D01*
X127743857Y-145339253D01*
X128106714Y-146101253D02*
X127344714Y-146101253D01*
X127344714Y-146609253D02*
X127344714Y-146754396D01*
X127381000Y-146826967D01*
X127453571Y-146899539D01*
X127598714Y-146935825D01*
X127852714Y-146935825D01*
X127997857Y-146899539D01*
X128070428Y-146826967D01*
X128106714Y-146754396D01*
X128106714Y-146609253D01*
X128070428Y-146536682D01*
X127997857Y-146464110D01*
X127852714Y-146427825D01*
X127598714Y-146427825D01*
X127453571Y-146464110D01*
X127381000Y-146536682D01*
X127344714Y-146609253D01*
X128179285Y-147080967D02*
X128179285Y-147661539D01*
X128106714Y-147842967D02*
X127344714Y-147842967D01*
X127344714Y-148133253D01*
X127381000Y-148205825D01*
X127417285Y-148242110D01*
X127489857Y-148278396D01*
X127598714Y-148278396D01*
X127671285Y-148242110D01*
X127707571Y-148205825D01*
X127743857Y-148133253D01*
X127743857Y-147842967D01*
X128106714Y-148604967D02*
X127344714Y-148604967D01*
X127344714Y-148786396D01*
X127381000Y-148895253D01*
X127453571Y-148967825D01*
X127526142Y-149004110D01*
X127671285Y-149040396D01*
X127780142Y-149040396D01*
X127925285Y-149004110D01*
X127997857Y-148967825D01*
X128070428Y-148895253D01*
X128106714Y-148786396D01*
X128106714Y-148604967D01*
X127344714Y-149294396D02*
X127344714Y-149802396D01*
X128106714Y-149475825D01*
X124841000Y-144976396D02*
X124804714Y-144903825D01*
X124804714Y-144794967D01*
X124841000Y-144686110D01*
X124913571Y-144613539D01*
X124986142Y-144577253D01*
X125131285Y-144540967D01*
X125240142Y-144540967D01*
X125385285Y-144577253D01*
X125457857Y-144613539D01*
X125530428Y-144686110D01*
X125566714Y-144794967D01*
X125566714Y-144867539D01*
X125530428Y-144976396D01*
X125494142Y-145012682D01*
X125240142Y-145012682D01*
X125240142Y-144867539D01*
X125566714Y-145339253D02*
X124804714Y-145339253D01*
X124804714Y-145629539D01*
X124841000Y-145702110D01*
X124877285Y-145738396D01*
X124949857Y-145774682D01*
X125058714Y-145774682D01*
X125131285Y-145738396D01*
X125167571Y-145702110D01*
X125203857Y-145629539D01*
X125203857Y-145339253D01*
X125566714Y-146101253D02*
X124804714Y-146101253D01*
X124804714Y-146609253D02*
X124804714Y-146754396D01*
X124841000Y-146826967D01*
X124913571Y-146899539D01*
X125058714Y-146935825D01*
X125312714Y-146935825D01*
X125457857Y-146899539D01*
X125530428Y-146826967D01*
X125566714Y-146754396D01*
X125566714Y-146609253D01*
X125530428Y-146536682D01*
X125457857Y-146464110D01*
X125312714Y-146427825D01*
X125058714Y-146427825D01*
X124913571Y-146464110D01*
X124841000Y-146536682D01*
X124804714Y-146609253D01*
X125639285Y-147080967D02*
X125639285Y-147661539D01*
X125566714Y-147842967D02*
X124804714Y-147842967D01*
X124804714Y-148133253D01*
X124841000Y-148205825D01*
X124877285Y-148242110D01*
X124949857Y-148278396D01*
X125058714Y-148278396D01*
X125131285Y-148242110D01*
X125167571Y-148205825D01*
X125203857Y-148133253D01*
X125203857Y-147842967D01*
X125494142Y-149040396D02*
X125530428Y-149004110D01*
X125566714Y-148895253D01*
X125566714Y-148822682D01*
X125530428Y-148713825D01*
X125457857Y-148641253D01*
X125385285Y-148604967D01*
X125240142Y-148568682D01*
X125131285Y-148568682D01*
X124986142Y-148604967D01*
X124913571Y-148641253D01*
X124841000Y-148713825D01*
X124804714Y-148822682D01*
X124804714Y-148895253D01*
X124841000Y-149004110D01*
X124877285Y-149040396D01*
X125566714Y-149766110D02*
X125566714Y-149330682D01*
X125566714Y-149548396D02*
X124804714Y-149548396D01*
X124913571Y-149475825D01*
X124986142Y-149403253D01*
X125022428Y-149330682D01*
X122301000Y-144976396D02*
X122264714Y-144903825D01*
X122264714Y-144794967D01*
X122301000Y-144686110D01*
X122373571Y-144613539D01*
X122446142Y-144577253D01*
X122591285Y-144540967D01*
X122700142Y-144540967D01*
X122845285Y-144577253D01*
X122917857Y-144613539D01*
X122990428Y-144686110D01*
X123026714Y-144794967D01*
X123026714Y-144867539D01*
X122990428Y-144976396D01*
X122954142Y-145012682D01*
X122700142Y-145012682D01*
X122700142Y-144867539D01*
X123026714Y-145339253D02*
X122264714Y-145339253D01*
X122264714Y-145629539D01*
X122301000Y-145702110D01*
X122337285Y-145738396D01*
X122409857Y-145774682D01*
X122518714Y-145774682D01*
X122591285Y-145738396D01*
X122627571Y-145702110D01*
X122663857Y-145629539D01*
X122663857Y-145339253D01*
X123026714Y-146101253D02*
X122264714Y-146101253D01*
X122264714Y-146609253D02*
X122264714Y-146754396D01*
X122301000Y-146826967D01*
X122373571Y-146899539D01*
X122518714Y-146935825D01*
X122772714Y-146935825D01*
X122917857Y-146899539D01*
X122990428Y-146826967D01*
X123026714Y-146754396D01*
X123026714Y-146609253D01*
X122990428Y-146536682D01*
X122917857Y-146464110D01*
X122772714Y-146427825D01*
X122518714Y-146427825D01*
X122373571Y-146464110D01*
X122301000Y-146536682D01*
X122264714Y-146609253D01*
X123099285Y-147080967D02*
X123099285Y-147661539D01*
X123026714Y-147842967D02*
X122264714Y-147842967D01*
X122264714Y-148133253D01*
X122301000Y-148205825D01*
X122337285Y-148242110D01*
X122409857Y-148278396D01*
X122518714Y-148278396D01*
X122591285Y-148242110D01*
X122627571Y-148205825D01*
X122663857Y-148133253D01*
X122663857Y-147842967D01*
X122954142Y-149040396D02*
X122990428Y-149004110D01*
X123026714Y-148895253D01*
X123026714Y-148822682D01*
X122990428Y-148713825D01*
X122917857Y-148641253D01*
X122845285Y-148604967D01*
X122700142Y-148568682D01*
X122591285Y-148568682D01*
X122446142Y-148604967D01*
X122373571Y-148641253D01*
X122301000Y-148713825D01*
X122264714Y-148822682D01*
X122264714Y-148895253D01*
X122301000Y-149004110D01*
X122337285Y-149040396D01*
X122264714Y-149294396D02*
X122264714Y-149766110D01*
X122555000Y-149512110D01*
X122555000Y-149620967D01*
X122591285Y-149693539D01*
X122627571Y-149729825D01*
X122700142Y-149766110D01*
X122881571Y-149766110D01*
X122954142Y-149729825D01*
X122990428Y-149693539D01*
X123026714Y-149620967D01*
X123026714Y-149403253D01*
X122990428Y-149330682D01*
X122954142Y-149294396D01*
X119761000Y-144976396D02*
X119724714Y-144903825D01*
X119724714Y-144794967D01*
X119761000Y-144686110D01*
X119833571Y-144613539D01*
X119906142Y-144577253D01*
X120051285Y-144540967D01*
X120160142Y-144540967D01*
X120305285Y-144577253D01*
X120377857Y-144613539D01*
X120450428Y-144686110D01*
X120486714Y-144794967D01*
X120486714Y-144867539D01*
X120450428Y-144976396D01*
X120414142Y-145012682D01*
X120160142Y-145012682D01*
X120160142Y-144867539D01*
X120486714Y-145339253D02*
X119724714Y-145339253D01*
X119724714Y-145629539D01*
X119761000Y-145702110D01*
X119797285Y-145738396D01*
X119869857Y-145774682D01*
X119978714Y-145774682D01*
X120051285Y-145738396D01*
X120087571Y-145702110D01*
X120123857Y-145629539D01*
X120123857Y-145339253D01*
X120486714Y-146101253D02*
X119724714Y-146101253D01*
X119724714Y-146609253D02*
X119724714Y-146754396D01*
X119761000Y-146826967D01*
X119833571Y-146899539D01*
X119978714Y-146935825D01*
X120232714Y-146935825D01*
X120377857Y-146899539D01*
X120450428Y-146826967D01*
X120486714Y-146754396D01*
X120486714Y-146609253D01*
X120450428Y-146536682D01*
X120377857Y-146464110D01*
X120232714Y-146427825D01*
X119978714Y-146427825D01*
X119833571Y-146464110D01*
X119761000Y-146536682D01*
X119724714Y-146609253D01*
X120559285Y-147080967D02*
X120559285Y-147661539D01*
X120486714Y-147842967D02*
X119724714Y-147842967D01*
X119724714Y-148133253D01*
X119761000Y-148205825D01*
X119797285Y-148242110D01*
X119869857Y-148278396D01*
X119978714Y-148278396D01*
X120051285Y-148242110D01*
X120087571Y-148205825D01*
X120123857Y-148133253D01*
X120123857Y-147842967D01*
X120414142Y-149040396D02*
X120450428Y-149004110D01*
X120486714Y-148895253D01*
X120486714Y-148822682D01*
X120450428Y-148713825D01*
X120377857Y-148641253D01*
X120305285Y-148604967D01*
X120160142Y-148568682D01*
X120051285Y-148568682D01*
X119906142Y-148604967D01*
X119833571Y-148641253D01*
X119761000Y-148713825D01*
X119724714Y-148822682D01*
X119724714Y-148895253D01*
X119761000Y-149004110D01*
X119797285Y-149040396D01*
X119724714Y-149729825D02*
X119724714Y-149366967D01*
X120087571Y-149330682D01*
X120051285Y-149366967D01*
X120015000Y-149439539D01*
X120015000Y-149620967D01*
X120051285Y-149693539D01*
X120087571Y-149729825D01*
X120160142Y-149766110D01*
X120341571Y-149766110D01*
X120414142Y-149729825D01*
X120450428Y-149693539D01*
X120486714Y-149620967D01*
X120486714Y-149439539D01*
X120450428Y-149366967D01*
X120414142Y-149330682D01*
X117221000Y-144976396D02*
X117184714Y-144903825D01*
X117184714Y-144794967D01*
X117221000Y-144686110D01*
X117293571Y-144613539D01*
X117366142Y-144577253D01*
X117511285Y-144540967D01*
X117620142Y-144540967D01*
X117765285Y-144577253D01*
X117837857Y-144613539D01*
X117910428Y-144686110D01*
X117946714Y-144794967D01*
X117946714Y-144867539D01*
X117910428Y-144976396D01*
X117874142Y-145012682D01*
X117620142Y-145012682D01*
X117620142Y-144867539D01*
X117946714Y-145339253D02*
X117184714Y-145339253D01*
X117184714Y-145629539D01*
X117221000Y-145702110D01*
X117257285Y-145738396D01*
X117329857Y-145774682D01*
X117438714Y-145774682D01*
X117511285Y-145738396D01*
X117547571Y-145702110D01*
X117583857Y-145629539D01*
X117583857Y-145339253D01*
X117946714Y-146101253D02*
X117184714Y-146101253D01*
X117184714Y-146609253D02*
X117184714Y-146754396D01*
X117221000Y-146826967D01*
X117293571Y-146899539D01*
X117438714Y-146935825D01*
X117692714Y-146935825D01*
X117837857Y-146899539D01*
X117910428Y-146826967D01*
X117946714Y-146754396D01*
X117946714Y-146609253D01*
X117910428Y-146536682D01*
X117837857Y-146464110D01*
X117692714Y-146427825D01*
X117438714Y-146427825D01*
X117293571Y-146464110D01*
X117221000Y-146536682D01*
X117184714Y-146609253D01*
X118019285Y-147080967D02*
X118019285Y-147661539D01*
X117946714Y-147842967D02*
X117184714Y-147842967D01*
X117184714Y-148133253D01*
X117221000Y-148205825D01*
X117257285Y-148242110D01*
X117329857Y-148278396D01*
X117438714Y-148278396D01*
X117511285Y-148242110D01*
X117547571Y-148205825D01*
X117583857Y-148133253D01*
X117583857Y-147842967D01*
X117874142Y-149040396D02*
X117910428Y-149004110D01*
X117946714Y-148895253D01*
X117946714Y-148822682D01*
X117910428Y-148713825D01*
X117837857Y-148641253D01*
X117765285Y-148604967D01*
X117620142Y-148568682D01*
X117511285Y-148568682D01*
X117366142Y-148604967D01*
X117293571Y-148641253D01*
X117221000Y-148713825D01*
X117184714Y-148822682D01*
X117184714Y-148895253D01*
X117221000Y-149004110D01*
X117257285Y-149040396D01*
X117184714Y-149294396D02*
X117184714Y-149802396D01*
X117946714Y-149475825D01*
X114681000Y-144976396D02*
X114644714Y-144903825D01*
X114644714Y-144794967D01*
X114681000Y-144686110D01*
X114753571Y-144613539D01*
X114826142Y-144577253D01*
X114971285Y-144540967D01*
X115080142Y-144540967D01*
X115225285Y-144577253D01*
X115297857Y-144613539D01*
X115370428Y-144686110D01*
X115406714Y-144794967D01*
X115406714Y-144867539D01*
X115370428Y-144976396D01*
X115334142Y-145012682D01*
X115080142Y-145012682D01*
X115080142Y-144867539D01*
X115406714Y-145339253D02*
X114644714Y-145339253D01*
X114644714Y-145629539D01*
X114681000Y-145702110D01*
X114717285Y-145738396D01*
X114789857Y-145774682D01*
X114898714Y-145774682D01*
X114971285Y-145738396D01*
X115007571Y-145702110D01*
X115043857Y-145629539D01*
X115043857Y-145339253D01*
X115406714Y-146101253D02*
X114644714Y-146101253D01*
X114644714Y-146609253D02*
X114644714Y-146754396D01*
X114681000Y-146826967D01*
X114753571Y-146899539D01*
X114898714Y-146935825D01*
X115152714Y-146935825D01*
X115297857Y-146899539D01*
X115370428Y-146826967D01*
X115406714Y-146754396D01*
X115406714Y-146609253D01*
X115370428Y-146536682D01*
X115297857Y-146464110D01*
X115152714Y-146427825D01*
X114898714Y-146427825D01*
X114753571Y-146464110D01*
X114681000Y-146536682D01*
X114644714Y-146609253D01*
X115479285Y-147080967D02*
X115479285Y-147661539D01*
X115406714Y-147842967D02*
X114644714Y-147842967D01*
X114644714Y-148133253D01*
X114681000Y-148205825D01*
X114717285Y-148242110D01*
X114789857Y-148278396D01*
X114898714Y-148278396D01*
X114971285Y-148242110D01*
X115007571Y-148205825D01*
X115043857Y-148133253D01*
X115043857Y-147842967D01*
X115007571Y-148858967D02*
X115043857Y-148967825D01*
X115080142Y-149004110D01*
X115152714Y-149040396D01*
X115261571Y-149040396D01*
X115334142Y-149004110D01*
X115370428Y-148967825D01*
X115406714Y-148895253D01*
X115406714Y-148604967D01*
X114644714Y-148604967D01*
X114644714Y-148858967D01*
X114681000Y-148931539D01*
X114717285Y-148967825D01*
X114789857Y-149004110D01*
X114862428Y-149004110D01*
X114935000Y-148967825D01*
X114971285Y-148931539D01*
X115007571Y-148858967D01*
X115007571Y-148604967D01*
X114644714Y-149729825D02*
X114644714Y-149366967D01*
X115007571Y-149330682D01*
X114971285Y-149366967D01*
X114935000Y-149439539D01*
X114935000Y-149620967D01*
X114971285Y-149693539D01*
X115007571Y-149729825D01*
X115080142Y-149766110D01*
X115261571Y-149766110D01*
X115334142Y-149729825D01*
X115370428Y-149693539D01*
X115406714Y-149620967D01*
X115406714Y-149439539D01*
X115370428Y-149366967D01*
X115334142Y-149330682D01*
X112794142Y-145139682D02*
X112830428Y-145103396D01*
X112866714Y-144994539D01*
X112866714Y-144921967D01*
X112830428Y-144813110D01*
X112757857Y-144740539D01*
X112685285Y-144704253D01*
X112540142Y-144667967D01*
X112431285Y-144667967D01*
X112286142Y-144704253D01*
X112213571Y-144740539D01*
X112141000Y-144813110D01*
X112104714Y-144921967D01*
X112104714Y-144994539D01*
X112141000Y-145103396D01*
X112177285Y-145139682D01*
X112866714Y-145829110D02*
X112866714Y-145466253D01*
X112104714Y-145466253D01*
X112866714Y-146083110D02*
X112104714Y-146083110D01*
X112866714Y-146518539D02*
X112431285Y-146191967D01*
X112104714Y-146518539D02*
X112540142Y-146083110D01*
X112104714Y-146990253D02*
X112104714Y-147135396D01*
X112141000Y-147207967D01*
X112213571Y-147280539D01*
X112358714Y-147316825D01*
X112612714Y-147316825D01*
X112757857Y-147280539D01*
X112830428Y-147207967D01*
X112866714Y-147135396D01*
X112866714Y-146990253D01*
X112830428Y-146917682D01*
X112757857Y-146845110D01*
X112612714Y-146808825D01*
X112358714Y-146808825D01*
X112213571Y-146845110D01*
X112141000Y-146917682D01*
X112104714Y-146990253D01*
X112104714Y-147643396D02*
X112721571Y-147643396D01*
X112794142Y-147679682D01*
X112830428Y-147715967D01*
X112866714Y-147788539D01*
X112866714Y-147933682D01*
X112830428Y-148006253D01*
X112794142Y-148042539D01*
X112721571Y-148078825D01*
X112104714Y-148078825D01*
X112104714Y-148332825D02*
X112104714Y-148768253D01*
X112866714Y-148550539D02*
X112104714Y-148550539D01*
X110290428Y-144667967D02*
X110326714Y-144776825D01*
X110326714Y-144958253D01*
X110290428Y-145030825D01*
X110254142Y-145067110D01*
X110181571Y-145103396D01*
X110109000Y-145103396D01*
X110036428Y-145067110D01*
X110000142Y-145030825D01*
X109963857Y-144958253D01*
X109927571Y-144813110D01*
X109891285Y-144740539D01*
X109855000Y-144704253D01*
X109782428Y-144667967D01*
X109709857Y-144667967D01*
X109637285Y-144704253D01*
X109601000Y-144740539D01*
X109564714Y-144813110D01*
X109564714Y-144994539D01*
X109601000Y-145103396D01*
X110254142Y-145865396D02*
X110290428Y-145829110D01*
X110326714Y-145720253D01*
X110326714Y-145647682D01*
X110290428Y-145538825D01*
X110217857Y-145466253D01*
X110145285Y-145429967D01*
X110000142Y-145393682D01*
X109891285Y-145393682D01*
X109746142Y-145429967D01*
X109673571Y-145466253D01*
X109601000Y-145538825D01*
X109564714Y-145647682D01*
X109564714Y-145720253D01*
X109601000Y-145829110D01*
X109637285Y-145865396D01*
X110326714Y-146554825D02*
X110326714Y-146191967D01*
X109564714Y-146191967D01*
X107119964Y-144831253D02*
X106357964Y-144831253D01*
X106902250Y-145085253D01*
X106357964Y-145339253D01*
X107119964Y-145339253D01*
X107119964Y-145702110D02*
X106357964Y-145702110D01*
X107047392Y-146500396D02*
X107083678Y-146464110D01*
X107119964Y-146355253D01*
X107119964Y-146282682D01*
X107083678Y-146173825D01*
X107011107Y-146101253D01*
X106938535Y-146064967D01*
X106793392Y-146028682D01*
X106684535Y-146028682D01*
X106539392Y-146064967D01*
X106466821Y-146101253D01*
X106394250Y-146173825D01*
X106357964Y-146282682D01*
X106357964Y-146355253D01*
X106394250Y-146464110D01*
X106430535Y-146500396D01*
X107119964Y-147262396D02*
X106757107Y-147008396D01*
X107119964Y-146826967D02*
X106357964Y-146826967D01*
X106357964Y-147117253D01*
X106394250Y-147189825D01*
X106430535Y-147226110D01*
X106503107Y-147262396D01*
X106611964Y-147262396D01*
X106684535Y-147226110D01*
X106720821Y-147189825D01*
X106757107Y-147117253D01*
X106757107Y-146826967D01*
X106357964Y-147734110D02*
X106357964Y-147879253D01*
X106394250Y-147951825D01*
X106466821Y-148024396D01*
X106611964Y-148060682D01*
X106865964Y-148060682D01*
X107011107Y-148024396D01*
X107083678Y-147951825D01*
X107119964Y-147879253D01*
X107119964Y-147734110D01*
X107083678Y-147661539D01*
X107011107Y-147588967D01*
X106865964Y-147552682D01*
X106611964Y-147552682D01*
X106466821Y-147588967D01*
X106394250Y-147661539D01*
X106357964Y-147734110D01*
X107083678Y-148350967D02*
X107119964Y-148459825D01*
X107119964Y-148641253D01*
X107083678Y-148713825D01*
X107047392Y-148750110D01*
X106974821Y-148786396D01*
X106902250Y-148786396D01*
X106829678Y-148750110D01*
X106793392Y-148713825D01*
X106757107Y-148641253D01*
X106720821Y-148496110D01*
X106684535Y-148423539D01*
X106648250Y-148387253D01*
X106575678Y-148350967D01*
X106503107Y-148350967D01*
X106430535Y-148387253D01*
X106394250Y-148423539D01*
X106357964Y-148496110D01*
X106357964Y-148677539D01*
X106394250Y-148786396D01*
X107119964Y-149112967D02*
X106357964Y-149112967D01*
X106357964Y-149294396D01*
X106394250Y-149403253D01*
X106466821Y-149475825D01*
X106539392Y-149512110D01*
X106684535Y-149548396D01*
X106793392Y-149548396D01*
X106938535Y-149512110D01*
X107011107Y-149475825D01*
X107083678Y-149403253D01*
X107119964Y-149294396D01*
X107119964Y-149112967D01*
X108526035Y-144649825D02*
X108526035Y-145230396D01*
X108453464Y-145411825D02*
X107691464Y-145411825D01*
X108235750Y-145665825D01*
X107691464Y-145919825D01*
X108453464Y-145919825D01*
X107691464Y-146427825D02*
X107691464Y-146572967D01*
X107727750Y-146645539D01*
X107800321Y-146718110D01*
X107945464Y-146754396D01*
X108199464Y-146754396D01*
X108344607Y-146718110D01*
X108417178Y-146645539D01*
X108453464Y-146572967D01*
X108453464Y-146427825D01*
X108417178Y-146355253D01*
X108344607Y-146282682D01*
X108199464Y-146246396D01*
X107945464Y-146246396D01*
X107800321Y-146282682D01*
X107727750Y-146355253D01*
X107691464Y-146427825D01*
X108417178Y-147044682D02*
X108453464Y-147153539D01*
X108453464Y-147334967D01*
X108417178Y-147407539D01*
X108380892Y-147443825D01*
X108308321Y-147480110D01*
X108235750Y-147480110D01*
X108163178Y-147443825D01*
X108126892Y-147407539D01*
X108090607Y-147334967D01*
X108054321Y-147189825D01*
X108018035Y-147117253D01*
X107981750Y-147080967D01*
X107909178Y-147044682D01*
X107836607Y-147044682D01*
X107764035Y-147080967D01*
X107727750Y-147117253D01*
X107691464Y-147189825D01*
X107691464Y-147371253D01*
X107727750Y-147480110D01*
X108453464Y-147806682D02*
X107691464Y-147806682D01*
X104956428Y-144831253D02*
X104956428Y-145411825D01*
X105246714Y-145121539D02*
X104666142Y-145121539D01*
X104484714Y-145702110D02*
X104484714Y-146173825D01*
X104775000Y-145919825D01*
X104775000Y-146028682D01*
X104811285Y-146101253D01*
X104847571Y-146137539D01*
X104920142Y-146173825D01*
X105101571Y-146173825D01*
X105174142Y-146137539D01*
X105210428Y-146101253D01*
X105246714Y-146028682D01*
X105246714Y-145810967D01*
X105210428Y-145738396D01*
X105174142Y-145702110D01*
X105174142Y-146500396D02*
X105210428Y-146536682D01*
X105246714Y-146500396D01*
X105210428Y-146464110D01*
X105174142Y-146500396D01*
X105246714Y-146500396D01*
X104484714Y-146790682D02*
X104484714Y-147262396D01*
X104775000Y-147008396D01*
X104775000Y-147117253D01*
X104811285Y-147189825D01*
X104847571Y-147226110D01*
X104920142Y-147262396D01*
X105101571Y-147262396D01*
X105174142Y-147226110D01*
X105210428Y-147189825D01*
X105246714Y-147117253D01*
X105246714Y-146899539D01*
X105210428Y-146826967D01*
X105174142Y-146790682D01*
X104484714Y-147480110D02*
X105246714Y-147734110D01*
X104484714Y-147988110D01*
X81248250Y-144722396D02*
X81211964Y-144649825D01*
X81211964Y-144540967D01*
X81248250Y-144432110D01*
X81320821Y-144359539D01*
X81393392Y-144323253D01*
X81538535Y-144286967D01*
X81647392Y-144286967D01*
X81792535Y-144323253D01*
X81865107Y-144359539D01*
X81937678Y-144432110D01*
X81973964Y-144540967D01*
X81973964Y-144613539D01*
X81937678Y-144722396D01*
X81901392Y-144758682D01*
X81647392Y-144758682D01*
X81647392Y-144613539D01*
X81973964Y-145085253D02*
X81211964Y-145085253D01*
X81211964Y-145375539D01*
X81248250Y-145448110D01*
X81284535Y-145484396D01*
X81357107Y-145520682D01*
X81465964Y-145520682D01*
X81538535Y-145484396D01*
X81574821Y-145448110D01*
X81611107Y-145375539D01*
X81611107Y-145085253D01*
X81973964Y-145847253D02*
X81211964Y-145847253D01*
X81211964Y-146355253D02*
X81211964Y-146500396D01*
X81248250Y-146572967D01*
X81320821Y-146645539D01*
X81465964Y-146681825D01*
X81719964Y-146681825D01*
X81865107Y-146645539D01*
X81937678Y-146572967D01*
X81973964Y-146500396D01*
X81973964Y-146355253D01*
X81937678Y-146282682D01*
X81865107Y-146210110D01*
X81719964Y-146173825D01*
X81465964Y-146173825D01*
X81320821Y-146210110D01*
X81248250Y-146282682D01*
X81211964Y-146355253D01*
X82046535Y-146826967D02*
X82046535Y-147407539D01*
X81973964Y-147588967D02*
X81211964Y-147588967D01*
X81211964Y-147879253D01*
X81248250Y-147951825D01*
X81284535Y-147988110D01*
X81357107Y-148024396D01*
X81465964Y-148024396D01*
X81538535Y-147988110D01*
X81574821Y-147951825D01*
X81611107Y-147879253D01*
X81611107Y-147588967D01*
X81901392Y-148786396D02*
X81937678Y-148750110D01*
X81973964Y-148641253D01*
X81973964Y-148568682D01*
X81937678Y-148459825D01*
X81865107Y-148387253D01*
X81792535Y-148350967D01*
X81647392Y-148314682D01*
X81538535Y-148314682D01*
X81393392Y-148350967D01*
X81320821Y-148387253D01*
X81248250Y-148459825D01*
X81211964Y-148568682D01*
X81211964Y-148641253D01*
X81248250Y-148750110D01*
X81284535Y-148786396D01*
X81284535Y-149076682D02*
X81248250Y-149112967D01*
X81211964Y-149185539D01*
X81211964Y-149366967D01*
X81248250Y-149439539D01*
X81284535Y-149475825D01*
X81357107Y-149512110D01*
X81429678Y-149512110D01*
X81538535Y-149475825D01*
X81973964Y-149040396D01*
X81973964Y-149512110D01*
X83597750Y-144540967D02*
X83561464Y-144504682D01*
X83452607Y-144432110D01*
X83380035Y-144395825D01*
X83271178Y-144359539D01*
X83089750Y-144323253D01*
X82944607Y-144323253D01*
X82763178Y-144359539D01*
X82654321Y-144395825D01*
X82581750Y-144432110D01*
X82472892Y-144504682D01*
X82436607Y-144540967D01*
X83234892Y-145266682D02*
X83271178Y-145230396D01*
X83307464Y-145121539D01*
X83307464Y-145048967D01*
X83271178Y-144940110D01*
X83198607Y-144867539D01*
X83126035Y-144831253D01*
X82980892Y-144794967D01*
X82872035Y-144794967D01*
X82726892Y-144831253D01*
X82654321Y-144867539D01*
X82581750Y-144940110D01*
X82545464Y-145048967D01*
X82545464Y-145121539D01*
X82581750Y-145230396D01*
X82618035Y-145266682D01*
X83271178Y-145556967D02*
X83307464Y-145665825D01*
X83307464Y-145847253D01*
X83271178Y-145919825D01*
X83234892Y-145956110D01*
X83162321Y-145992396D01*
X83089750Y-145992396D01*
X83017178Y-145956110D01*
X82980892Y-145919825D01*
X82944607Y-145847253D01*
X82908321Y-145702110D01*
X82872035Y-145629539D01*
X82835750Y-145593253D01*
X82763178Y-145556967D01*
X82690607Y-145556967D01*
X82618035Y-145593253D01*
X82581750Y-145629539D01*
X82545464Y-145702110D01*
X82545464Y-145883539D01*
X82581750Y-145992396D01*
X83597750Y-146246396D02*
X83561464Y-146282682D01*
X83452607Y-146355253D01*
X83380035Y-146391539D01*
X83271178Y-146427825D01*
X83089750Y-146464110D01*
X82944607Y-146464110D01*
X82763178Y-146427825D01*
X82654321Y-146391539D01*
X82581750Y-146355253D01*
X82472892Y-146282682D01*
X82436607Y-146246396D01*
X85244214Y-144704253D02*
X84482214Y-144704253D01*
X85026500Y-144958253D01*
X84482214Y-145212253D01*
X85244214Y-145212253D01*
X85244214Y-145575110D02*
X84482214Y-145575110D01*
X85171642Y-146373396D02*
X85207928Y-146337110D01*
X85244214Y-146228253D01*
X85244214Y-146155682D01*
X85207928Y-146046825D01*
X85135357Y-145974253D01*
X85062785Y-145937967D01*
X84917642Y-145901682D01*
X84808785Y-145901682D01*
X84663642Y-145937967D01*
X84591071Y-145974253D01*
X84518500Y-146046825D01*
X84482214Y-146155682D01*
X84482214Y-146228253D01*
X84518500Y-146337110D01*
X84554785Y-146373396D01*
X85244214Y-147135396D02*
X84881357Y-146881396D01*
X85244214Y-146699967D02*
X84482214Y-146699967D01*
X84482214Y-146990253D01*
X84518500Y-147062825D01*
X84554785Y-147099110D01*
X84627357Y-147135396D01*
X84736214Y-147135396D01*
X84808785Y-147099110D01*
X84845071Y-147062825D01*
X84881357Y-146990253D01*
X84881357Y-146699967D01*
X84482214Y-147607110D02*
X84482214Y-147752253D01*
X84518500Y-147824825D01*
X84591071Y-147897396D01*
X84736214Y-147933682D01*
X84990214Y-147933682D01*
X85135357Y-147897396D01*
X85207928Y-147824825D01*
X85244214Y-147752253D01*
X85244214Y-147607110D01*
X85207928Y-147534539D01*
X85135357Y-147461967D01*
X84990214Y-147425682D01*
X84736214Y-147425682D01*
X84591071Y-147461967D01*
X84518500Y-147534539D01*
X84482214Y-147607110D01*
X85207928Y-148223967D02*
X85244214Y-148332825D01*
X85244214Y-148514253D01*
X85207928Y-148586825D01*
X85171642Y-148623110D01*
X85099071Y-148659396D01*
X85026500Y-148659396D01*
X84953928Y-148623110D01*
X84917642Y-148586825D01*
X84881357Y-148514253D01*
X84845071Y-148369110D01*
X84808785Y-148296539D01*
X84772500Y-148260253D01*
X84699928Y-148223967D01*
X84627357Y-148223967D01*
X84554785Y-148260253D01*
X84518500Y-148296539D01*
X84482214Y-148369110D01*
X84482214Y-148550539D01*
X84518500Y-148659396D01*
X85244214Y-148985967D02*
X84482214Y-148985967D01*
X84482214Y-149167396D01*
X84518500Y-149276253D01*
X84591071Y-149348825D01*
X84663642Y-149385110D01*
X84808785Y-149421396D01*
X84917642Y-149421396D01*
X85062785Y-149385110D01*
X85135357Y-149348825D01*
X85207928Y-149276253D01*
X85244214Y-149167396D01*
X85244214Y-148985967D01*
X86650285Y-144522825D02*
X86650285Y-145103396D01*
X86577714Y-145284825D02*
X85815714Y-145284825D01*
X86360000Y-145538825D01*
X85815714Y-145792825D01*
X86577714Y-145792825D01*
X85815714Y-146300825D02*
X85815714Y-146445967D01*
X85852000Y-146518539D01*
X85924571Y-146591110D01*
X86069714Y-146627396D01*
X86323714Y-146627396D01*
X86468857Y-146591110D01*
X86541428Y-146518539D01*
X86577714Y-146445967D01*
X86577714Y-146300825D01*
X86541428Y-146228253D01*
X86468857Y-146155682D01*
X86323714Y-146119396D01*
X86069714Y-146119396D01*
X85924571Y-146155682D01*
X85852000Y-146228253D01*
X85815714Y-146300825D01*
X86541428Y-146917682D02*
X86577714Y-147026539D01*
X86577714Y-147207967D01*
X86541428Y-147280539D01*
X86505142Y-147316825D01*
X86432571Y-147353110D01*
X86360000Y-147353110D01*
X86287428Y-147316825D01*
X86251142Y-147280539D01*
X86214857Y-147207967D01*
X86178571Y-147062825D01*
X86142285Y-146990253D01*
X86106000Y-146953967D01*
X86033428Y-146917682D01*
X85960857Y-146917682D01*
X85888285Y-146953967D01*
X85852000Y-146990253D01*
X85815714Y-147062825D01*
X85815714Y-147244253D01*
X85852000Y-147353110D01*
X86577714Y-147679682D02*
X85815714Y-147679682D01*
X88201500Y-144921967D02*
X88165214Y-144885682D01*
X88056357Y-144813110D01*
X87983785Y-144776825D01*
X87874928Y-144740539D01*
X87693500Y-144704253D01*
X87548357Y-144704253D01*
X87366928Y-144740539D01*
X87258071Y-144776825D01*
X87185500Y-144813110D01*
X87076642Y-144885682D01*
X87040357Y-144921967D01*
X87911214Y-145212253D02*
X87149214Y-145212253D01*
X87693500Y-145466253D01*
X87149214Y-145720253D01*
X87911214Y-145720253D01*
X87149214Y-146228253D02*
X87149214Y-146373396D01*
X87185500Y-146445967D01*
X87258071Y-146518539D01*
X87403214Y-146554825D01*
X87657214Y-146554825D01*
X87802357Y-146518539D01*
X87874928Y-146445967D01*
X87911214Y-146373396D01*
X87911214Y-146228253D01*
X87874928Y-146155682D01*
X87802357Y-146083110D01*
X87657214Y-146046825D01*
X87403214Y-146046825D01*
X87258071Y-146083110D01*
X87185500Y-146155682D01*
X87149214Y-146228253D01*
X87874928Y-146845110D02*
X87911214Y-146953967D01*
X87911214Y-147135396D01*
X87874928Y-147207967D01*
X87838642Y-147244253D01*
X87766071Y-147280539D01*
X87693500Y-147280539D01*
X87620928Y-147244253D01*
X87584642Y-147207967D01*
X87548357Y-147135396D01*
X87512071Y-146990253D01*
X87475785Y-146917682D01*
X87439500Y-146881396D01*
X87366928Y-146845110D01*
X87294357Y-146845110D01*
X87221785Y-146881396D01*
X87185500Y-146917682D01*
X87149214Y-146990253D01*
X87149214Y-147171682D01*
X87185500Y-147280539D01*
X87911214Y-147607110D02*
X87149214Y-147607110D01*
X88201500Y-147897396D02*
X88165214Y-147933682D01*
X88056357Y-148006253D01*
X87983785Y-148042539D01*
X87874928Y-148078825D01*
X87693500Y-148115110D01*
X87548357Y-148115110D01*
X87366928Y-148078825D01*
X87258071Y-148042539D01*
X87185500Y-148006253D01*
X87076642Y-147933682D01*
X87040357Y-147897396D01*
X89589428Y-144667967D02*
X89625714Y-144776825D01*
X89625714Y-144958253D01*
X89589428Y-145030825D01*
X89553142Y-145067110D01*
X89480571Y-145103396D01*
X89408000Y-145103396D01*
X89335428Y-145067110D01*
X89299142Y-145030825D01*
X89262857Y-144958253D01*
X89226571Y-144813110D01*
X89190285Y-144740539D01*
X89154000Y-144704253D01*
X89081428Y-144667967D01*
X89008857Y-144667967D01*
X88936285Y-144704253D01*
X88900000Y-144740539D01*
X88863714Y-144813110D01*
X88863714Y-144994539D01*
X88900000Y-145103396D01*
X89625714Y-145429967D02*
X88863714Y-145429967D01*
X88863714Y-145611396D01*
X88900000Y-145720253D01*
X88972571Y-145792825D01*
X89045142Y-145829110D01*
X89190285Y-145865396D01*
X89299142Y-145865396D01*
X89444285Y-145829110D01*
X89516857Y-145792825D01*
X89589428Y-145720253D01*
X89625714Y-145611396D01*
X89625714Y-145429967D01*
X89408000Y-146155682D02*
X89408000Y-146518539D01*
X89625714Y-146083110D02*
X88863714Y-146337110D01*
X89625714Y-146591110D01*
X90773250Y-144849396D02*
X90736964Y-144776825D01*
X90736964Y-144667967D01*
X90773250Y-144559110D01*
X90845821Y-144486539D01*
X90918392Y-144450253D01*
X91063535Y-144413967D01*
X91172392Y-144413967D01*
X91317535Y-144450253D01*
X91390107Y-144486539D01*
X91462678Y-144559110D01*
X91498964Y-144667967D01*
X91498964Y-144740539D01*
X91462678Y-144849396D01*
X91426392Y-144885682D01*
X91172392Y-144885682D01*
X91172392Y-144740539D01*
X91498964Y-145212253D02*
X90736964Y-145212253D01*
X90736964Y-145502539D01*
X90773250Y-145575110D01*
X90809535Y-145611396D01*
X90882107Y-145647682D01*
X90990964Y-145647682D01*
X91063535Y-145611396D01*
X91099821Y-145575110D01*
X91136107Y-145502539D01*
X91136107Y-145212253D01*
X91498964Y-145974253D02*
X90736964Y-145974253D01*
X90736964Y-146482253D02*
X90736964Y-146627396D01*
X90773250Y-146699967D01*
X90845821Y-146772539D01*
X90990964Y-146808825D01*
X91244964Y-146808825D01*
X91390107Y-146772539D01*
X91462678Y-146699967D01*
X91498964Y-146627396D01*
X91498964Y-146482253D01*
X91462678Y-146409682D01*
X91390107Y-146337110D01*
X91244964Y-146300825D01*
X90990964Y-146300825D01*
X90845821Y-146337110D01*
X90773250Y-146409682D01*
X90736964Y-146482253D01*
X91571535Y-146953967D02*
X91571535Y-147534539D01*
X91498964Y-147715967D02*
X90736964Y-147715967D01*
X90736964Y-148006253D01*
X90773250Y-148078825D01*
X90809535Y-148115110D01*
X90882107Y-148151396D01*
X90990964Y-148151396D01*
X91063535Y-148115110D01*
X91099821Y-148078825D01*
X91136107Y-148006253D01*
X91136107Y-147715967D01*
X91426392Y-148913396D02*
X91462678Y-148877110D01*
X91498964Y-148768253D01*
X91498964Y-148695682D01*
X91462678Y-148586825D01*
X91390107Y-148514253D01*
X91317535Y-148477967D01*
X91172392Y-148441682D01*
X91063535Y-148441682D01*
X90918392Y-148477967D01*
X90845821Y-148514253D01*
X90773250Y-148586825D01*
X90736964Y-148695682D01*
X90736964Y-148768253D01*
X90773250Y-148877110D01*
X90809535Y-148913396D01*
X91498964Y-149639110D02*
X91498964Y-149203682D01*
X91498964Y-149421396D02*
X90736964Y-149421396D01*
X90845821Y-149348825D01*
X90918392Y-149276253D01*
X90954678Y-149203682D01*
X93122750Y-144667967D02*
X93086464Y-144631682D01*
X92977607Y-144559110D01*
X92905035Y-144522825D01*
X92796178Y-144486539D01*
X92614750Y-144450253D01*
X92469607Y-144450253D01*
X92288178Y-144486539D01*
X92179321Y-144522825D01*
X92106750Y-144559110D01*
X91997892Y-144631682D01*
X91961607Y-144667967D01*
X92832464Y-145393682D02*
X92469607Y-145139682D01*
X92832464Y-144958253D02*
X92070464Y-144958253D01*
X92070464Y-145248539D01*
X92106750Y-145321110D01*
X92143035Y-145357396D01*
X92215607Y-145393682D01*
X92324464Y-145393682D01*
X92397035Y-145357396D01*
X92433321Y-145321110D01*
X92469607Y-145248539D01*
X92469607Y-144958253D01*
X92070464Y-145647682D02*
X92832464Y-146155682D01*
X92070464Y-146155682D02*
X92832464Y-145647682D01*
X92832464Y-146445967D02*
X92070464Y-146445967D01*
X92070464Y-146627396D01*
X92106750Y-146736253D01*
X92179321Y-146808825D01*
X92251892Y-146845110D01*
X92397035Y-146881396D01*
X92505892Y-146881396D01*
X92651035Y-146845110D01*
X92723607Y-146808825D01*
X92796178Y-146736253D01*
X92832464Y-146627396D01*
X92832464Y-146445967D01*
X93122750Y-147135396D02*
X93086464Y-147171682D01*
X92977607Y-147244253D01*
X92905035Y-147280539D01*
X92796178Y-147316825D01*
X92614750Y-147353110D01*
X92469607Y-147353110D01*
X92288178Y-147316825D01*
X92179321Y-147280539D01*
X92106750Y-147244253D01*
X91997892Y-147171682D01*
X91961607Y-147135396D01*
X93980000Y-144976396D02*
X93943714Y-144903825D01*
X93943714Y-144794967D01*
X93980000Y-144686110D01*
X94052571Y-144613539D01*
X94125142Y-144577253D01*
X94270285Y-144540967D01*
X94379142Y-144540967D01*
X94524285Y-144577253D01*
X94596857Y-144613539D01*
X94669428Y-144686110D01*
X94705714Y-144794967D01*
X94705714Y-144867539D01*
X94669428Y-144976396D01*
X94633142Y-145012682D01*
X94379142Y-145012682D01*
X94379142Y-144867539D01*
X94705714Y-145339253D02*
X93943714Y-145339253D01*
X94705714Y-145774682D01*
X93943714Y-145774682D01*
X94705714Y-146137539D02*
X93943714Y-146137539D01*
X93943714Y-146318967D01*
X93980000Y-146427825D01*
X94052571Y-146500396D01*
X94125142Y-146536682D01*
X94270285Y-146572967D01*
X94379142Y-146572967D01*
X94524285Y-146536682D01*
X94596857Y-146500396D01*
X94669428Y-146427825D01*
X94705714Y-146318967D01*
X94705714Y-146137539D01*
X94034428Y-136322253D02*
X94034428Y-136902825D01*
X94324714Y-136612539D02*
X93744142Y-136612539D01*
X93562714Y-137193110D02*
X93562714Y-137664825D01*
X93853000Y-137410825D01*
X93853000Y-137519682D01*
X93889285Y-137592253D01*
X93925571Y-137628539D01*
X93998142Y-137664825D01*
X94179571Y-137664825D01*
X94252142Y-137628539D01*
X94288428Y-137592253D01*
X94324714Y-137519682D01*
X94324714Y-137301967D01*
X94288428Y-137229396D01*
X94252142Y-137193110D01*
X94252142Y-137991396D02*
X94288428Y-138027682D01*
X94324714Y-137991396D01*
X94288428Y-137955110D01*
X94252142Y-137991396D01*
X94324714Y-137991396D01*
X93562714Y-138281682D02*
X93562714Y-138753396D01*
X93853000Y-138499396D01*
X93853000Y-138608253D01*
X93889285Y-138680825D01*
X93925571Y-138717110D01*
X93998142Y-138753396D01*
X94179571Y-138753396D01*
X94252142Y-138717110D01*
X94288428Y-138680825D01*
X94324714Y-138608253D01*
X94324714Y-138390539D01*
X94288428Y-138317967D01*
X94252142Y-138281682D01*
X93562714Y-138971110D02*
X94324714Y-139225110D01*
X93562714Y-139479110D01*
X90392250Y-134689396D02*
X90355964Y-134616825D01*
X90355964Y-134507967D01*
X90392250Y-134399110D01*
X90464821Y-134326539D01*
X90537392Y-134290253D01*
X90682535Y-134253967D01*
X90791392Y-134253967D01*
X90936535Y-134290253D01*
X91009107Y-134326539D01*
X91081678Y-134399110D01*
X91117964Y-134507967D01*
X91117964Y-134580539D01*
X91081678Y-134689396D01*
X91045392Y-134725682D01*
X90791392Y-134725682D01*
X90791392Y-134580539D01*
X91117964Y-135052253D02*
X90355964Y-135052253D01*
X90355964Y-135342539D01*
X90392250Y-135415110D01*
X90428535Y-135451396D01*
X90501107Y-135487682D01*
X90609964Y-135487682D01*
X90682535Y-135451396D01*
X90718821Y-135415110D01*
X90755107Y-135342539D01*
X90755107Y-135052253D01*
X91117964Y-135814253D02*
X90355964Y-135814253D01*
X90355964Y-136322253D02*
X90355964Y-136467396D01*
X90392250Y-136539967D01*
X90464821Y-136612539D01*
X90609964Y-136648825D01*
X90863964Y-136648825D01*
X91009107Y-136612539D01*
X91081678Y-136539967D01*
X91117964Y-136467396D01*
X91117964Y-136322253D01*
X91081678Y-136249682D01*
X91009107Y-136177110D01*
X90863964Y-136140825D01*
X90609964Y-136140825D01*
X90464821Y-136177110D01*
X90392250Y-136249682D01*
X90355964Y-136322253D01*
X91190535Y-136793967D02*
X91190535Y-137374539D01*
X91117964Y-137555967D02*
X90355964Y-137555967D01*
X90355964Y-137846253D01*
X90392250Y-137918825D01*
X90428535Y-137955110D01*
X90501107Y-137991396D01*
X90609964Y-137991396D01*
X90682535Y-137955110D01*
X90718821Y-137918825D01*
X90755107Y-137846253D01*
X90755107Y-137555967D01*
X91045392Y-138753396D02*
X91081678Y-138717110D01*
X91117964Y-138608253D01*
X91117964Y-138535682D01*
X91081678Y-138426825D01*
X91009107Y-138354253D01*
X90936535Y-138317967D01*
X90791392Y-138281682D01*
X90682535Y-138281682D01*
X90537392Y-138317967D01*
X90464821Y-138354253D01*
X90392250Y-138426825D01*
X90355964Y-138535682D01*
X90355964Y-138608253D01*
X90392250Y-138717110D01*
X90428535Y-138753396D01*
X90355964Y-139225110D02*
X90355964Y-139297682D01*
X90392250Y-139370253D01*
X90428535Y-139406539D01*
X90501107Y-139442825D01*
X90646250Y-139479110D01*
X90827678Y-139479110D01*
X90972821Y-139442825D01*
X91045392Y-139406539D01*
X91081678Y-139370253D01*
X91117964Y-139297682D01*
X91117964Y-139225110D01*
X91081678Y-139152539D01*
X91045392Y-139116253D01*
X90972821Y-139079967D01*
X90827678Y-139043682D01*
X90646250Y-139043682D01*
X90501107Y-139079967D01*
X90428535Y-139116253D01*
X90392250Y-139152539D01*
X90355964Y-139225110D01*
X92741750Y-134507967D02*
X92705464Y-134471682D01*
X92596607Y-134399110D01*
X92524035Y-134362825D01*
X92415178Y-134326539D01*
X92233750Y-134290253D01*
X92088607Y-134290253D01*
X91907178Y-134326539D01*
X91798321Y-134362825D01*
X91725750Y-134399110D01*
X91616892Y-134471682D01*
X91580607Y-134507967D01*
X91689464Y-134689396D02*
X91689464Y-135124825D01*
X92451464Y-134907110D02*
X91689464Y-134907110D01*
X91689464Y-135306253D02*
X92451464Y-135814253D01*
X91689464Y-135814253D02*
X92451464Y-135306253D01*
X92451464Y-136104539D02*
X91689464Y-136104539D01*
X91689464Y-136285967D01*
X91725750Y-136394825D01*
X91798321Y-136467396D01*
X91870892Y-136503682D01*
X92016035Y-136539967D01*
X92124892Y-136539967D01*
X92270035Y-136503682D01*
X92342607Y-136467396D01*
X92415178Y-136394825D01*
X92451464Y-136285967D01*
X92451464Y-136104539D01*
X92741750Y-136793967D02*
X92705464Y-136830253D01*
X92596607Y-136902825D01*
X92524035Y-136939110D01*
X92415178Y-136975396D01*
X92233750Y-137011682D01*
X92088607Y-137011682D01*
X91907178Y-136975396D01*
X91798321Y-136939110D01*
X91725750Y-136902825D01*
X91616892Y-136830253D01*
X91580607Y-136793967D01*
X89335428Y-137555967D02*
X89371714Y-137664825D01*
X89371714Y-137846253D01*
X89335428Y-137918825D01*
X89299142Y-137955110D01*
X89226571Y-137991396D01*
X89154000Y-137991396D01*
X89081428Y-137955110D01*
X89045142Y-137918825D01*
X89008857Y-137846253D01*
X88972571Y-137701110D01*
X88936285Y-137628539D01*
X88900000Y-137592253D01*
X88827428Y-137555967D01*
X88754857Y-137555967D01*
X88682285Y-137592253D01*
X88646000Y-137628539D01*
X88609714Y-137701110D01*
X88609714Y-137882539D01*
X88646000Y-137991396D01*
X89299142Y-138753396D02*
X89335428Y-138717110D01*
X89371714Y-138608253D01*
X89371714Y-138535682D01*
X89335428Y-138426825D01*
X89262857Y-138354253D01*
X89190285Y-138317967D01*
X89045142Y-138281682D01*
X88936285Y-138281682D01*
X88791142Y-138317967D01*
X88718571Y-138354253D01*
X88646000Y-138426825D01*
X88609714Y-138535682D01*
X88609714Y-138608253D01*
X88646000Y-138717110D01*
X88682285Y-138753396D01*
X89371714Y-139442825D02*
X89371714Y-139079967D01*
X88609714Y-139079967D01*
X86164964Y-131496253D02*
X85402964Y-131496253D01*
X85947250Y-131750253D01*
X85402964Y-132004253D01*
X86164964Y-132004253D01*
X86164964Y-132367110D02*
X85402964Y-132367110D01*
X86092392Y-133165396D02*
X86128678Y-133129110D01*
X86164964Y-133020253D01*
X86164964Y-132947682D01*
X86128678Y-132838825D01*
X86056107Y-132766253D01*
X85983535Y-132729967D01*
X85838392Y-132693682D01*
X85729535Y-132693682D01*
X85584392Y-132729967D01*
X85511821Y-132766253D01*
X85439250Y-132838825D01*
X85402964Y-132947682D01*
X85402964Y-133020253D01*
X85439250Y-133129110D01*
X85475535Y-133165396D01*
X86164964Y-133927396D02*
X85802107Y-133673396D01*
X86164964Y-133491967D02*
X85402964Y-133491967D01*
X85402964Y-133782253D01*
X85439250Y-133854825D01*
X85475535Y-133891110D01*
X85548107Y-133927396D01*
X85656964Y-133927396D01*
X85729535Y-133891110D01*
X85765821Y-133854825D01*
X85802107Y-133782253D01*
X85802107Y-133491967D01*
X85402964Y-134399110D02*
X85402964Y-134544253D01*
X85439250Y-134616825D01*
X85511821Y-134689396D01*
X85656964Y-134725682D01*
X85910964Y-134725682D01*
X86056107Y-134689396D01*
X86128678Y-134616825D01*
X86164964Y-134544253D01*
X86164964Y-134399110D01*
X86128678Y-134326539D01*
X86056107Y-134253967D01*
X85910964Y-134217682D01*
X85656964Y-134217682D01*
X85511821Y-134253967D01*
X85439250Y-134326539D01*
X85402964Y-134399110D01*
X86128678Y-135015967D02*
X86164964Y-135124825D01*
X86164964Y-135306253D01*
X86128678Y-135378825D01*
X86092392Y-135415110D01*
X86019821Y-135451396D01*
X85947250Y-135451396D01*
X85874678Y-135415110D01*
X85838392Y-135378825D01*
X85802107Y-135306253D01*
X85765821Y-135161110D01*
X85729535Y-135088539D01*
X85693250Y-135052253D01*
X85620678Y-135015967D01*
X85548107Y-135015967D01*
X85475535Y-135052253D01*
X85439250Y-135088539D01*
X85402964Y-135161110D01*
X85402964Y-135342539D01*
X85439250Y-135451396D01*
X86164964Y-135777967D02*
X85402964Y-135777967D01*
X85402964Y-135959396D01*
X85439250Y-136068253D01*
X85511821Y-136140825D01*
X85584392Y-136177110D01*
X85729535Y-136213396D01*
X85838392Y-136213396D01*
X85983535Y-136177110D01*
X86056107Y-136140825D01*
X86128678Y-136068253D01*
X86164964Y-135959396D01*
X86164964Y-135777967D01*
X86237535Y-136358539D02*
X86237535Y-136939110D01*
X86164964Y-137120539D02*
X85402964Y-137120539D01*
X85947250Y-137374539D01*
X85402964Y-137628539D01*
X86164964Y-137628539D01*
X86164964Y-137991396D02*
X85402964Y-137991396D01*
X86128678Y-138317967D02*
X86164964Y-138426825D01*
X86164964Y-138608253D01*
X86128678Y-138680825D01*
X86092392Y-138717110D01*
X86019821Y-138753396D01*
X85947250Y-138753396D01*
X85874678Y-138717110D01*
X85838392Y-138680825D01*
X85802107Y-138608253D01*
X85765821Y-138463110D01*
X85729535Y-138390539D01*
X85693250Y-138354253D01*
X85620678Y-138317967D01*
X85548107Y-138317967D01*
X85475535Y-138354253D01*
X85439250Y-138390539D01*
X85402964Y-138463110D01*
X85402964Y-138644539D01*
X85439250Y-138753396D01*
X85402964Y-139225110D02*
X85402964Y-139370253D01*
X85439250Y-139442825D01*
X85511821Y-139515396D01*
X85656964Y-139551682D01*
X85910964Y-139551682D01*
X86056107Y-139515396D01*
X86128678Y-139442825D01*
X86164964Y-139370253D01*
X86164964Y-139225110D01*
X86128678Y-139152539D01*
X86056107Y-139079967D01*
X85910964Y-139043682D01*
X85656964Y-139043682D01*
X85511821Y-139079967D01*
X85439250Y-139152539D01*
X85402964Y-139225110D01*
X87788750Y-131713967D02*
X87752464Y-131677682D01*
X87643607Y-131605110D01*
X87571035Y-131568825D01*
X87462178Y-131532539D01*
X87280750Y-131496253D01*
X87135607Y-131496253D01*
X86954178Y-131532539D01*
X86845321Y-131568825D01*
X86772750Y-131605110D01*
X86663892Y-131677682D01*
X86627607Y-131713967D01*
X87498464Y-132004253D02*
X86736464Y-132004253D01*
X87280750Y-132258253D01*
X86736464Y-132512253D01*
X87498464Y-132512253D01*
X87498464Y-132875110D02*
X86736464Y-132875110D01*
X87462178Y-133201682D02*
X87498464Y-133310539D01*
X87498464Y-133491967D01*
X87462178Y-133564539D01*
X87425892Y-133600825D01*
X87353321Y-133637110D01*
X87280750Y-133637110D01*
X87208178Y-133600825D01*
X87171892Y-133564539D01*
X87135607Y-133491967D01*
X87099321Y-133346825D01*
X87063035Y-133274253D01*
X87026750Y-133237967D01*
X86954178Y-133201682D01*
X86881607Y-133201682D01*
X86809035Y-133237967D01*
X86772750Y-133274253D01*
X86736464Y-133346825D01*
X86736464Y-133528253D01*
X86772750Y-133637110D01*
X86736464Y-134108825D02*
X86736464Y-134253967D01*
X86772750Y-134326539D01*
X86845321Y-134399110D01*
X86990464Y-134435396D01*
X87244464Y-134435396D01*
X87389607Y-134399110D01*
X87462178Y-134326539D01*
X87498464Y-134253967D01*
X87498464Y-134108825D01*
X87462178Y-134036253D01*
X87389607Y-133963682D01*
X87244464Y-133927396D01*
X86990464Y-133927396D01*
X86845321Y-133963682D01*
X86772750Y-134036253D01*
X86736464Y-134108825D01*
X87788750Y-134689396D02*
X87752464Y-134725682D01*
X87643607Y-134798253D01*
X87571035Y-134834539D01*
X87462178Y-134870825D01*
X87280750Y-134907110D01*
X87135607Y-134907110D01*
X86954178Y-134870825D01*
X86845321Y-134834539D01*
X86772750Y-134798253D01*
X86663892Y-134725682D01*
X86627607Y-134689396D01*
X83116964Y-132131253D02*
X82354964Y-132131253D01*
X82899250Y-132385253D01*
X82354964Y-132639253D01*
X83116964Y-132639253D01*
X83116964Y-133002110D02*
X82354964Y-133002110D01*
X83044392Y-133800396D02*
X83080678Y-133764110D01*
X83116964Y-133655253D01*
X83116964Y-133582682D01*
X83080678Y-133473825D01*
X83008107Y-133401253D01*
X82935535Y-133364967D01*
X82790392Y-133328682D01*
X82681535Y-133328682D01*
X82536392Y-133364967D01*
X82463821Y-133401253D01*
X82391250Y-133473825D01*
X82354964Y-133582682D01*
X82354964Y-133655253D01*
X82391250Y-133764110D01*
X82427535Y-133800396D01*
X83116964Y-134562396D02*
X82754107Y-134308396D01*
X83116964Y-134126967D02*
X82354964Y-134126967D01*
X82354964Y-134417253D01*
X82391250Y-134489825D01*
X82427535Y-134526110D01*
X82500107Y-134562396D01*
X82608964Y-134562396D01*
X82681535Y-134526110D01*
X82717821Y-134489825D01*
X82754107Y-134417253D01*
X82754107Y-134126967D01*
X82354964Y-135034110D02*
X82354964Y-135179253D01*
X82391250Y-135251825D01*
X82463821Y-135324396D01*
X82608964Y-135360682D01*
X82862964Y-135360682D01*
X83008107Y-135324396D01*
X83080678Y-135251825D01*
X83116964Y-135179253D01*
X83116964Y-135034110D01*
X83080678Y-134961539D01*
X83008107Y-134888967D01*
X82862964Y-134852682D01*
X82608964Y-134852682D01*
X82463821Y-134888967D01*
X82391250Y-134961539D01*
X82354964Y-135034110D01*
X83080678Y-135650967D02*
X83116964Y-135759825D01*
X83116964Y-135941253D01*
X83080678Y-136013825D01*
X83044392Y-136050110D01*
X82971821Y-136086396D01*
X82899250Y-136086396D01*
X82826678Y-136050110D01*
X82790392Y-136013825D01*
X82754107Y-135941253D01*
X82717821Y-135796110D01*
X82681535Y-135723539D01*
X82645250Y-135687253D01*
X82572678Y-135650967D01*
X82500107Y-135650967D01*
X82427535Y-135687253D01*
X82391250Y-135723539D01*
X82354964Y-135796110D01*
X82354964Y-135977539D01*
X82391250Y-136086396D01*
X83116964Y-136412967D02*
X82354964Y-136412967D01*
X82354964Y-136594396D01*
X82391250Y-136703253D01*
X82463821Y-136775825D01*
X82536392Y-136812110D01*
X82681535Y-136848396D01*
X82790392Y-136848396D01*
X82935535Y-136812110D01*
X83008107Y-136775825D01*
X83080678Y-136703253D01*
X83116964Y-136594396D01*
X83116964Y-136412967D01*
X83189535Y-136993539D02*
X83189535Y-137574110D01*
X83044392Y-138190967D02*
X83080678Y-138154682D01*
X83116964Y-138045825D01*
X83116964Y-137973253D01*
X83080678Y-137864396D01*
X83008107Y-137791825D01*
X82935535Y-137755539D01*
X82790392Y-137719253D01*
X82681535Y-137719253D01*
X82536392Y-137755539D01*
X82463821Y-137791825D01*
X82391250Y-137864396D01*
X82354964Y-137973253D01*
X82354964Y-138045825D01*
X82391250Y-138154682D01*
X82427535Y-138190967D01*
X83116964Y-138880396D02*
X83116964Y-138517539D01*
X82354964Y-138517539D01*
X83116964Y-139134396D02*
X82354964Y-139134396D01*
X83116964Y-139569825D02*
X82681535Y-139243253D01*
X82354964Y-139569825D02*
X82790392Y-139134396D01*
X84740750Y-132348967D02*
X84704464Y-132312682D01*
X84595607Y-132240110D01*
X84523035Y-132203825D01*
X84414178Y-132167539D01*
X84232750Y-132131253D01*
X84087607Y-132131253D01*
X83906178Y-132167539D01*
X83797321Y-132203825D01*
X83724750Y-132240110D01*
X83615892Y-132312682D01*
X83579607Y-132348967D01*
X84414178Y-132602967D02*
X84450464Y-132711825D01*
X84450464Y-132893253D01*
X84414178Y-132965825D01*
X84377892Y-133002110D01*
X84305321Y-133038396D01*
X84232750Y-133038396D01*
X84160178Y-133002110D01*
X84123892Y-132965825D01*
X84087607Y-132893253D01*
X84051321Y-132748110D01*
X84015035Y-132675539D01*
X83978750Y-132639253D01*
X83906178Y-132602967D01*
X83833607Y-132602967D01*
X83761035Y-132639253D01*
X83724750Y-132675539D01*
X83688464Y-132748110D01*
X83688464Y-132929539D01*
X83724750Y-133038396D01*
X84377892Y-133800396D02*
X84414178Y-133764110D01*
X84450464Y-133655253D01*
X84450464Y-133582682D01*
X84414178Y-133473825D01*
X84341607Y-133401253D01*
X84269035Y-133364967D01*
X84123892Y-133328682D01*
X84015035Y-133328682D01*
X83869892Y-133364967D01*
X83797321Y-133401253D01*
X83724750Y-133473825D01*
X83688464Y-133582682D01*
X83688464Y-133655253D01*
X83724750Y-133764110D01*
X83761035Y-133800396D01*
X84450464Y-134126967D02*
X83688464Y-134126967D01*
X84450464Y-134562396D02*
X84015035Y-134235825D01*
X83688464Y-134562396D02*
X84123892Y-134126967D01*
X84740750Y-134816396D02*
X84704464Y-134852682D01*
X84595607Y-134925253D01*
X84523035Y-134961539D01*
X84414178Y-134997825D01*
X84232750Y-135034110D01*
X84087607Y-135034110D01*
X83906178Y-134997825D01*
X83797321Y-134961539D01*
X83724750Y-134925253D01*
X83615892Y-134852682D01*
X83579607Y-134816396D01*
D11*
X56791376Y-112298238D02*
X56646233Y-112346619D01*
X56404328Y-112346619D01*
X56307566Y-112298238D01*
X56259185Y-112249857D01*
X56210804Y-112153095D01*
X56210804Y-112056333D01*
X56259185Y-111959571D01*
X56307566Y-111911190D01*
X56404328Y-111862809D01*
X56597852Y-111814428D01*
X56694614Y-111766047D01*
X56742995Y-111717666D01*
X56791376Y-111620904D01*
X56791376Y-111524142D01*
X56742995Y-111427380D01*
X56694614Y-111379000D01*
X56597852Y-111330619D01*
X56355947Y-111330619D01*
X56210804Y-111379000D01*
X55775376Y-112346619D02*
X55775376Y-111330619D01*
X55533471Y-111330619D01*
X55388328Y-111379000D01*
X55291566Y-111475761D01*
X55243185Y-111572523D01*
X55194804Y-111766047D01*
X55194804Y-111911190D01*
X55243185Y-112104714D01*
X55291566Y-112201476D01*
X55388328Y-112298238D01*
X55533471Y-112346619D01*
X55775376Y-112346619D01*
X54807757Y-112056333D02*
X54323947Y-112056333D01*
X54904519Y-112346619D02*
X54565852Y-111330619D01*
X54227185Y-112346619D01*
X56791376Y-109504238D02*
X56646233Y-109552619D01*
X56404328Y-109552619D01*
X56307566Y-109504238D01*
X56259185Y-109455857D01*
X56210804Y-109359095D01*
X56210804Y-109262333D01*
X56259185Y-109165571D01*
X56307566Y-109117190D01*
X56404328Y-109068809D01*
X56597852Y-109020428D01*
X56694614Y-108972047D01*
X56742995Y-108923666D01*
X56791376Y-108826904D01*
X56791376Y-108730142D01*
X56742995Y-108633380D01*
X56694614Y-108585000D01*
X56597852Y-108536619D01*
X56355947Y-108536619D01*
X56210804Y-108585000D01*
X55194804Y-109455857D02*
X55243185Y-109504238D01*
X55388328Y-109552619D01*
X55485090Y-109552619D01*
X55630233Y-109504238D01*
X55726995Y-109407476D01*
X55775376Y-109310714D01*
X55823757Y-109117190D01*
X55823757Y-108972047D01*
X55775376Y-108778523D01*
X55726995Y-108681761D01*
X55630233Y-108585000D01*
X55485090Y-108536619D01*
X55388328Y-108536619D01*
X55243185Y-108585000D01*
X55194804Y-108633380D01*
X54275566Y-109552619D02*
X54759376Y-109552619D01*
X54759376Y-108536619D01*
X56996995Y-106752571D02*
X56222900Y-106752571D01*
X56609947Y-107139619D02*
X56609947Y-106365523D01*
X55255280Y-106123619D02*
X55739090Y-106123619D01*
X55787471Y-106607428D01*
X55739090Y-106559047D01*
X55642328Y-106510666D01*
X55400423Y-106510666D01*
X55303661Y-106559047D01*
X55255280Y-106607428D01*
X55206900Y-106704190D01*
X55206900Y-106946095D01*
X55255280Y-107042857D01*
X55303661Y-107091238D01*
X55400423Y-107139619D01*
X55642328Y-107139619D01*
X55739090Y-107091238D01*
X55787471Y-107042857D01*
X54916614Y-106123619D02*
X54577947Y-107139619D01*
X54239280Y-106123619D01*
X56464804Y-103759000D02*
X56561566Y-103710619D01*
X56706709Y-103710619D01*
X56851852Y-103759000D01*
X56948614Y-103855761D01*
X56996995Y-103952523D01*
X57045376Y-104146047D01*
X57045376Y-104291190D01*
X56996995Y-104484714D01*
X56948614Y-104581476D01*
X56851852Y-104678238D01*
X56706709Y-104726619D01*
X56609947Y-104726619D01*
X56464804Y-104678238D01*
X56416423Y-104629857D01*
X56416423Y-104291190D01*
X56609947Y-104291190D01*
X55980995Y-104726619D02*
X55980995Y-103710619D01*
X55400423Y-104726619D01*
X55400423Y-103710619D01*
X54916614Y-104726619D02*
X54916614Y-103710619D01*
X54674709Y-103710619D01*
X54529566Y-103759000D01*
X54432804Y-103855761D01*
X54384423Y-103952523D01*
X54336042Y-104146047D01*
X54336042Y-104291190D01*
X54384423Y-104484714D01*
X54432804Y-104581476D01*
X54529566Y-104678238D01*
X54674709Y-104726619D01*
X54916614Y-104726619D01*
X52148619Y-126590576D02*
X51664809Y-126251909D01*
X52148619Y-126010004D02*
X51132619Y-126010004D01*
X51132619Y-126397052D01*
X51181000Y-126493814D01*
X51229380Y-126542195D01*
X51326142Y-126590576D01*
X51471285Y-126590576D01*
X51568047Y-126542195D01*
X51616428Y-126493814D01*
X51664809Y-126397052D01*
X51664809Y-126010004D01*
X52100238Y-126977623D02*
X52148619Y-127122766D01*
X52148619Y-127364671D01*
X52100238Y-127461433D01*
X52051857Y-127509814D01*
X51955095Y-127558195D01*
X51858333Y-127558195D01*
X51761571Y-127509814D01*
X51713190Y-127461433D01*
X51664809Y-127364671D01*
X51616428Y-127171147D01*
X51568047Y-127074385D01*
X51519666Y-127026004D01*
X51422904Y-126977623D01*
X51326142Y-126977623D01*
X51229380Y-127026004D01*
X51181000Y-127074385D01*
X51132619Y-127171147D01*
X51132619Y-127413052D01*
X51181000Y-127558195D01*
X51132619Y-127848480D02*
X51132619Y-128429052D01*
X52148619Y-128138766D02*
X51132619Y-128138766D01*
X51084238Y-129493433D02*
X52390523Y-128622576D01*
X51616428Y-129832100D02*
X51616428Y-130170766D01*
X52148619Y-130315909D02*
X52148619Y-129832100D01*
X51132619Y-129832100D01*
X51132619Y-130315909D01*
X52148619Y-130751338D02*
X51132619Y-130751338D01*
X52148619Y-131331909D01*
X51132619Y-131331909D01*
X51132619Y-122308861D02*
X51132619Y-122889433D01*
X52148619Y-122599147D02*
X51132619Y-122599147D01*
X52051857Y-123808671D02*
X52100238Y-123760290D01*
X52148619Y-123615147D01*
X52148619Y-123518385D01*
X52100238Y-123373242D01*
X52003476Y-123276480D01*
X51906714Y-123228100D01*
X51713190Y-123179719D01*
X51568047Y-123179719D01*
X51374523Y-123228100D01*
X51277761Y-123276480D01*
X51181000Y-123373242D01*
X51132619Y-123518385D01*
X51132619Y-123615147D01*
X51181000Y-123760290D01*
X51229380Y-123808671D01*
X52148619Y-124244100D02*
X51132619Y-124244100D01*
X52148619Y-124824671D02*
X51568047Y-124389242D01*
X51132619Y-124824671D02*
X51713190Y-124244100D01*
X51132619Y-119260861D02*
X51132619Y-119841433D01*
X52148619Y-119551147D02*
X51132619Y-119551147D01*
X52148619Y-120180100D02*
X51132619Y-120180100D01*
X51132619Y-120422004D01*
X51181000Y-120567147D01*
X51277761Y-120663909D01*
X51374523Y-120712290D01*
X51568047Y-120760671D01*
X51713190Y-120760671D01*
X51906714Y-120712290D01*
X52003476Y-120663909D01*
X52100238Y-120567147D01*
X52148619Y-120422004D01*
X52148619Y-120180100D01*
X52148619Y-121196100D02*
X51132619Y-121196100D01*
X59766804Y-120523000D02*
X59863566Y-120474619D01*
X60008709Y-120474619D01*
X60153852Y-120523000D01*
X60250614Y-120619761D01*
X60298995Y-120716523D01*
X60347376Y-120910047D01*
X60347376Y-121055190D01*
X60298995Y-121248714D01*
X60250614Y-121345476D01*
X60153852Y-121442238D01*
X60008709Y-121490619D01*
X59911947Y-121490619D01*
X59766804Y-121442238D01*
X59718423Y-121393857D01*
X59718423Y-121055190D01*
X59911947Y-121055190D01*
X59282995Y-121490619D02*
X59282995Y-120474619D01*
X58702423Y-121490619D01*
X58702423Y-120474619D01*
X58218614Y-121490619D02*
X58218614Y-120474619D01*
X57976709Y-120474619D01*
X57831566Y-120523000D01*
X57734804Y-120619761D01*
X57686423Y-120716523D01*
X57638042Y-120910047D01*
X57638042Y-121055190D01*
X57686423Y-121248714D01*
X57734804Y-121345476D01*
X57831566Y-121442238D01*
X57976709Y-121490619D01*
X58218614Y-121490619D01*
X59766804Y-123063000D02*
X59863566Y-123014619D01*
X60008709Y-123014619D01*
X60153852Y-123063000D01*
X60250614Y-123159761D01*
X60298995Y-123256523D01*
X60347376Y-123450047D01*
X60347376Y-123595190D01*
X60298995Y-123788714D01*
X60250614Y-123885476D01*
X60153852Y-123982238D01*
X60008709Y-124030619D01*
X59911947Y-124030619D01*
X59766804Y-123982238D01*
X59718423Y-123933857D01*
X59718423Y-123595190D01*
X59911947Y-123595190D01*
X59282995Y-124030619D02*
X59282995Y-123014619D01*
X58702423Y-124030619D01*
X58702423Y-123014619D01*
X58218614Y-124030619D02*
X58218614Y-123014619D01*
X57976709Y-123014619D01*
X57831566Y-123063000D01*
X57734804Y-123159761D01*
X57686423Y-123256523D01*
X57638042Y-123450047D01*
X57638042Y-123595190D01*
X57686423Y-123788714D01*
X57734804Y-123885476D01*
X57831566Y-123982238D01*
X57976709Y-124030619D01*
X58218614Y-124030619D01*
X61949995Y-126183571D02*
X61175900Y-126183571D01*
X61562947Y-126570619D02*
X61562947Y-125796523D01*
X60788852Y-125554619D02*
X60159900Y-125554619D01*
X60498566Y-125941666D01*
X60353423Y-125941666D01*
X60256661Y-125990047D01*
X60208280Y-126038428D01*
X60159900Y-126135190D01*
X60159900Y-126377095D01*
X60208280Y-126473857D01*
X60256661Y-126522238D01*
X60353423Y-126570619D01*
X60643709Y-126570619D01*
X60740471Y-126522238D01*
X60788852Y-126473857D01*
X59724471Y-126473857D02*
X59676090Y-126522238D01*
X59724471Y-126570619D01*
X59772852Y-126522238D01*
X59724471Y-126473857D01*
X59724471Y-126570619D01*
X59337423Y-125554619D02*
X58708471Y-125554619D01*
X59047138Y-125941666D01*
X58901995Y-125941666D01*
X58805233Y-125990047D01*
X58756852Y-126038428D01*
X58708471Y-126135190D01*
X58708471Y-126377095D01*
X58756852Y-126473857D01*
X58805233Y-126522238D01*
X58901995Y-126570619D01*
X59192280Y-126570619D01*
X59289042Y-126522238D01*
X59337423Y-126473857D01*
X58418185Y-125554619D02*
X58079519Y-126570619D01*
X57740852Y-125554619D01*
D13*
X76580244Y-145886714D02*
X75612625Y-145886714D01*
X74675244Y-145886714D02*
X73707625Y-145886714D01*
X74191434Y-146370523D02*
X74191434Y-145402904D01*
D10*
X136622064Y-116586000D02*
X136694635Y-116513428D01*
X136839778Y-116295714D01*
X136912350Y-116150571D01*
X136984921Y-115932857D01*
X137057492Y-115570000D01*
X137057492Y-115279714D01*
X136984921Y-114916857D01*
X136912350Y-114699142D01*
X136839778Y-114554000D01*
X136694635Y-114336285D01*
X136622064Y-114263714D01*
X135388350Y-115932857D02*
X135533492Y-116005428D01*
X135823778Y-116005428D01*
X135968921Y-115932857D01*
X136041492Y-115860285D01*
X136114064Y-115715142D01*
X136114064Y-115279714D01*
X136041492Y-115134571D01*
X135968921Y-115062000D01*
X135823778Y-114989428D01*
X135533492Y-114989428D01*
X135388350Y-115062000D01*
X134880350Y-116586000D02*
X134807778Y-116513428D01*
X134662635Y-116295714D01*
X134590064Y-116150571D01*
X134517492Y-115932857D01*
X134444921Y-115570000D01*
X134444921Y-115279714D01*
X134517492Y-114916857D01*
X134590064Y-114699142D01*
X134662635Y-114554000D01*
X134807778Y-114336285D01*
X134880350Y-114263714D01*
X133791778Y-114626571D02*
X133719207Y-114554000D01*
X133574064Y-114481428D01*
X133211207Y-114481428D01*
X133066064Y-114554000D01*
X132993492Y-114626571D01*
X132920921Y-114771714D01*
X132920921Y-114916857D01*
X132993492Y-115134571D01*
X133864350Y-116005428D01*
X132920921Y-116005428D01*
X131977492Y-114481428D02*
X131832350Y-114481428D01*
X131687207Y-114554000D01*
X131614635Y-114626571D01*
X131542064Y-114771714D01*
X131469492Y-115062000D01*
X131469492Y-115424857D01*
X131542064Y-115715142D01*
X131614635Y-115860285D01*
X131687207Y-115932857D01*
X131832350Y-116005428D01*
X131977492Y-116005428D01*
X132122635Y-115932857D01*
X132195207Y-115860285D01*
X132267778Y-115715142D01*
X132340350Y-115424857D01*
X132340350Y-115062000D01*
X132267778Y-114771714D01*
X132195207Y-114626571D01*
X132122635Y-114554000D01*
X131977492Y-114481428D01*
X130888921Y-114626571D02*
X130816350Y-114554000D01*
X130671207Y-114481428D01*
X130308350Y-114481428D01*
X130163207Y-114554000D01*
X130090635Y-114626571D01*
X130018064Y-114771714D01*
X130018064Y-114916857D01*
X130090635Y-115134571D01*
X130961492Y-116005428D01*
X130018064Y-116005428D01*
X129437492Y-114626571D02*
X129364921Y-114554000D01*
X129219778Y-114481428D01*
X128856921Y-114481428D01*
X128711778Y-114554000D01*
X128639207Y-114626571D01*
X128566635Y-114771714D01*
X128566635Y-114916857D01*
X128639207Y-115134571D01*
X129510064Y-116005428D01*
X128566635Y-116005428D01*
X146285857Y-110671428D02*
X145995571Y-111687428D01*
X145705285Y-110961714D01*
X145415000Y-111687428D01*
X145124714Y-110671428D01*
X144689285Y-110671428D02*
X144399000Y-111687428D01*
X144108714Y-110961714D01*
X143818428Y-111687428D01*
X143528142Y-110671428D01*
X143092714Y-110671428D02*
X142802428Y-111687428D01*
X142512142Y-110961714D01*
X142221857Y-111687428D01*
X141931571Y-110671428D01*
X141351000Y-111542285D02*
X141278428Y-111614857D01*
X141351000Y-111687428D01*
X141423571Y-111614857D01*
X141351000Y-111542285D01*
X141351000Y-111687428D01*
X140407571Y-111687428D02*
X140552714Y-111614857D01*
X140625285Y-111542285D01*
X140697857Y-111397142D01*
X140697857Y-110961714D01*
X140625285Y-110816571D01*
X140552714Y-110744000D01*
X140407571Y-110671428D01*
X140189857Y-110671428D01*
X140044714Y-110744000D01*
X139972142Y-110816571D01*
X139899571Y-110961714D01*
X139899571Y-111397142D01*
X139972142Y-111542285D01*
X140044714Y-111614857D01*
X140189857Y-111687428D01*
X140407571Y-111687428D01*
X139028714Y-111687428D02*
X139173857Y-111614857D01*
X139246428Y-111469714D01*
X139246428Y-110163428D01*
X138448142Y-111687428D02*
X138448142Y-110671428D01*
X138448142Y-110163428D02*
X138520714Y-110236000D01*
X138448142Y-110308571D01*
X138375571Y-110236000D01*
X138448142Y-110163428D01*
X138448142Y-110308571D01*
X137722428Y-111687428D02*
X137722428Y-110671428D01*
X137722428Y-110816571D02*
X137649857Y-110744000D01*
X137504714Y-110671428D01*
X137287000Y-110671428D01*
X137141857Y-110744000D01*
X137069285Y-110889142D01*
X137069285Y-111687428D01*
X137069285Y-110889142D02*
X136996714Y-110744000D01*
X136851571Y-110671428D01*
X136633857Y-110671428D01*
X136488714Y-110744000D01*
X136416142Y-110889142D01*
X136416142Y-111687428D01*
X135109857Y-111614857D02*
X135255000Y-111687428D01*
X135545285Y-111687428D01*
X135690428Y-111614857D01*
X135763000Y-111469714D01*
X135763000Y-110889142D01*
X135690428Y-110744000D01*
X135545285Y-110671428D01*
X135255000Y-110671428D01*
X135109857Y-110744000D01*
X135037285Y-110889142D01*
X135037285Y-111034285D01*
X135763000Y-111179428D01*
X134529285Y-111687428D02*
X133731000Y-110671428D01*
X134529285Y-110671428D02*
X133731000Y-111687428D01*
X133150428Y-111542285D02*
X133077857Y-111614857D01*
X133150428Y-111687428D01*
X133223000Y-111614857D01*
X133150428Y-111542285D01*
X133150428Y-111687428D01*
X131771571Y-111614857D02*
X131916714Y-111687428D01*
X132207000Y-111687428D01*
X132352142Y-111614857D01*
X132424714Y-111542285D01*
X132497285Y-111397142D01*
X132497285Y-110961714D01*
X132424714Y-110816571D01*
X132352142Y-110744000D01*
X132207000Y-110671428D01*
X131916714Y-110671428D01*
X131771571Y-110744000D01*
X130900714Y-111687428D02*
X131045857Y-111614857D01*
X131118428Y-111542285D01*
X131191000Y-111397142D01*
X131191000Y-110961714D01*
X131118428Y-110816571D01*
X131045857Y-110744000D01*
X130900714Y-110671428D01*
X130683000Y-110671428D01*
X130537857Y-110744000D01*
X130465285Y-110816571D01*
X130392714Y-110961714D01*
X130392714Y-111397142D01*
X130465285Y-111542285D01*
X130537857Y-111614857D01*
X130683000Y-111687428D01*
X130900714Y-111687428D01*
X129739571Y-111687428D02*
X129739571Y-110671428D01*
X129739571Y-110816571D02*
X129667000Y-110744000D01*
X129521857Y-110671428D01*
X129304142Y-110671428D01*
X129159000Y-110744000D01*
X129086428Y-110889142D01*
X129086428Y-111687428D01*
X129086428Y-110889142D02*
X129013857Y-110744000D01*
X128868714Y-110671428D01*
X128651000Y-110671428D01*
X128505857Y-110744000D01*
X128433285Y-110889142D01*
X128433285Y-111687428D01*
D14*
X81453082Y-115660714D02*
X81307940Y-116168714D01*
X81162797Y-115805857D01*
X81017654Y-116168714D01*
X80872511Y-115660714D01*
X80654797Y-115660714D02*
X80509654Y-116168714D01*
X80364511Y-115805857D01*
X80219368Y-116168714D01*
X80074225Y-115660714D01*
X79856511Y-115660714D02*
X79711368Y-116168714D01*
X79566225Y-115805857D01*
X79421082Y-116168714D01*
X79275940Y-115660714D01*
X78985654Y-116096142D02*
X78949368Y-116132428D01*
X78985654Y-116168714D01*
X79021940Y-116132428D01*
X78985654Y-116096142D01*
X78985654Y-116168714D01*
X78622797Y-116168714D02*
X78622797Y-115406714D01*
X78296225Y-116168714D02*
X78296225Y-115769571D01*
X78332511Y-115697000D01*
X78405082Y-115660714D01*
X78513940Y-115660714D01*
X78586511Y-115697000D01*
X78622797Y-115733285D01*
X77824511Y-116168714D02*
X77897082Y-116132428D01*
X77933368Y-116096142D01*
X77969654Y-116023571D01*
X77969654Y-115805857D01*
X77933368Y-115733285D01*
X77897082Y-115697000D01*
X77824511Y-115660714D01*
X77715654Y-115660714D01*
X77643082Y-115697000D01*
X77606797Y-115733285D01*
X77570511Y-115805857D01*
X77570511Y-116023571D01*
X77606797Y-116096142D01*
X77643082Y-116132428D01*
X77715654Y-116168714D01*
X77824511Y-116168714D01*
X77243940Y-116168714D02*
X77243940Y-115660714D01*
X77243940Y-115733285D02*
X77207654Y-115697000D01*
X77135082Y-115660714D01*
X77026225Y-115660714D01*
X76953654Y-115697000D01*
X76917368Y-115769571D01*
X76917368Y-116168714D01*
X76917368Y-115769571D02*
X76881082Y-115697000D01*
X76808511Y-115660714D01*
X76699654Y-115660714D01*
X76627082Y-115697000D01*
X76590797Y-115769571D01*
X76590797Y-116168714D01*
X75937654Y-116132428D02*
X76010225Y-116168714D01*
X76155368Y-116168714D01*
X76227940Y-116132428D01*
X76264225Y-116059857D01*
X76264225Y-115769571D01*
X76227940Y-115697000D01*
X76155368Y-115660714D01*
X76010225Y-115660714D01*
X75937654Y-115697000D01*
X75901368Y-115769571D01*
X75901368Y-115842142D01*
X76264225Y-115914714D01*
X75248225Y-116132428D02*
X75320797Y-116168714D01*
X75465940Y-116168714D01*
X75538511Y-116132428D01*
X75574797Y-116096142D01*
X75611082Y-116023571D01*
X75611082Y-115805857D01*
X75574797Y-115733285D01*
X75538511Y-115697000D01*
X75465940Y-115660714D01*
X75320797Y-115660714D01*
X75248225Y-115697000D01*
X74812797Y-116168714D02*
X74885368Y-116132428D01*
X74921654Y-116096142D01*
X74957940Y-116023571D01*
X74957940Y-115805857D01*
X74921654Y-115733285D01*
X74885368Y-115697000D01*
X74812797Y-115660714D01*
X74703940Y-115660714D01*
X74631368Y-115697000D01*
X74595082Y-115733285D01*
X74558797Y-115805857D01*
X74558797Y-116023571D01*
X74595082Y-116096142D01*
X74631368Y-116132428D01*
X74703940Y-116168714D01*
X74812797Y-116168714D01*
X74232225Y-116168714D02*
X74232225Y-115660714D01*
X74232225Y-115733285D02*
X74195940Y-115697000D01*
X74123368Y-115660714D01*
X74014511Y-115660714D01*
X73941940Y-115697000D01*
X73905654Y-115769571D01*
X73905654Y-116168714D01*
X73905654Y-115769571D02*
X73869368Y-115697000D01*
X73796797Y-115660714D01*
X73687940Y-115660714D01*
X73615368Y-115697000D01*
X73579082Y-115769571D01*
X73579082Y-116168714D01*
X73216225Y-115660714D02*
X73216225Y-116422714D01*
X73216225Y-115697000D02*
X73143654Y-115660714D01*
X72998511Y-115660714D01*
X72925940Y-115697000D01*
X72889654Y-115733285D01*
X72853368Y-115805857D01*
X72853368Y-116023571D01*
X72889654Y-116096142D01*
X72925940Y-116132428D01*
X72998511Y-116168714D01*
X73143654Y-116168714D01*
X73216225Y-116132428D01*
X72200225Y-115660714D02*
X72200225Y-116168714D01*
X72526797Y-115660714D02*
X72526797Y-116059857D01*
X72490511Y-116132428D01*
X72417940Y-116168714D01*
X72309082Y-116168714D01*
X72236511Y-116132428D01*
X72200225Y-116096142D01*
X71946225Y-115660714D02*
X71655940Y-115660714D01*
X71837368Y-115406714D02*
X71837368Y-116059857D01*
X71801082Y-116132428D01*
X71728511Y-116168714D01*
X71655940Y-116168714D01*
X71111654Y-116132428D02*
X71184225Y-116168714D01*
X71329368Y-116168714D01*
X71401940Y-116132428D01*
X71438225Y-116059857D01*
X71438225Y-115769571D01*
X71401940Y-115697000D01*
X71329368Y-115660714D01*
X71184225Y-115660714D01*
X71111654Y-115697000D01*
X71075368Y-115769571D01*
X71075368Y-115842142D01*
X71438225Y-115914714D01*
X70748797Y-116168714D02*
X70748797Y-115660714D01*
X70748797Y-115805857D02*
X70712511Y-115733285D01*
X70676225Y-115697000D01*
X70603654Y-115660714D01*
X70531082Y-115660714D01*
X70277082Y-116168714D02*
X70277082Y-115660714D01*
X70277082Y-115733285D02*
X70240797Y-115697000D01*
X70168225Y-115660714D01*
X70059368Y-115660714D01*
X69986797Y-115697000D01*
X69950511Y-115769571D01*
X69950511Y-116168714D01*
X69950511Y-115769571D02*
X69914225Y-115697000D01*
X69841654Y-115660714D01*
X69732797Y-115660714D01*
X69660225Y-115697000D01*
X69623940Y-115769571D01*
X69623940Y-116168714D01*
X68934511Y-115660714D02*
X68934511Y-116168714D01*
X69261082Y-115660714D02*
X69261082Y-116059857D01*
X69224797Y-116132428D01*
X69152225Y-116168714D01*
X69043368Y-116168714D01*
X68970797Y-116132428D01*
X68934511Y-116096142D01*
X68607940Y-116132428D02*
X68535368Y-116168714D01*
X68390225Y-116168714D01*
X68317654Y-116132428D01*
X68281368Y-116059857D01*
X68281368Y-116023571D01*
X68317654Y-115951000D01*
X68390225Y-115914714D01*
X68499082Y-115914714D01*
X68571654Y-115878428D01*
X68607940Y-115805857D01*
X68607940Y-115769571D01*
X68571654Y-115697000D01*
X68499082Y-115660714D01*
X68390225Y-115660714D01*
X68317654Y-115697000D01*
X67664511Y-116132428D02*
X67737082Y-116168714D01*
X67882225Y-116168714D01*
X67954797Y-116132428D01*
X67991082Y-116059857D01*
X67991082Y-115769571D01*
X67954797Y-115697000D01*
X67882225Y-115660714D01*
X67737082Y-115660714D01*
X67664511Y-115697000D01*
X67628225Y-115769571D01*
X67628225Y-115842142D01*
X67991082Y-115914714D01*
X66975082Y-115660714D02*
X66975082Y-116168714D01*
X67301654Y-115660714D02*
X67301654Y-116059857D01*
X67265368Y-116132428D01*
X67192797Y-116168714D01*
X67083940Y-116168714D01*
X67011368Y-116132428D01*
X66975082Y-116096142D01*
X66612225Y-116168714D02*
X66612225Y-115660714D01*
X66612225Y-115733285D02*
X66575940Y-115697000D01*
X66503368Y-115660714D01*
X66394511Y-115660714D01*
X66321940Y-115697000D01*
X66285654Y-115769571D01*
X66285654Y-116168714D01*
X66285654Y-115769571D02*
X66249368Y-115697000D01*
X66176797Y-115660714D01*
X66067940Y-115660714D01*
X65995368Y-115697000D01*
X65959082Y-115769571D01*
X65959082Y-116168714D01*
X65596225Y-116096142D02*
X65559940Y-116132428D01*
X65596225Y-116168714D01*
X65632511Y-116132428D01*
X65596225Y-116096142D01*
X65596225Y-116168714D01*
X65233368Y-115660714D02*
X65233368Y-116168714D01*
X65233368Y-115733285D02*
X65197082Y-115697000D01*
X65124511Y-115660714D01*
X65015654Y-115660714D01*
X64943082Y-115697000D01*
X64906797Y-115769571D01*
X64906797Y-116168714D01*
X64435082Y-116168714D02*
X64507654Y-116132428D01*
X64543940Y-116059857D01*
X64543940Y-115406714D01*
D10*
X145203635Y-116005428D02*
X145711635Y-115279714D01*
X146074492Y-116005428D02*
X146074492Y-114481428D01*
X145493921Y-114481428D01*
X145348778Y-114554000D01*
X145276207Y-114626571D01*
X145203635Y-114771714D01*
X145203635Y-114989428D01*
X145276207Y-115134571D01*
X145348778Y-115207142D01*
X145493921Y-115279714D01*
X146074492Y-115279714D01*
X143969921Y-115932857D02*
X144115064Y-116005428D01*
X144405350Y-116005428D01*
X144550492Y-115932857D01*
X144623064Y-115787714D01*
X144623064Y-115207142D01*
X144550492Y-115062000D01*
X144405350Y-114989428D01*
X144115064Y-114989428D01*
X143969921Y-115062000D01*
X143897350Y-115207142D01*
X143897350Y-115352285D01*
X144623064Y-115497428D01*
X143389350Y-114989428D02*
X143026492Y-116005428D01*
X142663635Y-114989428D01*
X142083064Y-115860285D02*
X142010492Y-115932857D01*
X142083064Y-116005428D01*
X142155635Y-115932857D01*
X142083064Y-115860285D01*
X142083064Y-116005428D01*
X140849350Y-115207142D02*
X140631635Y-115279714D01*
X140559064Y-115352285D01*
X140486492Y-115497428D01*
X140486492Y-115715142D01*
X140559064Y-115860285D01*
X140631635Y-115932857D01*
X140776778Y-116005428D01*
X141357350Y-116005428D01*
X141357350Y-114481428D01*
X140849350Y-114481428D01*
X140704207Y-114554000D01*
X140631635Y-114626571D01*
X140559064Y-114771714D01*
X140559064Y-114916857D01*
X140631635Y-115062000D01*
X140704207Y-115134571D01*
X140849350Y-115207142D01*
X141357350Y-115207142D01*
D13*
X77679000Y-114089000D02*
X68079000Y-114089000D01*
X77679000Y-113339000D02*
X68079000Y-113339000D01*
X77679000Y-112589000D02*
X68079000Y-112589000D01*
X77679000Y-111839000D02*
X68079000Y-111839000D01*
X77679000Y-111089000D02*
X68079000Y-111089000D01*
D15*
X133489700Y-104343200D02*
X132118100Y-104343200D01*
X132118100Y-104343200D02*
X132067300Y-104343200D01*
X132067300Y-104343200D02*
X130810000Y-105587800D01*
X135013700Y-104457500D02*
X134912100Y-104457500D01*
X134861300Y-104394000D02*
X134861300Y-104381300D01*
X134861300Y-104381300D02*
X136156700Y-104381300D01*
X136156700Y-104381300D02*
X136182100Y-104381300D01*
X136182100Y-104381300D02*
X136804400Y-104876600D01*
X134861300Y-107403900D02*
X134861300Y-104394000D01*
X138518900Y-104444800D02*
X138595100Y-104444800D01*
X138671300Y-104381300D02*
X137426700Y-104381300D01*
X137426700Y-104381300D02*
X136842500Y-104863900D01*
X138671300Y-107378500D02*
X138671300Y-104394000D01*
X139407900Y-106972100D02*
X139319000Y-106972100D01*
X139750800Y-106972100D02*
X139814300Y-106972100D01*
X139890500Y-107035600D02*
X139280900Y-107035600D01*
X139280900Y-107035600D02*
X139255500Y-107035600D01*
X139255500Y-107035600D02*
X139255500Y-105016300D01*
X139890500Y-105016300D02*
X139890500Y-107035600D01*
X141389100Y-104406700D02*
X141274800Y-104406700D01*
X141516100Y-104330500D02*
X141211300Y-104330500D01*
X141211300Y-104330500D02*
X141211300Y-107365800D01*
X141693900Y-104419400D02*
X141757400Y-104406700D01*
X141808200Y-104330500D02*
X141820900Y-104330500D01*
X141820900Y-104330500D02*
X141833600Y-104330500D01*
X141833600Y-104330500D02*
X141833600Y-107480100D01*
X141528800Y-104330500D02*
X141808200Y-104330500D01*
D16*
X141528800Y-107403900D02*
X141528800Y-104673400D01*
X135191500Y-104686100D02*
X135191500Y-107289600D01*
X143306800Y-104673400D02*
X144310100Y-104673400D01*
X142684500Y-105283000D02*
X142684500Y-107213400D01*
X144907000Y-105321100D02*
X144907000Y-105562400D01*
X144907000Y-107289600D02*
X144322800Y-107861100D01*
X144894300Y-107302300D02*
X144894300Y-106540300D01*
X144335500Y-107861100D02*
X143294100Y-107861100D01*
D17*
X132566659Y-106248200D02*
G75*
G03X132566659Y-106248200I-359659J0D01*
G01*
D16*
X132715000Y-106248200D02*
X133934200Y-106248200D01*
D17*
X129632735Y-104508300D02*
G75*
G03X129632735Y-104508300I-359435J0D01*
G01*
D16*
X129641600Y-104863900D02*
X130505200Y-105757600D01*
D18*
X131064000Y-105854500D02*
X130505200Y-105854500D01*
D16*
X132181600Y-104673400D02*
X131089400Y-105740200D01*
X133403500Y-104673400D02*
X132181600Y-104673400D01*
X133934200Y-105156000D02*
X133451600Y-104648000D01*
X133934200Y-105181400D02*
X133934200Y-107416600D01*
X133934200Y-107416600D02*
X133502400Y-107848400D01*
X133502400Y-107848400D02*
X132181600Y-107848400D01*
X132181600Y-107848400D02*
X131038600Y-106730800D01*
D18*
X131038600Y-106629200D02*
X130505200Y-106629200D01*
D16*
X129692400Y-107543600D02*
X130530600Y-106730800D01*
D17*
X129691666Y-107899200D02*
G75*
G03X129691666Y-107899200I-329466J0D01*
G01*
X135554729Y-107810300D02*
G75*
G03X135554729Y-107810300I-363229J0D01*
G01*
D16*
X136093200Y-104698800D02*
X135204200Y-104698800D01*
D17*
X137175318Y-106527600D02*
G75*
G03X137175318Y-106527600I-370918J0D01*
G01*
D16*
X136728200Y-105206800D02*
X136093200Y-104698800D01*
X136804400Y-105994200D02*
X136804400Y-105283000D01*
X137515600Y-104698800D02*
X136906000Y-105206800D01*
X138353800Y-104698800D02*
X137515600Y-104698800D01*
X138353800Y-107289600D02*
X138353800Y-104698800D01*
D17*
X138700759Y-107797600D02*
G75*
G03X138700759Y-107797600I-359659J0D01*
G01*
X139933818Y-104597200D02*
G75*
G03X139933818Y-104597200I-373518J0D01*
G01*
D16*
X139573000Y-105130600D02*
X139573000Y-106730800D01*
D17*
X139939324Y-107823000D02*
G75*
G03X139939324Y-107823000I-366324J0D01*
G01*
D16*
X140085800Y-107848400D02*
X141071600Y-107848400D01*
X141071600Y-107848400D02*
X141528800Y-107391200D01*
X142697200Y-107251500D02*
X143256000Y-107835700D01*
X143306800Y-104686100D02*
X142671800Y-105295700D01*
X144907000Y-105270300D02*
X144399000Y-104762300D01*
D17*
X145231747Y-106045000D02*
G75*
G03X145231747Y-106045000I-337447J0D01*
G01*
D11*
X128904556Y-126643371D02*
G75*
G02X128651000Y-127254000I-865696J1511D01*
G01*
X127458020Y-125148180D02*
G75*
G02X127965200Y-126179580I-991420J-1127920D01*
G01*
X128375340Y-127284046D02*
G75*
G02X127965200Y-126187200I1118940J1043506D01*
G01*
X128652788Y-127382791D02*
G75*
G02X128348740Y-127256540I752J431051D01*
G01*
X128086340Y-127376613D02*
G75*
G02X127584200Y-126580900I709440J1003993D01*
G01*
X127204795Y-125242066D02*
G75*
G02X127558800Y-126232920I-1408755J-1061974D01*
G01*
X127737927Y-127382303D02*
G75*
G02X127538480Y-127358140I-1327J824263D01*
G01*
X127536497Y-127357453D02*
G75*
G02X126956820Y-127083820I205183J1185493D01*
G01*
X126932946Y-127061974D02*
G75*
G02X126619000Y-126304040I757934J757934D01*
G01*
X126619283Y-126304487D02*
G75*
G02X126690120Y-125935740I992857J447D01*
G01*
X126754148Y-125001136D02*
G75*
G02X126690120Y-125935740I-1478808J-368184D01*
G01*
X128056000Y-125022511D02*
G75*
G02X128778000Y-125666500I-601340J-1400909D01*
G01*
X128831794Y-125762321D02*
G75*
G02X129032000Y-126517400I-1323794J-755079D01*
G01*
X129033874Y-126517901D02*
G75*
G02X128948180Y-126961900I-1195674J501D01*
G01*
X129077720Y-127636612D02*
G75*
G02X128785620Y-127515620I0J413092D01*
G01*
X129435134Y-127486954D02*
G75*
G02X129077720Y-127635000I-357414J357414D01*
G01*
X129808258Y-127652710D02*
G75*
G02X129540000Y-127000000I653762J650170D01*
G01*
X130045978Y-128270280D02*
G75*
G02X129540000Y-127045720I1228842J1224560D01*
G01*
X133610379Y-123731186D02*
G75*
G02X132267960Y-123946920I-1812319J6992786D01*
G01*
X130486130Y-124520934D02*
G75*
G02X131749800Y-124020580I2134890J-3545866D01*
G01*
X129419641Y-125598765D02*
G75*
G02X130474720Y-124528580I3831299J-2722035D01*
G01*
X129539155Y-126873069D02*
G75*
G02X129659380Y-125935740I762845J378529D01*
G01*
X129830473Y-125747156D02*
G75*
G02X132384800Y-124477780I3654147J-4148444D01*
G01*
X134721541Y-123666778D02*
G75*
G02X132694680Y-124416820I-2631381J3997218D01*
G01*
X129987549Y-127958559D02*
G75*
G02X129540000Y-126873000I1086611J1083019D01*
G01*
X129413760Y-125221243D02*
G75*
G02X129473960Y-124543820I3049780J70363D01*
G01*
X129620736Y-123940585D02*
G75*
G02X131671060Y-122428000I2144304J-760715D01*
G01*
X135534952Y-122283522D02*
G75*
G02X133819900Y-122623580I-1268012J1900222D01*
G01*
X133508933Y-126207013D02*
G75*
G02X131643120Y-126873000I-1738813J1924813D01*
G01*
X135529464Y-123787447D02*
G75*
G02X133548120Y-126169420I-8344044J4925607D01*
G01*
X129816860Y-126596140D02*
G75*
G02X130535680Y-126598680I358140J-360680D01*
G01*
X131127500Y-126875066D02*
G75*
G02X130589020Y-126652020I0J761526D01*
G01*
X131445000Y-130683000D02*
G75*
G02X129921000Y-129159000I0J1524000D01*
G01*
X144780000Y-129159000D02*
G75*
G02X143256000Y-130683000I-1524000J0D01*
G01*
X143256000Y-127635000D02*
G75*
G02X144780000Y-129159000I0J-1524000D01*
G01*
X129921000Y-129159000D02*
G75*
G02X131445000Y-127635000I1524000J0D01*
G01*
X131445000Y-127635000D02*
X143256000Y-127635000D01*
X143256000Y-130683000D02*
X131445000Y-130683000D01*
X130589020Y-126652020D02*
X130535680Y-126598680D01*
X129816860Y-126598680D02*
X129540000Y-126873000D01*
X136398000Y-121666000D02*
X135531860Y-123781820D01*
X133548120Y-126169420D02*
X133512560Y-126204980D01*
X131643120Y-126873000D02*
X131127500Y-126873000D01*
X136398000Y-121666000D02*
X135536940Y-122285760D01*
X133819900Y-122623580D02*
X131671060Y-122428000D01*
X129621280Y-123944380D02*
X129473960Y-124543820D01*
X129415540Y-125222000D02*
X129415540Y-125603000D01*
X129517140Y-126827280D02*
X129540000Y-126873000D01*
X130175000Y-128143000D02*
X129989580Y-127957580D01*
X135003540Y-123317000D02*
X134721600Y-123664980D01*
X132694680Y-124416820D02*
X132384800Y-124477780D01*
X129829560Y-125747780D02*
X129659380Y-125935740D01*
X129415540Y-125603000D02*
X129418080Y-125600460D01*
X130474720Y-124528580D02*
X130482340Y-124523500D01*
X131749800Y-124020580D02*
X132267960Y-123946920D01*
X133616700Y-123731020D02*
X135003540Y-123317000D01*
X130175000Y-128270000D02*
X129667000Y-127508000D01*
X129540000Y-127045720D02*
X129540000Y-127000000D01*
X130302000Y-128143000D02*
X129811780Y-127652780D01*
X129540000Y-127381000D02*
X129435860Y-127487680D01*
X128785620Y-127515620D02*
X128651000Y-127381000D01*
X128651000Y-127381000D02*
X128948180Y-126961900D01*
X128831340Y-125760480D02*
X128778000Y-125666500D01*
X128056640Y-125021340D02*
X127635000Y-124841000D01*
X127635000Y-124841000D02*
X126619000Y-124460000D01*
X126619000Y-124460000D02*
X126753620Y-124998480D01*
X126933960Y-127060960D02*
X126956820Y-127083820D01*
X127736600Y-127381000D02*
X128092200Y-127381000D01*
X128638300Y-127381000D02*
X128651000Y-127381000D01*
X127558800Y-126189740D02*
X127584200Y-126580900D01*
X136017000Y-122174000D02*
X135003540Y-122811540D01*
D19*
X135003540Y-122811540D02*
X133858000Y-122811540D01*
X133858000Y-122811540D02*
X132842000Y-122682000D01*
X132842000Y-122682000D02*
X131191000Y-122682000D01*
X131191000Y-122682000D02*
X130556000Y-123063000D01*
X130556000Y-123063000D02*
X130048000Y-123571000D01*
X130048000Y-123571000D02*
X129794000Y-124079000D01*
X129794000Y-124079000D02*
X129667000Y-125095000D01*
X129667000Y-125095000D02*
X130175000Y-124460000D01*
X130175000Y-124460000D02*
X130810000Y-124079000D01*
X130810000Y-124079000D02*
X130556000Y-123571000D01*
X130556000Y-123571000D02*
X130175000Y-124079000D01*
X130937000Y-124079000D02*
X131572000Y-123698000D01*
X131572000Y-123698000D02*
X132080000Y-123698000D01*
X132080000Y-123698000D02*
X132207000Y-123698000D01*
X132207000Y-123698000D02*
X133350000Y-123571000D01*
X133350000Y-123571000D02*
X134620000Y-123190000D01*
X134620000Y-123190000D02*
X135128000Y-123063000D01*
X135128000Y-123063000D02*
X130556000Y-123063000D01*
X130556000Y-123063000D02*
X130556000Y-123317000D01*
X130556000Y-123571000D02*
X130556000Y-123317000D01*
X130556000Y-123317000D02*
X135509000Y-123240800D01*
X130429000Y-123698000D02*
X132080000Y-123698000D01*
X136017000Y-122174000D02*
X135509000Y-123063000D01*
X135509000Y-123063000D02*
X135382000Y-123571000D01*
X135382000Y-123571000D02*
X135003540Y-124079000D01*
X135003540Y-124079000D02*
X135003540Y-123698000D01*
X135003540Y-123698000D02*
X135382000Y-122811540D01*
X134874000Y-124206000D02*
X134493000Y-124714000D01*
X134493000Y-124714000D02*
X134239000Y-125095000D01*
X134239000Y-125095000D02*
X133350000Y-125984000D01*
X133350000Y-125984000D02*
X132842000Y-126365000D01*
X132842000Y-126365000D02*
X131953000Y-126619000D01*
X131953000Y-126619000D02*
X131064000Y-126619000D01*
X131064000Y-126619000D02*
X130302000Y-126111000D01*
X130302000Y-126111000D02*
X129921000Y-126238000D01*
X129921000Y-126238000D02*
X129667000Y-126492000D01*
X129667000Y-126492000D02*
X129921000Y-125984000D01*
X129921000Y-125984000D02*
X130429000Y-125476000D01*
X130429000Y-125476000D02*
X131114800Y-125069600D01*
X131114800Y-125069600D02*
X132511800Y-124587000D01*
X132511800Y-124587000D02*
X133121400Y-124587000D01*
X133121400Y-124587000D02*
X133858000Y-124333000D01*
X133858000Y-124333000D02*
X134620000Y-123952000D01*
X134493000Y-124333000D02*
X133731000Y-124968000D01*
X133731000Y-124968000D02*
X133604000Y-124841000D01*
X133604000Y-124841000D02*
X133477000Y-124841000D01*
X133477000Y-124841000D02*
X132334000Y-124968000D01*
X132334000Y-124968000D02*
X131318000Y-125222000D01*
X131318000Y-125222000D02*
X130683000Y-125730000D01*
X130683000Y-125730000D02*
X130556000Y-125857000D01*
X130556000Y-125857000D02*
X130683000Y-126111000D01*
X130683000Y-126111000D02*
X130937000Y-126111000D01*
X130937000Y-126111000D02*
X131318000Y-126238000D01*
X131318000Y-126238000D02*
X131953000Y-126238000D01*
X131953000Y-126238000D02*
X132334000Y-126111000D01*
X132334000Y-126111000D02*
X132842000Y-125984000D01*
X132842000Y-125984000D02*
X133477000Y-125476000D01*
X133477000Y-125476000D02*
X133604000Y-125349000D01*
X133604000Y-125349000D02*
X133477000Y-125222000D01*
X133477000Y-125222000D02*
X132969000Y-125222000D01*
X132969000Y-125222000D02*
X131953000Y-125476000D01*
X131953000Y-125476000D02*
X131699000Y-125476000D01*
X131699000Y-125476000D02*
X131191000Y-125730000D01*
X131191000Y-125730000D02*
X131191000Y-125857000D01*
X131191000Y-125857000D02*
X131318000Y-125984000D01*
X131318000Y-125984000D02*
X131699000Y-125857000D01*
X131699000Y-125857000D02*
X132969000Y-125603000D01*
D11*
X128348740Y-127256540D02*
X128376680Y-127284480D01*
X127965200Y-126187200D02*
X127965200Y-126179580D01*
X128905000Y-126641860D02*
X128905000Y-126619000D01*
X128905000Y-126619000D02*
X128905000Y-126365000D01*
X128905000Y-126365000D02*
X128778000Y-126365000D01*
X128778000Y-126365000D02*
X128651000Y-126365000D01*
X128651000Y-126365000D02*
X128651000Y-127000000D01*
X128778000Y-126365000D02*
X128778000Y-126492000D01*
X128778000Y-126492000D02*
X128778000Y-126873000D01*
X128778000Y-126873000D02*
X128778000Y-127000000D01*
X128778000Y-127000000D02*
X128778000Y-127127000D01*
X128651000Y-126365000D02*
X128270000Y-126365000D01*
X128270000Y-126365000D02*
X128016000Y-126365000D01*
X128016000Y-126365000D02*
X128524000Y-127254000D01*
X128270000Y-126365000D02*
X128270000Y-126873000D01*
X128778000Y-126492000D02*
X128143000Y-126492000D01*
X128905000Y-126619000D02*
X128143000Y-126619000D01*
X128905000Y-126746000D02*
X128143000Y-126746000D01*
X128778000Y-126873000D02*
X128143000Y-126873000D01*
X128778000Y-127000000D02*
X128270000Y-127000000D01*
X128016000Y-126238000D02*
X128905000Y-126238000D01*
X128016000Y-126111000D02*
X128905000Y-126111000D01*
X128016000Y-125984000D02*
X128778000Y-125984000D01*
X128016000Y-125857000D02*
X128778000Y-125857000D01*
X127889000Y-125730000D02*
X128778000Y-125730000D01*
X127889000Y-125603000D02*
X128651000Y-125603000D01*
X127762000Y-125476000D02*
X128524000Y-125476000D01*
X127762000Y-125349000D02*
X128397000Y-125349000D01*
X127635000Y-125222000D02*
X128143000Y-125222000D01*
X126873000Y-125095000D02*
X127000000Y-125095000D01*
X127000000Y-125095000D02*
X127127000Y-125095000D01*
X127127000Y-125095000D02*
X128016000Y-125095000D01*
X127635000Y-124968000D02*
X126873000Y-124968000D01*
X127381000Y-124841000D02*
X126746000Y-124841000D01*
X127254000Y-124714000D02*
X126746000Y-124714000D01*
X127127000Y-125095000D02*
X127127000Y-125603000D01*
X127000000Y-125095000D02*
X127000000Y-125603000D01*
X127381000Y-125603000D02*
X126873000Y-125603000D01*
X127381000Y-125730000D02*
X126873000Y-125730000D01*
X127508000Y-125857000D02*
X126873000Y-125857000D01*
X127508000Y-125984000D02*
X126746000Y-125984000D01*
X127508000Y-126111000D02*
X126746000Y-126111000D01*
X127508000Y-126238000D02*
X126746000Y-126238000D01*
X127508000Y-126365000D02*
X126746000Y-126365000D01*
X127508000Y-126492000D02*
X126746000Y-126492000D01*
X127508000Y-126619000D02*
X126746000Y-126619000D01*
X127584200Y-126746000D02*
X126746000Y-126746000D01*
X127635000Y-126873000D02*
X126873000Y-126873000D01*
X127635000Y-127000000D02*
X127000000Y-127000000D01*
X127762000Y-127127000D02*
X127127000Y-127127000D01*
X127889000Y-127254000D02*
X127381000Y-127254000D01*
X84074000Y-125349000D02*
G75*
G02X86360000Y-125349000I1143000J-1143000D01*
G01*
D20*
X84328000Y-128651000D02*
G75*
G03X84328000Y-128651000I-127000J0D01*
G01*
D11*
X85344000Y-124587000D02*
X85344000Y-124714000D01*
X85344000Y-124714000D02*
X84963000Y-124714000D01*
X84963000Y-124714000D02*
X84963000Y-124587000D01*
X84963000Y-124587000D02*
X85344000Y-124587000D01*
X85217000Y-126111000D02*
X84582000Y-126111000D01*
X85344000Y-125984000D02*
X84455000Y-125984000D01*
X84455000Y-125984000D02*
X84455000Y-126365000D01*
X84455000Y-126365000D02*
X85344000Y-126365000D01*
X85344000Y-126365000D02*
X85344000Y-125984000D01*
X83947000Y-125984000D02*
X83947000Y-125603000D01*
X83947000Y-125603000D02*
X83820000Y-125603000D01*
X83820000Y-125603000D02*
X83820000Y-125984000D01*
X83947000Y-125603000D02*
X83947000Y-125730000D01*
X83947000Y-125476000D02*
X83820000Y-125857000D01*
X83947000Y-125603000D02*
X83947000Y-125730000D01*
X84074000Y-125476000D02*
X84074000Y-125984000D01*
X84074000Y-125984000D02*
X83693000Y-125984000D01*
X83693000Y-125984000D02*
X83693000Y-125476000D01*
X86106000Y-125349000D02*
X86106000Y-124841000D01*
X86106000Y-124841000D02*
X85979000Y-124841000D01*
X85979000Y-124841000D02*
X85979000Y-125349000D01*
X84602609Y-128651000D02*
G75*
G03X84602609Y-128651000I-401609J0D01*
G01*
X84201000Y-128143000D02*
X84074000Y-126111000D01*
X86106000Y-128651000D02*
X86106000Y-129032000D01*
X86106000Y-129032000D02*
X85598000Y-129032000D01*
X85598000Y-129032000D02*
X85598000Y-128778000D01*
X86614000Y-125476000D02*
X83693000Y-125476000D01*
X86106000Y-128651000D02*
X86360000Y-125603000D01*
X86106000Y-128651000D02*
X84709000Y-128651000D01*
X87122000Y-129032000D02*
X83058000Y-125095000D01*
X87249000Y-124968000D02*
X83058000Y-129159000D01*
D21*
X87404200Y-130404400D02*
X82984600Y-130404400D01*
X82984600Y-130302800D02*
X87353400Y-130302800D01*
X87404200Y-130099600D02*
X82933800Y-130099600D01*
X87404200Y-129947200D02*
X82984600Y-129947200D01*
X82933800Y-130201200D02*
X87353400Y-130201200D01*
X82933800Y-130048800D02*
X87353400Y-130048800D01*
X87404200Y-129896400D02*
X82933800Y-129896400D01*
X82933800Y-129794800D02*
X87353400Y-129794800D01*
X82883000Y-130506000D02*
X87455000Y-130506000D01*
X87455000Y-130506000D02*
X87455000Y-129744000D01*
X87455000Y-129744000D02*
X82883000Y-129744000D01*
X82883000Y-129744000D02*
X82883000Y-130506000D01*
D22*
X83726020Y-110698280D02*
X86159340Y-108277660D01*
D11*
X86689037Y-109534960D02*
G75*
G03X86689037Y-109534960I-1802237J0D01*
G01*
D23*
X102328980Y-127000000D02*
G75*
G02X101958140Y-125135640I746760J1117600D01*
G01*
X101947980Y-125150880D02*
G75*
G02X103873300Y-124952760I1061720J-863600D01*
G01*
X103898700Y-124978160D02*
G75*
G02X103822500Y-126832360I-965200J-889000D01*
G01*
D24*
X101833680Y-127050800D02*
X101500940Y-127782320D01*
X101833680Y-127142240D02*
X100652580Y-128155700D01*
X101719380Y-127005080D02*
X101102160Y-127332740D01*
X101399340Y-126585980D02*
X100789740Y-126692660D01*
X100563680Y-125427740D02*
X101285040Y-125575060D01*
X100804980Y-124734320D02*
X101460300Y-125100080D01*
X101673660Y-123865640D02*
X102092760Y-124452380D01*
X102260400Y-123614180D02*
X102481380Y-124299980D01*
X103525320Y-123598940D02*
X103357680Y-124208540D01*
X103959660Y-123858020D02*
X103784400Y-124216160D01*
X104957880Y-124635260D02*
X104500680Y-124924820D01*
X105133140Y-125115320D02*
X104691180Y-125275340D01*
X105458260Y-126359920D02*
X104752140Y-126232920D01*
X105209340Y-127005080D02*
X104645460Y-126525020D01*
X104543860Y-127904240D02*
X104178100Y-127142240D01*
X99753420Y-125851920D02*
X101221540Y-125938280D01*
X100744020Y-123667520D02*
X101856540Y-124734320D01*
X103009700Y-122610880D02*
X103004620Y-124124720D01*
X105270300Y-123586240D02*
X104208580Y-124693680D01*
X106255820Y-125872240D02*
X104838500Y-125811280D01*
X105219500Y-128076960D02*
X104366060Y-127055880D01*
D21*
X104203500Y-126646940D02*
X103896160Y-126913640D01*
X104533700Y-123733560D02*
X103550720Y-123240800D01*
X102354380Y-127238760D02*
X102476300Y-126954280D01*
X102217220Y-126784100D02*
X102471220Y-126949200D01*
X103718360Y-126781560D02*
X103492300Y-126956820D01*
X104086660Y-126667260D02*
X103827580Y-127005080D01*
X104310180Y-126446280D02*
X104216200Y-126616460D01*
X104310180Y-126446280D02*
X104216200Y-126616460D01*
X104447340Y-125592840D02*
X104315260Y-126415800D01*
X104023160Y-124856240D02*
X104442260Y-125587760D01*
X103151940Y-124426980D02*
X104023160Y-124856240D01*
X102336600Y-124594620D02*
X103151940Y-124434600D01*
X101826060Y-125023880D02*
X102336600Y-124594620D01*
X101592380Y-125696980D02*
X101826060Y-125023880D01*
X101597460Y-126202440D02*
X101597460Y-125684280D01*
X101973380Y-126913640D02*
X101597460Y-126202440D01*
X102151180Y-127035560D02*
X101973380Y-126913640D01*
X105422700Y-123014740D02*
X104538780Y-123736100D01*
X105178860Y-124368560D02*
X105780840Y-123459240D01*
X105183940Y-124363480D02*
X105570020Y-125361700D01*
X106713020Y-125630940D02*
X105597960Y-125384560D01*
X106570780Y-125575060D02*
X106570780Y-126225300D01*
X102194360Y-126977140D02*
X101666040Y-128358900D01*
X101803200Y-128656080D02*
X102189280Y-127675640D01*
X101274880Y-128328420D02*
X101803200Y-128656080D01*
X100591620Y-128661160D02*
X101412040Y-128132840D01*
X101455220Y-128356360D02*
X100578920Y-128976120D01*
X100568760Y-128971040D02*
X99885500Y-128280160D01*
X100172520Y-128196340D02*
X100657660Y-128727200D01*
X100139500Y-126560580D02*
X100520500Y-127541020D01*
X100243640Y-126593600D02*
X99120960Y-126382780D01*
X99105720Y-125404880D02*
X99108260Y-126362460D01*
X99189540Y-126146560D02*
X100296980Y-126370080D01*
X100492560Y-124376180D02*
X100126800Y-125244860D01*
X99877880Y-123494800D02*
X100581460Y-124485400D01*
X100576380Y-122796300D02*
X99882960Y-123487180D01*
X101592380Y-123471940D02*
X100581460Y-122798840D01*
X102278180Y-123085860D02*
X101473000Y-123423680D01*
X102494080Y-121996200D02*
X102268020Y-123167140D01*
X103459280Y-121996200D02*
X102494080Y-121996200D01*
X103469440Y-122003820D02*
X103670100Y-123029980D01*
X104457500Y-123398280D02*
X103553260Y-123019820D01*
X105392220Y-122750580D02*
X104421940Y-123466860D01*
X106078020Y-123466860D02*
X105404920Y-122753120D01*
X106057700Y-123502420D02*
X105463340Y-124355860D01*
X105796080Y-125186440D02*
X105460800Y-124353320D01*
X106865420Y-125384560D02*
X105694480Y-125181360D01*
X106862880Y-125387100D02*
X106862880Y-126372620D01*
X106862880Y-126380240D02*
X105791000Y-126575820D01*
X106100880Y-128287780D02*
X105503980Y-127424180D01*
X105371900Y-128983740D02*
X106093260Y-128290320D01*
X104538780Y-128412240D02*
X105364280Y-128976120D01*
X104526080Y-128422400D02*
X104180640Y-128643380D01*
X104142540Y-128625600D02*
X103492300Y-126956820D01*
D23*
X100576380Y-128816100D02*
X100022660Y-128270000D01*
X100642420Y-127375920D02*
X100022660Y-128262380D01*
X101765100Y-128442720D02*
X102339140Y-127002540D01*
X101427280Y-128257300D02*
X101765100Y-128442720D01*
X100591620Y-128823720D02*
X101427280Y-128257300D01*
X100236020Y-126464060D02*
X100642420Y-127375920D01*
X99222560Y-126293880D02*
X100236020Y-126464060D01*
X99222560Y-125458220D02*
X99222560Y-126293880D01*
X100304600Y-125229620D02*
X99222560Y-125458220D01*
X100644960Y-124292360D02*
X100304600Y-125229620D01*
X100027740Y-123502420D02*
X100644960Y-124292360D01*
X100581460Y-122953780D02*
X100027740Y-123499880D01*
X101485700Y-123586240D02*
X100581460Y-122951800D01*
X102400100Y-123141740D02*
X101498400Y-123591320D01*
X102613460Y-122123200D02*
X102400100Y-123141740D01*
X103380540Y-122102880D02*
X102595680Y-122102880D01*
X103372920Y-122115580D02*
X103578660Y-123129040D01*
X104477820Y-123555760D02*
X103632000Y-123149360D01*
X105366820Y-122913140D02*
X104538780Y-123565920D01*
D25*
X105915460Y-123471940D02*
X105415080Y-122938540D01*
D23*
X105905300Y-123494800D02*
X105349040Y-124345700D01*
X105676700Y-125262640D02*
X105328720Y-124396500D01*
X106725720Y-125478540D02*
X105707180Y-125298200D01*
D25*
X106713020Y-125491240D02*
X106718100Y-126278640D01*
D23*
X106723180Y-126268480D02*
X105773220Y-126486920D01*
X105745280Y-126509780D02*
X105387140Y-127393700D01*
X105920540Y-128270000D02*
X105387140Y-127436880D01*
D25*
X105935780Y-128270000D02*
X105371900Y-128808480D01*
D17*
X105359200Y-128808480D02*
X104579420Y-128277620D01*
D23*
X104569260Y-128259840D02*
X104251760Y-128465580D01*
D26*
X104223820Y-128445260D02*
X103672640Y-127022860D01*
D11*
X119126000Y-110109000D02*
G75*
G02X119253000Y-110236000I0J-127000D01*
G01*
X118999000Y-110172500D02*
G75*
G02X119062500Y-110109000I63500J0D01*
G01*
X119060071Y-110365545D02*
G75*
G02X118999000Y-110299500I2429J63505D01*
G01*
X119443500Y-109982000D02*
G75*
G02X119062500Y-110363000I-381000J0D01*
G01*
X119254048Y-108586575D02*
G75*
G02X119443500Y-108902500I-168688J-315925D01*
G01*
X119251549Y-108585142D02*
G75*
G02X118935500Y-108267500I478971J792622D01*
G01*
X119060935Y-109094845D02*
G75*
G02X118364000Y-108648500I153965J1007685D01*
G01*
X118617068Y-109855674D02*
G75*
G02X118618000Y-110172500I-316568J-159346D01*
G01*
X118617967Y-110172600D02*
G75*
G02X118491000Y-110299500I-190467J63600D01*
G01*
X117289275Y-109411493D02*
G75*
G02X117729000Y-109537500I-825195J-3709947D01*
G01*
X117728915Y-109538965D02*
G75*
G02X118300500Y-110299500I-284395J-808795D01*
G01*
X117666708Y-109094166D02*
G75*
G02X118618000Y-109855000I-285688J-1332334D01*
G01*
X117154461Y-109348576D02*
G75*
G02X116332000Y-108902500I147819J1253796D01*
G01*
X115823301Y-108712474D02*
G75*
G02X116332000Y-108902500I64199J-604046D01*
G01*
X117347915Y-107761114D02*
G75*
G02X117132100Y-107823000I-182795J230214D01*
G01*
X117348721Y-107759678D02*
G75*
G02X118935500Y-108267500I466639J-1274902D01*
G01*
X117729000Y-104267000D02*
X121285000Y-111379000D01*
X121285000Y-111379000D02*
X114173000Y-111379000D01*
X114173000Y-111379000D02*
X115506500Y-108712000D01*
X115506500Y-108712000D02*
X115951000Y-107823000D01*
X115951000Y-107823000D02*
X117729000Y-104267000D01*
X119507000Y-107886500D02*
X114173000Y-111379000D01*
X117132100Y-107823000D02*
X115951000Y-107823000D01*
X115506500Y-108712000D02*
X115824000Y-108712000D01*
X118491000Y-110299500D02*
X118338600Y-110299500D01*
X119443500Y-108902500D02*
X119443500Y-109982000D01*
X118999000Y-110299500D02*
X118999000Y-110172500D01*
X119062500Y-110109000D02*
X119062500Y-109093000D01*
X119062500Y-110109000D02*
X119126000Y-110109000D01*
X96548000Y-111347000D02*
G75*
G03X96548000Y-107347000I0J2000000D01*
G01*
D27*
X96597980Y-111097000D02*
G75*
G03X96598000Y-107597000I-49980J1750000D01*
G01*
D11*
X96548000Y-110847000D02*
G75*
G03X96548000Y-107847000I0J1500000D01*
G01*
D27*
X100097980Y-111097000D02*
G75*
G03X100098000Y-107597000I-49980J1750000D01*
G01*
D11*
X100048000Y-111347000D02*
G75*
G03X100048000Y-107347000I0J2000000D01*
G01*
X100048000Y-110847000D02*
G75*
G03X100048000Y-107847000I0J1500000D01*
G01*
X100048000Y-107347000D02*
X100048000Y-107847000D01*
X100048000Y-110847000D02*
X100048000Y-111347000D01*
X96548000Y-110847000D02*
X96548000Y-111347000D01*
X96548000Y-107347000D02*
X96548000Y-107847000D01*
X98048000Y-109097000D02*
X96798000Y-109097000D01*
X96798000Y-109097000D02*
X96798000Y-109597000D01*
X96798000Y-109597000D02*
X98048000Y-109597000D01*
X96798000Y-109347000D02*
X98048000Y-109347000D01*
D13*
X77637809Y-110013523D02*
X77637809Y-108743523D01*
X77214476Y-109650666D01*
X76791142Y-108743523D01*
X76791142Y-110013523D01*
X76186380Y-108743523D02*
X76186380Y-109771619D01*
X76125904Y-109892571D01*
X76065428Y-109953047D01*
X75944476Y-110013523D01*
X75702571Y-110013523D01*
X75581619Y-109953047D01*
X75521142Y-109892571D01*
X75460666Y-109771619D01*
X75460666Y-108743523D01*
X74916380Y-109953047D02*
X74734952Y-110013523D01*
X74432571Y-110013523D01*
X74311619Y-109953047D01*
X74251142Y-109892571D01*
X74190666Y-109771619D01*
X74190666Y-109650666D01*
X74251142Y-109529714D01*
X74311619Y-109469238D01*
X74432571Y-109408761D01*
X74674476Y-109348285D01*
X74795428Y-109287809D01*
X74855904Y-109227333D01*
X74916380Y-109106380D01*
X74916380Y-108985428D01*
X74855904Y-108864476D01*
X74795428Y-108804000D01*
X74674476Y-108743523D01*
X74372095Y-108743523D01*
X74190666Y-108804000D01*
X73646380Y-109348285D02*
X73223047Y-109348285D01*
X73041619Y-110013523D02*
X73646380Y-110013523D01*
X73646380Y-108743523D01*
X73041619Y-108743523D01*
X72497333Y-108743523D02*
X72497333Y-109771619D01*
X72436857Y-109892571D01*
X72376380Y-109953047D01*
X72255428Y-110013523D01*
X72013523Y-110013523D01*
X71892571Y-109953047D01*
X71832095Y-109892571D01*
X71771619Y-109771619D01*
X71771619Y-108743523D01*
X71166857Y-110013523D02*
X71166857Y-108743523D01*
X70743523Y-109650666D01*
X70320190Y-108743523D01*
X70320190Y-110013523D01*
X76920428Y-107702571D02*
X76980904Y-107763047D01*
X77162333Y-107823523D01*
X77283285Y-107823523D01*
X77464714Y-107763047D01*
X77585666Y-107642095D01*
X77646142Y-107521142D01*
X77706619Y-107279238D01*
X77706619Y-107097809D01*
X77646142Y-106855904D01*
X77585666Y-106734952D01*
X77464714Y-106614000D01*
X77283285Y-106553523D01*
X77162333Y-106553523D01*
X76980904Y-106614000D01*
X76920428Y-106674476D01*
X76134238Y-106553523D02*
X75892333Y-106553523D01*
X75771380Y-106614000D01*
X75650428Y-106734952D01*
X75589952Y-106976857D01*
X75589952Y-107400190D01*
X75650428Y-107642095D01*
X75771380Y-107763047D01*
X75892333Y-107823523D01*
X76134238Y-107823523D01*
X76255190Y-107763047D01*
X76376142Y-107642095D01*
X76436619Y-107400190D01*
X76436619Y-106976857D01*
X76376142Y-106734952D01*
X76255190Y-106614000D01*
X76134238Y-106553523D01*
X75045666Y-107823523D02*
X75045666Y-106553523D01*
X74622333Y-107460666D01*
X74199000Y-106553523D01*
X74199000Y-107823523D01*
X73594238Y-107823523D02*
X73594238Y-106553523D01*
X73110428Y-106553523D01*
X72989476Y-106614000D01*
X72929000Y-106674476D01*
X72868523Y-106795428D01*
X72868523Y-106976857D01*
X72929000Y-107097809D01*
X72989476Y-107158285D01*
X73110428Y-107218761D01*
X73594238Y-107218761D01*
X72324238Y-106553523D02*
X72324238Y-107581619D01*
X72263761Y-107702571D01*
X72203285Y-107763047D01*
X72082333Y-107823523D01*
X71840428Y-107823523D01*
X71719476Y-107763047D01*
X71659000Y-107702571D01*
X71598523Y-107581619D01*
X71598523Y-106553523D01*
X71175190Y-106553523D02*
X70449476Y-106553523D01*
X70812333Y-107823523D02*
X70812333Y-106553523D01*
X70026142Y-107158285D02*
X69602809Y-107158285D01*
X69421380Y-107823523D02*
X70026142Y-107823523D01*
X70026142Y-106553523D01*
X69421380Y-106553523D01*
X68151380Y-107823523D02*
X68574714Y-107218761D01*
X68877095Y-107823523D02*
X68877095Y-106553523D01*
X68393285Y-106553523D01*
X68272333Y-106614000D01*
X68211857Y-106674476D01*
X68151380Y-106795428D01*
X68151380Y-106976857D01*
X68211857Y-107097809D01*
X68272333Y-107158285D01*
X68393285Y-107218761D01*
X68877095Y-107218761D01*
X77707333Y-105613523D02*
X77707333Y-104343523D01*
X77707333Y-104948285D02*
X76981619Y-104948285D01*
X76981619Y-105613523D02*
X76981619Y-104343523D01*
X76134952Y-104343523D02*
X75893047Y-104343523D01*
X75772095Y-104404000D01*
X75651142Y-104524952D01*
X75590666Y-104766857D01*
X75590666Y-105190190D01*
X75651142Y-105432095D01*
X75772095Y-105553047D01*
X75893047Y-105613523D01*
X76134952Y-105613523D01*
X76255904Y-105553047D01*
X76376857Y-105432095D01*
X76437333Y-105190190D01*
X76437333Y-104766857D01*
X76376857Y-104524952D01*
X76255904Y-104404000D01*
X76134952Y-104343523D01*
X75046380Y-105613523D02*
X75046380Y-104343523D01*
X74623047Y-105250666D01*
X74199714Y-104343523D01*
X74199714Y-105613523D01*
X73594952Y-104948285D02*
X73171619Y-104948285D01*
X72990190Y-105613523D02*
X73594952Y-105613523D01*
X73594952Y-104343523D01*
X72990190Y-104343523D01*
D28*
X142813193Y-129844800D02*
X142897860Y-129929466D01*
X143151860Y-130014133D01*
X143321193Y-130014133D01*
X143575193Y-129929466D01*
X143744526Y-129760133D01*
X143829193Y-129590800D01*
X143913860Y-129252133D01*
X143913860Y-128998133D01*
X143829193Y-128659466D01*
X143744526Y-128490133D01*
X143575193Y-128320800D01*
X143321193Y-128236133D01*
X143151860Y-128236133D01*
X142897860Y-128320800D01*
X142813193Y-128405466D01*
X141797193Y-130014133D02*
X141966526Y-129929466D01*
X142051193Y-129844800D01*
X142135860Y-129675466D01*
X142135860Y-129167466D01*
X142051193Y-128998133D01*
X141966526Y-128913466D01*
X141797193Y-128828800D01*
X141543193Y-128828800D01*
X141373860Y-128913466D01*
X141289193Y-128998133D01*
X141204526Y-129167466D01*
X141204526Y-129675466D01*
X141289193Y-129844800D01*
X141373860Y-129929466D01*
X141543193Y-130014133D01*
X141797193Y-130014133D01*
X140442526Y-130014133D02*
X140442526Y-128828800D01*
X140442526Y-128998133D02*
X140357860Y-128913466D01*
X140188526Y-128828800D01*
X139934526Y-128828800D01*
X139765193Y-128913466D01*
X139680526Y-129082800D01*
X139680526Y-130014133D01*
X139680526Y-129082800D02*
X139595860Y-128913466D01*
X139426526Y-128828800D01*
X139172526Y-128828800D01*
X139003193Y-128913466D01*
X138918526Y-129082800D01*
X138918526Y-130014133D01*
X138071860Y-128828800D02*
X138071860Y-130606800D01*
X138071860Y-128913466D02*
X137902526Y-128828800D01*
X137563860Y-128828800D01*
X137394526Y-128913466D01*
X137309860Y-128998133D01*
X137225193Y-129167466D01*
X137225193Y-129675466D01*
X137309860Y-129844800D01*
X137394526Y-129929466D01*
X137563860Y-130014133D01*
X137902526Y-130014133D01*
X138071860Y-129929466D01*
X136209193Y-130014133D02*
X136378526Y-129929466D01*
X136463193Y-129760133D01*
X136463193Y-128236133D01*
X135531860Y-130014133D02*
X135531860Y-128828800D01*
X135531860Y-128236133D02*
X135616526Y-128320800D01*
X135531860Y-128405466D01*
X135447193Y-128320800D01*
X135531860Y-128236133D01*
X135531860Y-128405466D01*
X133923193Y-130014133D02*
X133923193Y-129082800D01*
X134007860Y-128913466D01*
X134177193Y-128828800D01*
X134515860Y-128828800D01*
X134685193Y-128913466D01*
X133923193Y-129929466D02*
X134092526Y-130014133D01*
X134515860Y-130014133D01*
X134685193Y-129929466D01*
X134769860Y-129760133D01*
X134769860Y-129590800D01*
X134685193Y-129421466D01*
X134515860Y-129336800D01*
X134092526Y-129336800D01*
X133923193Y-129252133D01*
X133076526Y-128828800D02*
X133076526Y-130014133D01*
X133076526Y-128998133D02*
X132991860Y-128913466D01*
X132822526Y-128828800D01*
X132568526Y-128828800D01*
X132399193Y-128913466D01*
X132314526Y-129082800D01*
X132314526Y-130014133D01*
X131721860Y-128828800D02*
X131044526Y-128828800D01*
X131467860Y-128236133D02*
X131467860Y-129760133D01*
X131383193Y-129929466D01*
X131213860Y-130014133D01*
X131044526Y-130014133D01*
D18*
X142234634Y-126909081D02*
X142901300Y-125956700D01*
X143377491Y-126909081D02*
X143377491Y-124909081D01*
X142615586Y-124909081D01*
X142425110Y-125004320D01*
X142329872Y-125099558D01*
X142234634Y-125290034D01*
X142234634Y-125575748D01*
X142329872Y-125766224D01*
X142425110Y-125861462D01*
X142615586Y-125956700D01*
X143377491Y-125956700D01*
X141091777Y-126909081D02*
X141282253Y-126813843D01*
X141377491Y-126718605D01*
X141472729Y-126528129D01*
X141472729Y-125956700D01*
X141377491Y-125766224D01*
X141282253Y-125670986D01*
X141091777Y-125575748D01*
X140806062Y-125575748D01*
X140615586Y-125670986D01*
X140520348Y-125766224D01*
X140425110Y-125956700D01*
X140425110Y-126528129D01*
X140520348Y-126718605D01*
X140615586Y-126813843D01*
X140806062Y-126909081D01*
X141091777Y-126909081D01*
X139567967Y-126909081D02*
X139567967Y-124909081D01*
X139567967Y-125861462D02*
X138425110Y-125861462D01*
X138425110Y-126909081D02*
X138425110Y-124909081D01*
X137567967Y-126813843D02*
X137282253Y-126909081D01*
X136806062Y-126909081D01*
X136615586Y-126813843D01*
X136520348Y-126718605D01*
X136425110Y-126528129D01*
X136425110Y-126337653D01*
X136520348Y-126147177D01*
X136615586Y-126051939D01*
X136806062Y-125956700D01*
X137187015Y-125861462D01*
X137377491Y-125766224D01*
X137472729Y-125670986D01*
X137567967Y-125480510D01*
X137567967Y-125290034D01*
X137472729Y-125099558D01*
X137377491Y-125004320D01*
X137187015Y-124909081D01*
X136710824Y-124909081D01*
X136425110Y-125004320D01*
D11*
X86075068Y-110324327D02*
X86075068Y-108624327D01*
X85503640Y-108624327D01*
X85360782Y-108705280D01*
X85289354Y-108786232D01*
X85217925Y-108948137D01*
X85217925Y-109190994D01*
X85289354Y-109352899D01*
X85360782Y-109433851D01*
X85503640Y-109514803D01*
X86075068Y-109514803D01*
X84575068Y-110324327D02*
X84575068Y-108624327D01*
X84575068Y-109271946D02*
X84432211Y-109190994D01*
X84146497Y-109190994D01*
X84003640Y-109271946D01*
X83932211Y-109352899D01*
X83860782Y-109514803D01*
X83860782Y-110000518D01*
X83932211Y-110162422D01*
X84003640Y-110243375D01*
X84146497Y-110324327D01*
X84432211Y-110324327D01*
X84575068Y-110243375D01*
X107943298Y-130657379D02*
X108048060Y-130604998D01*
X108100440Y-130552617D01*
X108152821Y-130447855D01*
X108152821Y-130133569D01*
X108100440Y-130028807D01*
X108048060Y-129976426D01*
X107943298Y-129924045D01*
X107786155Y-129924045D01*
X107681393Y-129976426D01*
X107629012Y-130028807D01*
X107576631Y-130133569D01*
X107576631Y-130447855D01*
X107629012Y-130552617D01*
X107681393Y-130604998D01*
X107786155Y-130657379D01*
X107943298Y-130657379D01*
X107105202Y-129924045D02*
X107105202Y-131024045D01*
X107105202Y-129976426D02*
X107000440Y-129924045D01*
X106790917Y-129924045D01*
X106686155Y-129976426D01*
X106633774Y-130028807D01*
X106581393Y-130133569D01*
X106581393Y-130447855D01*
X106633774Y-130552617D01*
X106686155Y-130604998D01*
X106790917Y-130657379D01*
X107000440Y-130657379D01*
X107105202Y-130604998D01*
X105690917Y-130604998D02*
X105795679Y-130657379D01*
X106005202Y-130657379D01*
X106109964Y-130604998D01*
X106162345Y-130500236D01*
X106162345Y-130081188D01*
X106109964Y-129976426D01*
X106005202Y-129924045D01*
X105795679Y-129924045D01*
X105690917Y-129976426D01*
X105638536Y-130081188D01*
X105638536Y-130185950D01*
X106162345Y-130290712D01*
X105167107Y-129924045D02*
X105167107Y-130657379D01*
X105167107Y-130028807D02*
X105114726Y-129976426D01*
X105009964Y-129924045D01*
X104852821Y-129924045D01*
X104748060Y-129976426D01*
X104695679Y-130081188D01*
X104695679Y-130657379D01*
D29*
X103627797Y-130703580D02*
X103627797Y-129703580D01*
X103199225Y-130703580D02*
X103199225Y-130179771D01*
X103246844Y-130084533D01*
X103342082Y-130036914D01*
X103484940Y-130036914D01*
X103580178Y-130084533D01*
X103627797Y-130132152D01*
X102294463Y-130703580D02*
X102294463Y-130179771D01*
X102342082Y-130084533D01*
X102437320Y-130036914D01*
X102627797Y-130036914D01*
X102723035Y-130084533D01*
X102294463Y-130655961D02*
X102389701Y-130703580D01*
X102627797Y-130703580D01*
X102723035Y-130655961D01*
X102770654Y-130560723D01*
X102770654Y-130465485D01*
X102723035Y-130370247D01*
X102627797Y-130322628D01*
X102389701Y-130322628D01*
X102294463Y-130275009D01*
X101818273Y-130703580D02*
X101818273Y-130036914D01*
X101818273Y-130227390D02*
X101770654Y-130132152D01*
X101723035Y-130084533D01*
X101627797Y-130036914D01*
X101532559Y-130036914D01*
X100770654Y-130703580D02*
X100770654Y-129703580D01*
X100770654Y-130655961D02*
X100865892Y-130703580D01*
X101056368Y-130703580D01*
X101151606Y-130655961D01*
X101199225Y-130608342D01*
X101246844Y-130513104D01*
X101246844Y-130227390D01*
X101199225Y-130132152D01*
X101151606Y-130084533D01*
X101056368Y-130036914D01*
X100865892Y-130036914D01*
X100770654Y-130084533D01*
X100389701Y-130036914D02*
X100199225Y-130703580D01*
X100008749Y-130227390D01*
X99818273Y-130703580D01*
X99627797Y-130036914D01*
X98818273Y-130703580D02*
X98818273Y-130179771D01*
X98865892Y-130084533D01*
X98961130Y-130036914D01*
X99151606Y-130036914D01*
X99246844Y-130084533D01*
X98818273Y-130655961D02*
X98913511Y-130703580D01*
X99151606Y-130703580D01*
X99246844Y-130655961D01*
X99294463Y-130560723D01*
X99294463Y-130465485D01*
X99246844Y-130370247D01*
X99151606Y-130322628D01*
X98913511Y-130322628D01*
X98818273Y-130275009D01*
X98342082Y-130703580D02*
X98342082Y-130036914D01*
X98342082Y-130227390D02*
X98294463Y-130132152D01*
X98246844Y-130084533D01*
X98151606Y-130036914D01*
X98056368Y-130036914D01*
X97342082Y-130655961D02*
X97437320Y-130703580D01*
X97627797Y-130703580D01*
X97723035Y-130655961D01*
X97770654Y-130560723D01*
X97770654Y-130179771D01*
X97723035Y-130084533D01*
X97627797Y-130036914D01*
X97437320Y-130036914D01*
X97342082Y-130084533D01*
X97294463Y-130179771D01*
X97294463Y-130275009D01*
X97770654Y-130370247D01*
M02*
