G04 #@! TF.GenerationSoftware,KiCad,Pcbnew,5.1.0-rc2-unknown-036be7d~80~ubuntu16.04.1*
G04 #@! TF.CreationDate,2022-11-30T14:58:32+02:00*
G04 #@! TF.ProjectId,AgonLight2_Rev_A,41676f6e-4c69-4676-9874-325f5265765f,rev?*
G04 #@! TF.SameCoordinates,Original*
G04 #@! TF.FileFunction,Legend,Bot*
G04 #@! TF.FilePolarity,Positive*
%FSLAX46Y46*%
G04 Gerber Fmt 4.6, Leading zero omitted, Abs format (unit mm)*
G04 Created by KiCad (PCBNEW 5.1.0-rc2-unknown-036be7d~80~ubuntu16.04.1) date 2022-11-30 14:58:32*
%MOMM*%
%LPD*%
G04 APERTURE LIST*
%ADD10C,0.381000*%
%ADD11C,0.100000*%
%ADD12C,0.700000*%
%ADD13C,0.400000*%
%ADD14C,0.500000*%
%ADD15C,0.254000*%
%ADD16C,0.508000*%
%ADD17C,0.127000*%
%ADD18C,0.150000*%
%ADD19C,0.200000*%
%ADD20C,0.370000*%
%ADD21C,1.000000*%
%ADD22C,0.380000*%
%ADD23C,0.420000*%
%ADD24C,0.300000*%
%ADD25C,0.350000*%
%ADD26C,0.180000*%
G04 APERTURE END LIST*
D10*
X146285857Y-110671428D02*
X145995571Y-111687428D01*
X145705285Y-110961714D01*
X145415000Y-111687428D01*
X145124714Y-110671428D01*
X144689285Y-110671428D02*
X144399000Y-111687428D01*
X144108714Y-110961714D01*
X143818428Y-111687428D01*
X143528142Y-110671428D01*
X143092714Y-110671428D02*
X142802428Y-111687428D01*
X142512142Y-110961714D01*
X142221857Y-111687428D01*
X141931571Y-110671428D01*
X141351000Y-111542285D02*
X141278428Y-111614857D01*
X141351000Y-111687428D01*
X141423571Y-111614857D01*
X141351000Y-111542285D01*
X141351000Y-111687428D01*
X140407571Y-111687428D02*
X140552714Y-111614857D01*
X140625285Y-111542285D01*
X140697857Y-111397142D01*
X140697857Y-110961714D01*
X140625285Y-110816571D01*
X140552714Y-110744000D01*
X140407571Y-110671428D01*
X140189857Y-110671428D01*
X140044714Y-110744000D01*
X139972142Y-110816571D01*
X139899571Y-110961714D01*
X139899571Y-111397142D01*
X139972142Y-111542285D01*
X140044714Y-111614857D01*
X140189857Y-111687428D01*
X140407571Y-111687428D01*
X139028714Y-111687428D02*
X139173857Y-111614857D01*
X139246428Y-111469714D01*
X139246428Y-110163428D01*
X138448142Y-111687428D02*
X138448142Y-110671428D01*
X138448142Y-110163428D02*
X138520714Y-110236000D01*
X138448142Y-110308571D01*
X138375571Y-110236000D01*
X138448142Y-110163428D01*
X138448142Y-110308571D01*
X137722428Y-111687428D02*
X137722428Y-110671428D01*
X137722428Y-110816571D02*
X137649857Y-110744000D01*
X137504714Y-110671428D01*
X137287000Y-110671428D01*
X137141857Y-110744000D01*
X137069285Y-110889142D01*
X137069285Y-111687428D01*
X137069285Y-110889142D02*
X136996714Y-110744000D01*
X136851571Y-110671428D01*
X136633857Y-110671428D01*
X136488714Y-110744000D01*
X136416142Y-110889142D01*
X136416142Y-111687428D01*
X135109857Y-111614857D02*
X135255000Y-111687428D01*
X135545285Y-111687428D01*
X135690428Y-111614857D01*
X135763000Y-111469714D01*
X135763000Y-110889142D01*
X135690428Y-110744000D01*
X135545285Y-110671428D01*
X135255000Y-110671428D01*
X135109857Y-110744000D01*
X135037285Y-110889142D01*
X135037285Y-111034285D01*
X135763000Y-111179428D01*
X134529285Y-111687428D02*
X133731000Y-110671428D01*
X134529285Y-110671428D02*
X133731000Y-111687428D01*
X133150428Y-111542285D02*
X133077857Y-111614857D01*
X133150428Y-111687428D01*
X133223000Y-111614857D01*
X133150428Y-111542285D01*
X133150428Y-111687428D01*
X131771571Y-111614857D02*
X131916714Y-111687428D01*
X132207000Y-111687428D01*
X132352142Y-111614857D01*
X132424714Y-111542285D01*
X132497285Y-111397142D01*
X132497285Y-110961714D01*
X132424714Y-110816571D01*
X132352142Y-110744000D01*
X132207000Y-110671428D01*
X131916714Y-110671428D01*
X131771571Y-110744000D01*
X130900714Y-111687428D02*
X131045857Y-111614857D01*
X131118428Y-111542285D01*
X131191000Y-111397142D01*
X131191000Y-110961714D01*
X131118428Y-110816571D01*
X131045857Y-110744000D01*
X130900714Y-110671428D01*
X130683000Y-110671428D01*
X130537857Y-110744000D01*
X130465285Y-110816571D01*
X130392714Y-110961714D01*
X130392714Y-111397142D01*
X130465285Y-111542285D01*
X130537857Y-111614857D01*
X130683000Y-111687428D01*
X130900714Y-111687428D01*
X129739571Y-111687428D02*
X129739571Y-110671428D01*
X129739571Y-110816571D02*
X129667000Y-110744000D01*
X129521857Y-110671428D01*
X129304142Y-110671428D01*
X129159000Y-110744000D01*
X129086428Y-110889142D01*
X129086428Y-111687428D01*
X129086428Y-110889142D02*
X129013857Y-110744000D01*
X128868714Y-110671428D01*
X128651000Y-110671428D01*
X128505857Y-110744000D01*
X128433285Y-110889142D01*
X128433285Y-111687428D01*
D11*
X133489700Y-104343200D02*
X132118100Y-104343200D01*
X132118100Y-104343200D02*
X132067300Y-104343200D01*
X132067300Y-104343200D02*
X130810000Y-105587800D01*
X135013700Y-104457500D02*
X134912100Y-104457500D01*
X134861300Y-104394000D02*
X134861300Y-104381300D01*
X134861300Y-104381300D02*
X136156700Y-104381300D01*
X136156700Y-104381300D02*
X136182100Y-104381300D01*
X136182100Y-104381300D02*
X136804400Y-104876600D01*
X134861300Y-107403900D02*
X134861300Y-104394000D01*
X138518900Y-104444800D02*
X138595100Y-104444800D01*
X138671300Y-104381300D02*
X137426700Y-104381300D01*
X137426700Y-104381300D02*
X136842500Y-104863900D01*
X138671300Y-107378500D02*
X138671300Y-104394000D01*
X139407900Y-106972100D02*
X139319000Y-106972100D01*
X139750800Y-106972100D02*
X139814300Y-106972100D01*
X139890500Y-107035600D02*
X139280900Y-107035600D01*
X139280900Y-107035600D02*
X139255500Y-107035600D01*
X139255500Y-107035600D02*
X139255500Y-105016300D01*
X139890500Y-105016300D02*
X139890500Y-107035600D01*
X141389100Y-104406700D02*
X141274800Y-104406700D01*
X141516100Y-104330500D02*
X141211300Y-104330500D01*
X141211300Y-104330500D02*
X141211300Y-107365800D01*
X141693900Y-104419400D02*
X141757400Y-104406700D01*
X141808200Y-104330500D02*
X141820900Y-104330500D01*
X141820900Y-104330500D02*
X141833600Y-104330500D01*
X141833600Y-104330500D02*
X141833600Y-107480100D01*
X141528800Y-104330500D02*
X141808200Y-104330500D01*
D12*
X141528800Y-107403900D02*
X141528800Y-104673400D01*
X135191500Y-104686100D02*
X135191500Y-107289600D01*
X143306800Y-104673400D02*
X144310100Y-104673400D01*
X142684500Y-105283000D02*
X142684500Y-107213400D01*
X144907000Y-105321100D02*
X144907000Y-105562400D01*
X144907000Y-107289600D02*
X144322800Y-107861100D01*
X144894300Y-107302300D02*
X144894300Y-106540300D01*
X144335500Y-107861100D02*
X143294100Y-107861100D01*
D13*
X132566659Y-106248200D02*
G75*
G03X132566659Y-106248200I-359659J0D01*
G01*
D12*
X132715000Y-106248200D02*
X133934200Y-106248200D01*
D13*
X129632735Y-104508300D02*
G75*
G03X129632735Y-104508300I-359435J0D01*
G01*
D12*
X129641600Y-104863900D02*
X130505200Y-105757600D01*
D14*
X131064000Y-105854500D02*
X130505200Y-105854500D01*
D12*
X132181600Y-104673400D02*
X131089400Y-105740200D01*
X133403500Y-104673400D02*
X132181600Y-104673400D01*
X133934200Y-105156000D02*
X133451600Y-104648000D01*
X133934200Y-105181400D02*
X133934200Y-107416600D01*
X133934200Y-107416600D02*
X133502400Y-107848400D01*
X133502400Y-107848400D02*
X132181600Y-107848400D01*
X132181600Y-107848400D02*
X131038600Y-106730800D01*
D14*
X131038600Y-106629200D02*
X130505200Y-106629200D01*
D12*
X129692400Y-107543600D02*
X130530600Y-106730800D01*
D13*
X129691666Y-107899200D02*
G75*
G03X129691666Y-107899200I-329466J0D01*
G01*
X135554729Y-107810300D02*
G75*
G03X135554729Y-107810300I-363229J0D01*
G01*
D12*
X136093200Y-104698800D02*
X135204200Y-104698800D01*
D13*
X137175318Y-106527600D02*
G75*
G03X137175318Y-106527600I-370918J0D01*
G01*
D12*
X136728200Y-105206800D02*
X136093200Y-104698800D01*
X136804400Y-105994200D02*
X136804400Y-105283000D01*
X137515600Y-104698800D02*
X136906000Y-105206800D01*
X138353800Y-104698800D02*
X137515600Y-104698800D01*
X138353800Y-107289600D02*
X138353800Y-104698800D01*
D13*
X138700759Y-107797600D02*
G75*
G03X138700759Y-107797600I-359659J0D01*
G01*
X139933818Y-104597200D02*
G75*
G03X139933818Y-104597200I-373518J0D01*
G01*
D12*
X139573000Y-105130600D02*
X139573000Y-106730800D01*
D13*
X139939324Y-107823000D02*
G75*
G03X139939324Y-107823000I-366324J0D01*
G01*
D12*
X140085800Y-107848400D02*
X141071600Y-107848400D01*
X141071600Y-107848400D02*
X141528800Y-107391200D01*
X142697200Y-107251500D02*
X143256000Y-107835700D01*
X143306800Y-104686100D02*
X142671800Y-105295700D01*
X144907000Y-105270300D02*
X144399000Y-104762300D01*
D13*
X145231747Y-106045000D02*
G75*
G03X145231747Y-106045000I-337447J0D01*
G01*
D15*
X128904556Y-126643371D02*
G75*
G02X128651000Y-127254000I-865696J1511D01*
G01*
X127458020Y-125148180D02*
G75*
G02X127965200Y-126179580I-991420J-1127920D01*
G01*
X128375340Y-127284046D02*
G75*
G02X127965200Y-126187200I1118940J1043506D01*
G01*
X128652788Y-127382791D02*
G75*
G02X128348740Y-127256540I752J431051D01*
G01*
X128086340Y-127376613D02*
G75*
G02X127584200Y-126580900I709440J1003993D01*
G01*
X127204795Y-125242066D02*
G75*
G02X127558800Y-126232920I-1408755J-1061974D01*
G01*
X127737927Y-127382303D02*
G75*
G02X127538480Y-127358140I-1327J824263D01*
G01*
X127536497Y-127357453D02*
G75*
G02X126956820Y-127083820I205183J1185493D01*
G01*
X126932946Y-127061974D02*
G75*
G02X126619000Y-126304040I757934J757934D01*
G01*
X126619283Y-126304487D02*
G75*
G02X126690120Y-125935740I992857J447D01*
G01*
X126754148Y-125001136D02*
G75*
G02X126690120Y-125935740I-1478808J-368184D01*
G01*
X128056000Y-125022511D02*
G75*
G02X128778000Y-125666500I-601340J-1400909D01*
G01*
X128831794Y-125762321D02*
G75*
G02X129032000Y-126517400I-1323794J-755079D01*
G01*
X129033874Y-126517901D02*
G75*
G02X128948180Y-126961900I-1195674J501D01*
G01*
X129077720Y-127636612D02*
G75*
G02X128785620Y-127515620I0J413092D01*
G01*
X129435134Y-127486954D02*
G75*
G02X129077720Y-127635000I-357414J357414D01*
G01*
X129808258Y-127652710D02*
G75*
G02X129540000Y-127000000I653762J650170D01*
G01*
X130045978Y-128270280D02*
G75*
G02X129540000Y-127045720I1228842J1224560D01*
G01*
X133610379Y-123731186D02*
G75*
G02X132267960Y-123946920I-1812319J6992786D01*
G01*
X130486130Y-124520934D02*
G75*
G02X131749800Y-124020580I2134890J-3545866D01*
G01*
X129419641Y-125598765D02*
G75*
G02X130474720Y-124528580I3831299J-2722035D01*
G01*
X129539155Y-126873069D02*
G75*
G02X129659380Y-125935740I762845J378529D01*
G01*
X129830473Y-125747156D02*
G75*
G02X132384800Y-124477780I3654147J-4148444D01*
G01*
X134721541Y-123666778D02*
G75*
G02X132694680Y-124416820I-2631381J3997218D01*
G01*
X129987549Y-127958559D02*
G75*
G02X129540000Y-126873000I1086611J1083019D01*
G01*
X129413760Y-125221243D02*
G75*
G02X129473960Y-124543820I3049780J70363D01*
G01*
X129620736Y-123940585D02*
G75*
G02X131671060Y-122428000I2144304J-760715D01*
G01*
X135534952Y-122283522D02*
G75*
G02X133819900Y-122623580I-1268012J1900222D01*
G01*
X133508933Y-126207013D02*
G75*
G02X131643120Y-126873000I-1738813J1924813D01*
G01*
X135529464Y-123787447D02*
G75*
G02X133548120Y-126169420I-8344044J4925607D01*
G01*
X129816860Y-126596140D02*
G75*
G02X130535680Y-126598680I358140J-360680D01*
G01*
X131127500Y-126875066D02*
G75*
G02X130589020Y-126652020I0J761526D01*
G01*
X131445000Y-130683000D02*
G75*
G02X129921000Y-129159000I0J1524000D01*
G01*
X144780000Y-129159000D02*
G75*
G02X143256000Y-130683000I-1524000J0D01*
G01*
X143256000Y-127635000D02*
G75*
G02X144780000Y-129159000I0J-1524000D01*
G01*
X129921000Y-129159000D02*
G75*
G02X131445000Y-127635000I1524000J0D01*
G01*
X131445000Y-127635000D02*
X143256000Y-127635000D01*
X143256000Y-130683000D02*
X131445000Y-130683000D01*
X130589020Y-126652020D02*
X130535680Y-126598680D01*
X129816860Y-126598680D02*
X129540000Y-126873000D01*
X136398000Y-121666000D02*
X135531860Y-123781820D01*
X133548120Y-126169420D02*
X133512560Y-126204980D01*
X131643120Y-126873000D02*
X131127500Y-126873000D01*
X136398000Y-121666000D02*
X135536940Y-122285760D01*
X133819900Y-122623580D02*
X131671060Y-122428000D01*
X129621280Y-123944380D02*
X129473960Y-124543820D01*
X129415540Y-125222000D02*
X129415540Y-125603000D01*
X129517140Y-126827280D02*
X129540000Y-126873000D01*
X130175000Y-128143000D02*
X129989580Y-127957580D01*
X135003540Y-123317000D02*
X134721600Y-123664980D01*
X132694680Y-124416820D02*
X132384800Y-124477780D01*
X129829560Y-125747780D02*
X129659380Y-125935740D01*
X129415540Y-125603000D02*
X129418080Y-125600460D01*
X130474720Y-124528580D02*
X130482340Y-124523500D01*
X131749800Y-124020580D02*
X132267960Y-123946920D01*
X133616700Y-123731020D02*
X135003540Y-123317000D01*
X130175000Y-128270000D02*
X129667000Y-127508000D01*
X129540000Y-127045720D02*
X129540000Y-127000000D01*
X130302000Y-128143000D02*
X129811780Y-127652780D01*
X129540000Y-127381000D02*
X129435860Y-127487680D01*
X128785620Y-127515620D02*
X128651000Y-127381000D01*
X128651000Y-127381000D02*
X128948180Y-126961900D01*
X128831340Y-125760480D02*
X128778000Y-125666500D01*
X128056640Y-125021340D02*
X127635000Y-124841000D01*
X127635000Y-124841000D02*
X126619000Y-124460000D01*
X126619000Y-124460000D02*
X126753620Y-124998480D01*
X126933960Y-127060960D02*
X126956820Y-127083820D01*
X127736600Y-127381000D02*
X128092200Y-127381000D01*
X128638300Y-127381000D02*
X128651000Y-127381000D01*
X127558800Y-126189740D02*
X127584200Y-126580900D01*
X136017000Y-122174000D02*
X135003540Y-122811540D01*
D16*
X135003540Y-122811540D02*
X133858000Y-122811540D01*
X133858000Y-122811540D02*
X132842000Y-122682000D01*
X132842000Y-122682000D02*
X131191000Y-122682000D01*
X131191000Y-122682000D02*
X130556000Y-123063000D01*
X130556000Y-123063000D02*
X130048000Y-123571000D01*
X130048000Y-123571000D02*
X129794000Y-124079000D01*
X129794000Y-124079000D02*
X129667000Y-125095000D01*
X129667000Y-125095000D02*
X130175000Y-124460000D01*
X130175000Y-124460000D02*
X130810000Y-124079000D01*
X130810000Y-124079000D02*
X130556000Y-123571000D01*
X130556000Y-123571000D02*
X130175000Y-124079000D01*
X130937000Y-124079000D02*
X131572000Y-123698000D01*
X131572000Y-123698000D02*
X132080000Y-123698000D01*
X132080000Y-123698000D02*
X132207000Y-123698000D01*
X132207000Y-123698000D02*
X133350000Y-123571000D01*
X133350000Y-123571000D02*
X134620000Y-123190000D01*
X134620000Y-123190000D02*
X135128000Y-123063000D01*
X135128000Y-123063000D02*
X130556000Y-123063000D01*
X130556000Y-123063000D02*
X130556000Y-123317000D01*
X130556000Y-123571000D02*
X130556000Y-123317000D01*
X130556000Y-123317000D02*
X135509000Y-123240800D01*
X130429000Y-123698000D02*
X132080000Y-123698000D01*
X136017000Y-122174000D02*
X135509000Y-123063000D01*
X135509000Y-123063000D02*
X135382000Y-123571000D01*
X135382000Y-123571000D02*
X135003540Y-124079000D01*
X135003540Y-124079000D02*
X135003540Y-123698000D01*
X135003540Y-123698000D02*
X135382000Y-122811540D01*
X134874000Y-124206000D02*
X134493000Y-124714000D01*
X134493000Y-124714000D02*
X134239000Y-125095000D01*
X134239000Y-125095000D02*
X133350000Y-125984000D01*
X133350000Y-125984000D02*
X132842000Y-126365000D01*
X132842000Y-126365000D02*
X131953000Y-126619000D01*
X131953000Y-126619000D02*
X131064000Y-126619000D01*
X131064000Y-126619000D02*
X130302000Y-126111000D01*
X130302000Y-126111000D02*
X129921000Y-126238000D01*
X129921000Y-126238000D02*
X129667000Y-126492000D01*
X129667000Y-126492000D02*
X129921000Y-125984000D01*
X129921000Y-125984000D02*
X130429000Y-125476000D01*
X130429000Y-125476000D02*
X131114800Y-125069600D01*
X131114800Y-125069600D02*
X132511800Y-124587000D01*
X132511800Y-124587000D02*
X133121400Y-124587000D01*
X133121400Y-124587000D02*
X133858000Y-124333000D01*
X133858000Y-124333000D02*
X134620000Y-123952000D01*
X134493000Y-124333000D02*
X133731000Y-124968000D01*
X133731000Y-124968000D02*
X133604000Y-124841000D01*
X133604000Y-124841000D02*
X133477000Y-124841000D01*
X133477000Y-124841000D02*
X132334000Y-124968000D01*
X132334000Y-124968000D02*
X131318000Y-125222000D01*
X131318000Y-125222000D02*
X130683000Y-125730000D01*
X130683000Y-125730000D02*
X130556000Y-125857000D01*
X130556000Y-125857000D02*
X130683000Y-126111000D01*
X130683000Y-126111000D02*
X130937000Y-126111000D01*
X130937000Y-126111000D02*
X131318000Y-126238000D01*
X131318000Y-126238000D02*
X131953000Y-126238000D01*
X131953000Y-126238000D02*
X132334000Y-126111000D01*
X132334000Y-126111000D02*
X132842000Y-125984000D01*
X132842000Y-125984000D02*
X133477000Y-125476000D01*
X133477000Y-125476000D02*
X133604000Y-125349000D01*
X133604000Y-125349000D02*
X133477000Y-125222000D01*
X133477000Y-125222000D02*
X132969000Y-125222000D01*
X132969000Y-125222000D02*
X131953000Y-125476000D01*
X131953000Y-125476000D02*
X131699000Y-125476000D01*
X131699000Y-125476000D02*
X131191000Y-125730000D01*
X131191000Y-125730000D02*
X131191000Y-125857000D01*
X131191000Y-125857000D02*
X131318000Y-125984000D01*
X131318000Y-125984000D02*
X131699000Y-125857000D01*
X131699000Y-125857000D02*
X132969000Y-125603000D01*
D15*
X128348740Y-127256540D02*
X128376680Y-127284480D01*
X127965200Y-126187200D02*
X127965200Y-126179580D01*
X128905000Y-126641860D02*
X128905000Y-126619000D01*
X128905000Y-126619000D02*
X128905000Y-126365000D01*
X128905000Y-126365000D02*
X128778000Y-126365000D01*
X128778000Y-126365000D02*
X128651000Y-126365000D01*
X128651000Y-126365000D02*
X128651000Y-127000000D01*
X128778000Y-126365000D02*
X128778000Y-126492000D01*
X128778000Y-126492000D02*
X128778000Y-126873000D01*
X128778000Y-126873000D02*
X128778000Y-127000000D01*
X128778000Y-127000000D02*
X128778000Y-127127000D01*
X128651000Y-126365000D02*
X128270000Y-126365000D01*
X128270000Y-126365000D02*
X128016000Y-126365000D01*
X128016000Y-126365000D02*
X128524000Y-127254000D01*
X128270000Y-126365000D02*
X128270000Y-126873000D01*
X128778000Y-126492000D02*
X128143000Y-126492000D01*
X128905000Y-126619000D02*
X128143000Y-126619000D01*
X128905000Y-126746000D02*
X128143000Y-126746000D01*
X128778000Y-126873000D02*
X128143000Y-126873000D01*
X128778000Y-127000000D02*
X128270000Y-127000000D01*
X128016000Y-126238000D02*
X128905000Y-126238000D01*
X128016000Y-126111000D02*
X128905000Y-126111000D01*
X128016000Y-125984000D02*
X128778000Y-125984000D01*
X128016000Y-125857000D02*
X128778000Y-125857000D01*
X127889000Y-125730000D02*
X128778000Y-125730000D01*
X127889000Y-125603000D02*
X128651000Y-125603000D01*
X127762000Y-125476000D02*
X128524000Y-125476000D01*
X127762000Y-125349000D02*
X128397000Y-125349000D01*
X127635000Y-125222000D02*
X128143000Y-125222000D01*
X126873000Y-125095000D02*
X127000000Y-125095000D01*
X127000000Y-125095000D02*
X127127000Y-125095000D01*
X127127000Y-125095000D02*
X128016000Y-125095000D01*
X127635000Y-124968000D02*
X126873000Y-124968000D01*
X127381000Y-124841000D02*
X126746000Y-124841000D01*
X127254000Y-124714000D02*
X126746000Y-124714000D01*
X127127000Y-125095000D02*
X127127000Y-125603000D01*
X127000000Y-125095000D02*
X127000000Y-125603000D01*
X127381000Y-125603000D02*
X126873000Y-125603000D01*
X127381000Y-125730000D02*
X126873000Y-125730000D01*
X127508000Y-125857000D02*
X126873000Y-125857000D01*
X127508000Y-125984000D02*
X126746000Y-125984000D01*
X127508000Y-126111000D02*
X126746000Y-126111000D01*
X127508000Y-126238000D02*
X126746000Y-126238000D01*
X127508000Y-126365000D02*
X126746000Y-126365000D01*
X127508000Y-126492000D02*
X126746000Y-126492000D01*
X127508000Y-126619000D02*
X126746000Y-126619000D01*
X127584200Y-126746000D02*
X126746000Y-126746000D01*
X127635000Y-126873000D02*
X126873000Y-126873000D01*
X127635000Y-127000000D02*
X127000000Y-127000000D01*
X127762000Y-127127000D02*
X127127000Y-127127000D01*
X127889000Y-127254000D02*
X127381000Y-127254000D01*
X82169000Y-125349000D02*
G75*
G02X84455000Y-125349000I1143000J-1143000D01*
G01*
D17*
X82423000Y-128651000D02*
G75*
G03X82423000Y-128651000I-127000J0D01*
G01*
D15*
X83439000Y-124587000D02*
X83439000Y-124714000D01*
X83439000Y-124714000D02*
X83058000Y-124714000D01*
X83058000Y-124714000D02*
X83058000Y-124587000D01*
X83058000Y-124587000D02*
X83439000Y-124587000D01*
X83312000Y-126111000D02*
X82677000Y-126111000D01*
X83439000Y-125984000D02*
X82550000Y-125984000D01*
X82550000Y-125984000D02*
X82550000Y-126365000D01*
X82550000Y-126365000D02*
X83439000Y-126365000D01*
X83439000Y-126365000D02*
X83439000Y-125984000D01*
X82042000Y-125984000D02*
X82042000Y-125603000D01*
X82042000Y-125603000D02*
X81915000Y-125603000D01*
X81915000Y-125603000D02*
X81915000Y-125984000D01*
X82042000Y-125603000D02*
X82042000Y-125730000D01*
X82042000Y-125476000D02*
X81915000Y-125857000D01*
X82042000Y-125603000D02*
X82042000Y-125730000D01*
X82169000Y-125476000D02*
X82169000Y-125984000D01*
X82169000Y-125984000D02*
X81788000Y-125984000D01*
X81788000Y-125984000D02*
X81788000Y-125476000D01*
X84201000Y-125349000D02*
X84201000Y-124841000D01*
X84201000Y-124841000D02*
X84074000Y-124841000D01*
X84074000Y-124841000D02*
X84074000Y-125349000D01*
X82697609Y-128651000D02*
G75*
G03X82697609Y-128651000I-401609J0D01*
G01*
X82296000Y-128143000D02*
X82169000Y-126111000D01*
X84201000Y-128651000D02*
X84201000Y-129032000D01*
X84201000Y-129032000D02*
X83693000Y-129032000D01*
X83693000Y-129032000D02*
X83693000Y-128778000D01*
X84709000Y-125476000D02*
X81788000Y-125476000D01*
X84201000Y-128651000D02*
X84455000Y-125603000D01*
X84201000Y-128651000D02*
X82804000Y-128651000D01*
X85217000Y-129032000D02*
X81153000Y-125095000D01*
X85344000Y-124968000D02*
X81153000Y-129159000D01*
D18*
X85499200Y-130404400D02*
X81079600Y-130404400D01*
X81079600Y-130302800D02*
X85448400Y-130302800D01*
X85499200Y-130099600D02*
X81028800Y-130099600D01*
X85499200Y-129947200D02*
X81079600Y-129947200D01*
X81028800Y-130201200D02*
X85448400Y-130201200D01*
X81028800Y-130048800D02*
X85448400Y-130048800D01*
X85499200Y-129896400D02*
X81028800Y-129896400D01*
X81028800Y-129794800D02*
X85448400Y-129794800D01*
X80978000Y-130506000D02*
X85550000Y-130506000D01*
X85550000Y-130506000D02*
X85550000Y-129744000D01*
X85550000Y-129744000D02*
X80978000Y-129744000D01*
X80978000Y-129744000D02*
X80978000Y-130506000D01*
D19*
X81821020Y-110698280D02*
X84254340Y-108277660D01*
D15*
X84784037Y-109534960D02*
G75*
G03X84784037Y-109534960I-1802237J0D01*
G01*
D20*
X102328980Y-127000000D02*
G75*
G02X101958140Y-125135640I746760J1117600D01*
G01*
X101947980Y-125150880D02*
G75*
G02X103873300Y-124952760I1061720J-863600D01*
G01*
X103898700Y-124978160D02*
G75*
G02X103822500Y-126832360I-965200J-889000D01*
G01*
D21*
X101833680Y-127050800D02*
X101500940Y-127782320D01*
X101833680Y-127142240D02*
X100652580Y-128155700D01*
X101719380Y-127005080D02*
X101102160Y-127332740D01*
X101399340Y-126585980D02*
X100789740Y-126692660D01*
X100563680Y-125427740D02*
X101285040Y-125575060D01*
X100804980Y-124734320D02*
X101460300Y-125100080D01*
X101673660Y-123865640D02*
X102092760Y-124452380D01*
X102260400Y-123614180D02*
X102481380Y-124299980D01*
X103525320Y-123598940D02*
X103357680Y-124208540D01*
X103959660Y-123858020D02*
X103784400Y-124216160D01*
X104957880Y-124635260D02*
X104500680Y-124924820D01*
X105133140Y-125115320D02*
X104691180Y-125275340D01*
X105458260Y-126359920D02*
X104752140Y-126232920D01*
X105209340Y-127005080D02*
X104645460Y-126525020D01*
X104543860Y-127904240D02*
X104178100Y-127142240D01*
X99753420Y-125851920D02*
X101221540Y-125938280D01*
X100744020Y-123667520D02*
X101856540Y-124734320D01*
X103009700Y-122610880D02*
X103004620Y-124124720D01*
X105270300Y-123586240D02*
X104208580Y-124693680D01*
X106255820Y-125872240D02*
X104838500Y-125811280D01*
X105219500Y-128076960D02*
X104366060Y-127055880D01*
D18*
X104203500Y-126646940D02*
X103896160Y-126913640D01*
X104533700Y-123733560D02*
X103550720Y-123240800D01*
X102354380Y-127238760D02*
X102476300Y-126954280D01*
X102217220Y-126784100D02*
X102471220Y-126949200D01*
X103718360Y-126781560D02*
X103492300Y-126956820D01*
X104086660Y-126667260D02*
X103827580Y-127005080D01*
X104310180Y-126446280D02*
X104216200Y-126616460D01*
X104310180Y-126446280D02*
X104216200Y-126616460D01*
X104447340Y-125592840D02*
X104315260Y-126415800D01*
X104023160Y-124856240D02*
X104442260Y-125587760D01*
X103151940Y-124426980D02*
X104023160Y-124856240D01*
X102336600Y-124594620D02*
X103151940Y-124434600D01*
X101826060Y-125023880D02*
X102336600Y-124594620D01*
X101592380Y-125696980D02*
X101826060Y-125023880D01*
X101597460Y-126202440D02*
X101597460Y-125684280D01*
X101973380Y-126913640D02*
X101597460Y-126202440D01*
X102151180Y-127035560D02*
X101973380Y-126913640D01*
X105422700Y-123014740D02*
X104538780Y-123736100D01*
X105178860Y-124368560D02*
X105780840Y-123459240D01*
X105183940Y-124363480D02*
X105570020Y-125361700D01*
X106713020Y-125630940D02*
X105597960Y-125384560D01*
X106570780Y-125575060D02*
X106570780Y-126225300D01*
X102194360Y-126977140D02*
X101666040Y-128358900D01*
X101803200Y-128656080D02*
X102189280Y-127675640D01*
X101274880Y-128328420D02*
X101803200Y-128656080D01*
X100591620Y-128661160D02*
X101412040Y-128132840D01*
X101455220Y-128356360D02*
X100578920Y-128976120D01*
X100568760Y-128971040D02*
X99885500Y-128280160D01*
X100172520Y-128196340D02*
X100657660Y-128727200D01*
X100139500Y-126560580D02*
X100520500Y-127541020D01*
X100243640Y-126593600D02*
X99120960Y-126382780D01*
X99105720Y-125404880D02*
X99108260Y-126362460D01*
X99189540Y-126146560D02*
X100296980Y-126370080D01*
X100492560Y-124376180D02*
X100126800Y-125244860D01*
X99877880Y-123494800D02*
X100581460Y-124485400D01*
X100576380Y-122796300D02*
X99882960Y-123487180D01*
X101592380Y-123471940D02*
X100581460Y-122798840D01*
X102278180Y-123085860D02*
X101473000Y-123423680D01*
X102494080Y-121996200D02*
X102268020Y-123167140D01*
X103459280Y-121996200D02*
X102494080Y-121996200D01*
X103469440Y-122003820D02*
X103670100Y-123029980D01*
X104457500Y-123398280D02*
X103553260Y-123019820D01*
X105392220Y-122750580D02*
X104421940Y-123466860D01*
X106078020Y-123466860D02*
X105404920Y-122753120D01*
X106057700Y-123502420D02*
X105463340Y-124355860D01*
X105796080Y-125186440D02*
X105460800Y-124353320D01*
X106865420Y-125384560D02*
X105694480Y-125181360D01*
X106862880Y-125387100D02*
X106862880Y-126372620D01*
X106862880Y-126380240D02*
X105791000Y-126575820D01*
X106100880Y-128287780D02*
X105503980Y-127424180D01*
X105371900Y-128983740D02*
X106093260Y-128290320D01*
X104538780Y-128412240D02*
X105364280Y-128976120D01*
X104526080Y-128422400D02*
X104180640Y-128643380D01*
X104142540Y-128625600D02*
X103492300Y-126956820D01*
D20*
X100576380Y-128816100D02*
X100022660Y-128270000D01*
X100642420Y-127375920D02*
X100022660Y-128262380D01*
X101765100Y-128442720D02*
X102339140Y-127002540D01*
X101427280Y-128257300D02*
X101765100Y-128442720D01*
X100591620Y-128823720D02*
X101427280Y-128257300D01*
X100236020Y-126464060D02*
X100642420Y-127375920D01*
X99222560Y-126293880D02*
X100236020Y-126464060D01*
X99222560Y-125458220D02*
X99222560Y-126293880D01*
X100304600Y-125229620D02*
X99222560Y-125458220D01*
X100644960Y-124292360D02*
X100304600Y-125229620D01*
X100027740Y-123502420D02*
X100644960Y-124292360D01*
X100581460Y-122953780D02*
X100027740Y-123499880D01*
X101485700Y-123586240D02*
X100581460Y-122951800D01*
X102400100Y-123141740D02*
X101498400Y-123591320D01*
X102613460Y-122123200D02*
X102400100Y-123141740D01*
X103380540Y-122102880D02*
X102595680Y-122102880D01*
X103372920Y-122115580D02*
X103578660Y-123129040D01*
X104477820Y-123555760D02*
X103632000Y-123149360D01*
X105366820Y-122913140D02*
X104538780Y-123565920D01*
D22*
X105915460Y-123471940D02*
X105415080Y-122938540D01*
D20*
X105905300Y-123494800D02*
X105349040Y-124345700D01*
X105676700Y-125262640D02*
X105328720Y-124396500D01*
X106725720Y-125478540D02*
X105707180Y-125298200D01*
D22*
X106713020Y-125491240D02*
X106718100Y-126278640D01*
D20*
X106723180Y-126268480D02*
X105773220Y-126486920D01*
X105745280Y-126509780D02*
X105387140Y-127393700D01*
X105920540Y-128270000D02*
X105387140Y-127436880D01*
D22*
X105935780Y-128270000D02*
X105371900Y-128808480D01*
D13*
X105359200Y-128808480D02*
X104579420Y-128277620D01*
D20*
X104569260Y-128259840D02*
X104251760Y-128465580D01*
D23*
X104223820Y-128445260D02*
X103672640Y-127022860D01*
D15*
X119126000Y-110109000D02*
G75*
G02X119253000Y-110236000I0J-127000D01*
G01*
X118999000Y-110172500D02*
G75*
G02X119062500Y-110109000I63500J0D01*
G01*
X119060071Y-110365545D02*
G75*
G02X118999000Y-110299500I2429J63505D01*
G01*
X119443500Y-109982000D02*
G75*
G02X119062500Y-110363000I-381000J0D01*
G01*
X119254048Y-108586575D02*
G75*
G02X119443500Y-108902500I-168688J-315925D01*
G01*
X119251549Y-108585142D02*
G75*
G02X118935500Y-108267500I478971J792622D01*
G01*
X119060935Y-109094845D02*
G75*
G02X118364000Y-108648500I153965J1007685D01*
G01*
X118617068Y-109855674D02*
G75*
G02X118618000Y-110172500I-316568J-159346D01*
G01*
X118617967Y-110172600D02*
G75*
G02X118491000Y-110299500I-190467J63600D01*
G01*
X117289275Y-109411493D02*
G75*
G02X117729000Y-109537500I-825195J-3709947D01*
G01*
X117728915Y-109538965D02*
G75*
G02X118300500Y-110299500I-284395J-808795D01*
G01*
X117666708Y-109094166D02*
G75*
G02X118618000Y-109855000I-285688J-1332334D01*
G01*
X117154461Y-109348576D02*
G75*
G02X116332000Y-108902500I147819J1253796D01*
G01*
X115823301Y-108712474D02*
G75*
G02X116332000Y-108902500I64199J-604046D01*
G01*
X117347915Y-107761114D02*
G75*
G02X117132100Y-107823000I-182795J230214D01*
G01*
X117348721Y-107759678D02*
G75*
G02X118935500Y-108267500I466639J-1274902D01*
G01*
X117729000Y-104267000D02*
X121285000Y-111379000D01*
X121285000Y-111379000D02*
X114173000Y-111379000D01*
X114173000Y-111379000D02*
X115506500Y-108712000D01*
X115506500Y-108712000D02*
X115951000Y-107823000D01*
X115951000Y-107823000D02*
X117729000Y-104267000D01*
X119507000Y-107886500D02*
X114173000Y-111379000D01*
X117132100Y-107823000D02*
X115951000Y-107823000D01*
X115506500Y-108712000D02*
X115824000Y-108712000D01*
X118491000Y-110299500D02*
X118338600Y-110299500D01*
X119443500Y-108902500D02*
X119443500Y-109982000D01*
X118999000Y-110299500D02*
X118999000Y-110172500D01*
X119062500Y-110109000D02*
X119062500Y-109093000D01*
X119062500Y-110109000D02*
X119126000Y-110109000D01*
X96548000Y-111347000D02*
G75*
G03X96548000Y-107347000I0J2000000D01*
G01*
D24*
X96597980Y-111097000D02*
G75*
G03X96598000Y-107597000I-49980J1750000D01*
G01*
D15*
X96548000Y-110847000D02*
G75*
G03X96548000Y-107847000I0J1500000D01*
G01*
D24*
X100097980Y-111097000D02*
G75*
G03X100098000Y-107597000I-49980J1750000D01*
G01*
D15*
X100048000Y-111347000D02*
G75*
G03X100048000Y-107347000I0J2000000D01*
G01*
X100048000Y-110847000D02*
G75*
G03X100048000Y-107847000I0J1500000D01*
G01*
X100048000Y-107347000D02*
X100048000Y-107847000D01*
X100048000Y-110847000D02*
X100048000Y-111347000D01*
X96548000Y-110847000D02*
X96548000Y-111347000D01*
X96548000Y-107347000D02*
X96548000Y-107847000D01*
X98048000Y-109097000D02*
X96798000Y-109097000D01*
X96798000Y-109097000D02*
X96798000Y-109597000D01*
X96798000Y-109597000D02*
X98048000Y-109597000D01*
X96798000Y-109347000D02*
X98048000Y-109347000D01*
D25*
X142813193Y-129844800D02*
X142897860Y-129929466D01*
X143151860Y-130014133D01*
X143321193Y-130014133D01*
X143575193Y-129929466D01*
X143744526Y-129760133D01*
X143829193Y-129590800D01*
X143913860Y-129252133D01*
X143913860Y-128998133D01*
X143829193Y-128659466D01*
X143744526Y-128490133D01*
X143575193Y-128320800D01*
X143321193Y-128236133D01*
X143151860Y-128236133D01*
X142897860Y-128320800D01*
X142813193Y-128405466D01*
X141797193Y-130014133D02*
X141966526Y-129929466D01*
X142051193Y-129844800D01*
X142135860Y-129675466D01*
X142135860Y-129167466D01*
X142051193Y-128998133D01*
X141966526Y-128913466D01*
X141797193Y-128828800D01*
X141543193Y-128828800D01*
X141373860Y-128913466D01*
X141289193Y-128998133D01*
X141204526Y-129167466D01*
X141204526Y-129675466D01*
X141289193Y-129844800D01*
X141373860Y-129929466D01*
X141543193Y-130014133D01*
X141797193Y-130014133D01*
X140442526Y-130014133D02*
X140442526Y-128828800D01*
X140442526Y-128998133D02*
X140357860Y-128913466D01*
X140188526Y-128828800D01*
X139934526Y-128828800D01*
X139765193Y-128913466D01*
X139680526Y-129082800D01*
X139680526Y-130014133D01*
X139680526Y-129082800D02*
X139595860Y-128913466D01*
X139426526Y-128828800D01*
X139172526Y-128828800D01*
X139003193Y-128913466D01*
X138918526Y-129082800D01*
X138918526Y-130014133D01*
X138071860Y-128828800D02*
X138071860Y-130606800D01*
X138071860Y-128913466D02*
X137902526Y-128828800D01*
X137563860Y-128828800D01*
X137394526Y-128913466D01*
X137309860Y-128998133D01*
X137225193Y-129167466D01*
X137225193Y-129675466D01*
X137309860Y-129844800D01*
X137394526Y-129929466D01*
X137563860Y-130014133D01*
X137902526Y-130014133D01*
X138071860Y-129929466D01*
X136209193Y-130014133D02*
X136378526Y-129929466D01*
X136463193Y-129760133D01*
X136463193Y-128236133D01*
X135531860Y-130014133D02*
X135531860Y-128828800D01*
X135531860Y-128236133D02*
X135616526Y-128320800D01*
X135531860Y-128405466D01*
X135447193Y-128320800D01*
X135531860Y-128236133D01*
X135531860Y-128405466D01*
X133923193Y-130014133D02*
X133923193Y-129082800D01*
X134007860Y-128913466D01*
X134177193Y-128828800D01*
X134515860Y-128828800D01*
X134685193Y-128913466D01*
X133923193Y-129929466D02*
X134092526Y-130014133D01*
X134515860Y-130014133D01*
X134685193Y-129929466D01*
X134769860Y-129760133D01*
X134769860Y-129590800D01*
X134685193Y-129421466D01*
X134515860Y-129336800D01*
X134092526Y-129336800D01*
X133923193Y-129252133D01*
X133076526Y-128828800D02*
X133076526Y-130014133D01*
X133076526Y-128998133D02*
X132991860Y-128913466D01*
X132822526Y-128828800D01*
X132568526Y-128828800D01*
X132399193Y-128913466D01*
X132314526Y-129082800D01*
X132314526Y-130014133D01*
X131721860Y-128828800D02*
X131044526Y-128828800D01*
X131467860Y-128236133D02*
X131467860Y-129760133D01*
X131383193Y-129929466D01*
X131213860Y-130014133D01*
X131044526Y-130014133D01*
D14*
X142234634Y-126909081D02*
X142901300Y-125956700D01*
X143377491Y-126909081D02*
X143377491Y-124909081D01*
X142615586Y-124909081D01*
X142425110Y-125004320D01*
X142329872Y-125099558D01*
X142234634Y-125290034D01*
X142234634Y-125575748D01*
X142329872Y-125766224D01*
X142425110Y-125861462D01*
X142615586Y-125956700D01*
X143377491Y-125956700D01*
X141091777Y-126909081D02*
X141282253Y-126813843D01*
X141377491Y-126718605D01*
X141472729Y-126528129D01*
X141472729Y-125956700D01*
X141377491Y-125766224D01*
X141282253Y-125670986D01*
X141091777Y-125575748D01*
X140806062Y-125575748D01*
X140615586Y-125670986D01*
X140520348Y-125766224D01*
X140425110Y-125956700D01*
X140425110Y-126528129D01*
X140520348Y-126718605D01*
X140615586Y-126813843D01*
X140806062Y-126909081D01*
X141091777Y-126909081D01*
X139567967Y-126909081D02*
X139567967Y-124909081D01*
X139567967Y-125861462D02*
X138425110Y-125861462D01*
X138425110Y-126909081D02*
X138425110Y-124909081D01*
X137567967Y-126813843D02*
X137282253Y-126909081D01*
X136806062Y-126909081D01*
X136615586Y-126813843D01*
X136520348Y-126718605D01*
X136425110Y-126528129D01*
X136425110Y-126337653D01*
X136520348Y-126147177D01*
X136615586Y-126051939D01*
X136806062Y-125956700D01*
X137187015Y-125861462D01*
X137377491Y-125766224D01*
X137472729Y-125670986D01*
X137567967Y-125480510D01*
X137567967Y-125290034D01*
X137472729Y-125099558D01*
X137377491Y-125004320D01*
X137187015Y-124909081D01*
X136710824Y-124909081D01*
X136425110Y-125004320D01*
D15*
X84170068Y-110324327D02*
X84170068Y-108624327D01*
X83598640Y-108624327D01*
X83455782Y-108705280D01*
X83384354Y-108786232D01*
X83312925Y-108948137D01*
X83312925Y-109190994D01*
X83384354Y-109352899D01*
X83455782Y-109433851D01*
X83598640Y-109514803D01*
X84170068Y-109514803D01*
X82670068Y-110324327D02*
X82670068Y-108624327D01*
X82670068Y-109271946D02*
X82527211Y-109190994D01*
X82241497Y-109190994D01*
X82098640Y-109271946D01*
X82027211Y-109352899D01*
X81955782Y-109514803D01*
X81955782Y-110000518D01*
X82027211Y-110162422D01*
X82098640Y-110243375D01*
X82241497Y-110324327D01*
X82527211Y-110324327D01*
X82670068Y-110243375D01*
X107943298Y-130657379D02*
X108048060Y-130604998D01*
X108100440Y-130552617D01*
X108152821Y-130447855D01*
X108152821Y-130133569D01*
X108100440Y-130028807D01*
X108048060Y-129976426D01*
X107943298Y-129924045D01*
X107786155Y-129924045D01*
X107681393Y-129976426D01*
X107629012Y-130028807D01*
X107576631Y-130133569D01*
X107576631Y-130447855D01*
X107629012Y-130552617D01*
X107681393Y-130604998D01*
X107786155Y-130657379D01*
X107943298Y-130657379D01*
X107105202Y-129924045D02*
X107105202Y-131024045D01*
X107105202Y-129976426D02*
X107000440Y-129924045D01*
X106790917Y-129924045D01*
X106686155Y-129976426D01*
X106633774Y-130028807D01*
X106581393Y-130133569D01*
X106581393Y-130447855D01*
X106633774Y-130552617D01*
X106686155Y-130604998D01*
X106790917Y-130657379D01*
X107000440Y-130657379D01*
X107105202Y-130604998D01*
X105690917Y-130604998D02*
X105795679Y-130657379D01*
X106005202Y-130657379D01*
X106109964Y-130604998D01*
X106162345Y-130500236D01*
X106162345Y-130081188D01*
X106109964Y-129976426D01*
X106005202Y-129924045D01*
X105795679Y-129924045D01*
X105690917Y-129976426D01*
X105638536Y-130081188D01*
X105638536Y-130185950D01*
X106162345Y-130290712D01*
X105167107Y-129924045D02*
X105167107Y-130657379D01*
X105167107Y-130028807D02*
X105114726Y-129976426D01*
X105009964Y-129924045D01*
X104852821Y-129924045D01*
X104748060Y-129976426D01*
X104695679Y-130081188D01*
X104695679Y-130657379D01*
D26*
X103627797Y-130703580D02*
X103627797Y-129703580D01*
X103199225Y-130703580D02*
X103199225Y-130179771D01*
X103246844Y-130084533D01*
X103342082Y-130036914D01*
X103484940Y-130036914D01*
X103580178Y-130084533D01*
X103627797Y-130132152D01*
X102294463Y-130703580D02*
X102294463Y-130179771D01*
X102342082Y-130084533D01*
X102437320Y-130036914D01*
X102627797Y-130036914D01*
X102723035Y-130084533D01*
X102294463Y-130655961D02*
X102389701Y-130703580D01*
X102627797Y-130703580D01*
X102723035Y-130655961D01*
X102770654Y-130560723D01*
X102770654Y-130465485D01*
X102723035Y-130370247D01*
X102627797Y-130322628D01*
X102389701Y-130322628D01*
X102294463Y-130275009D01*
X101818273Y-130703580D02*
X101818273Y-130036914D01*
X101818273Y-130227390D02*
X101770654Y-130132152D01*
X101723035Y-130084533D01*
X101627797Y-130036914D01*
X101532559Y-130036914D01*
X100770654Y-130703580D02*
X100770654Y-129703580D01*
X100770654Y-130655961D02*
X100865892Y-130703580D01*
X101056368Y-130703580D01*
X101151606Y-130655961D01*
X101199225Y-130608342D01*
X101246844Y-130513104D01*
X101246844Y-130227390D01*
X101199225Y-130132152D01*
X101151606Y-130084533D01*
X101056368Y-130036914D01*
X100865892Y-130036914D01*
X100770654Y-130084533D01*
X100389701Y-130036914D02*
X100199225Y-130703580D01*
X100008749Y-130227390D01*
X99818273Y-130703580D01*
X99627797Y-130036914D01*
X98818273Y-130703580D02*
X98818273Y-130179771D01*
X98865892Y-130084533D01*
X98961130Y-130036914D01*
X99151606Y-130036914D01*
X99246844Y-130084533D01*
X98818273Y-130655961D02*
X98913511Y-130703580D01*
X99151606Y-130703580D01*
X99246844Y-130655961D01*
X99294463Y-130560723D01*
X99294463Y-130465485D01*
X99246844Y-130370247D01*
X99151606Y-130322628D01*
X98913511Y-130322628D01*
X98818273Y-130275009D01*
X98342082Y-130703580D02*
X98342082Y-130036914D01*
X98342082Y-130227390D02*
X98294463Y-130132152D01*
X98246844Y-130084533D01*
X98151606Y-130036914D01*
X98056368Y-130036914D01*
X97342082Y-130655961D02*
X97437320Y-130703580D01*
X97627797Y-130703580D01*
X97723035Y-130655961D01*
X97770654Y-130560723D01*
X97770654Y-130179771D01*
X97723035Y-130084533D01*
X97627797Y-130036914D01*
X97437320Y-130036914D01*
X97342082Y-130084533D01*
X97294463Y-130179771D01*
X97294463Y-130275009D01*
X97770654Y-130370247D01*
M02*
