G04 #@! TF.GenerationSoftware,KiCad,Pcbnew,5.1.0-rc2-unknown-036be7d~80~ubuntu16.04.1*
G04 #@! TF.CreationDate,2022-11-30T14:58:32+02:00*
G04 #@! TF.ProjectId,AgonLight2_Rev_A,41676f6e-4c69-4676-9874-325f5265765f,rev?*
G04 #@! TF.SameCoordinates,Original*
G04 #@! TF.FileFunction,Soldermask,Bot*
G04 #@! TF.FilePolarity,Negative*
%FSLAX46Y46*%
G04 Gerber Fmt 4.6, Leading zero omitted, Abs format (unit mm)*
G04 Created by KiCad (PCBNEW 5.1.0-rc2-unknown-036be7d~80~ubuntu16.04.1) date 2022-11-30 14:58:32*
%MOMM*%
%LPD*%
G04 APERTURE LIST*
%ADD10C,1.801600*%
%ADD11R,1.801600X1.801600*%
%ADD12C,1.901600*%
%ADD13R,1.901600X1.901600*%
%ADD14R,1.851600X1.851600*%
%ADD15R,2.301600X2.301600*%
%ADD16C,2.301600*%
%ADD17C,2.133600*%
%ADD18C,2.641600*%
%ADD19C,5.201600*%
%ADD20C,1.501600*%
%ADD21R,1.879600X1.879600*%
%ADD22C,1.879600*%
%ADD23C,1.101600*%
%ADD24C,1.701600*%
%ADD25O,1.301600X2.301600*%
%ADD26C,0.701600*%
%ADD27O,1.401600X2.101600*%
%ADD28C,3.301600*%
%ADD29O,1.601600X3.101600*%
%ADD30R,1.501600X1.501600*%
%ADD31C,5.601600*%
G04 APERTURE END LIST*
D10*
X53730000Y-120960000D03*
X56270000Y-120960000D03*
X53730000Y-123500000D03*
X56270000Y-123500000D03*
X53730000Y-126040000D03*
D11*
X56270000Y-126040000D03*
D12*
X105410000Y-105537000D03*
D13*
X102870000Y-105537000D03*
D12*
X83920000Y-143270000D03*
X83920000Y-140730000D03*
X86460000Y-143270000D03*
X86460000Y-140730000D03*
X89000000Y-143270000D03*
X89000000Y-140730000D03*
X91540000Y-143270000D03*
X91540000Y-140730000D03*
X94080000Y-143270000D03*
D14*
X94080000Y-140730000D03*
D15*
X79808000Y-106400000D03*
D16*
X86308000Y-106400000D03*
D17*
X153060600Y-87755400D03*
X148539400Y-87755400D03*
D18*
X154305200Y-90244600D03*
X147294800Y-90244600D03*
D19*
X105403000Y-96310000D03*
X130397000Y-96310000D03*
D20*
X122715000Y-93770000D03*
X120429000Y-93770000D03*
X118143000Y-93770000D03*
X115857000Y-93770000D03*
X113571000Y-93770000D03*
X121572000Y-96310000D03*
X119286000Y-96310000D03*
X117000000Y-96310000D03*
X114714000Y-96310000D03*
X112428000Y-96310000D03*
X122715000Y-98850000D03*
X120429000Y-98850000D03*
X118143000Y-98850000D03*
X115857000Y-98850000D03*
X113571000Y-98850000D03*
D21*
X53000000Y-111810000D03*
D22*
X53000000Y-109270000D03*
X53000000Y-106730000D03*
X53000000Y-104190000D03*
D10*
X94600000Y-94100000D03*
X94600000Y-88100000D03*
D13*
X111125000Y-132969000D03*
D12*
X113665000Y-132969000D03*
X124714000Y-132969000D03*
D13*
X127254000Y-132969000D03*
D23*
X63853000Y-89167800D03*
X55852000Y-89167800D03*
D24*
X122809000Y-122555000D03*
D25*
X144320000Y-91930000D03*
D26*
X142890000Y-91430000D03*
D27*
X144320000Y-87750000D03*
X135680000Y-87750000D03*
D25*
X135680000Y-91930000D03*
D26*
X137110000Y-91430000D03*
D28*
X83670000Y-95400000D03*
X71530000Y-95400000D03*
D29*
X81100000Y-98110000D03*
X78600000Y-98110000D03*
X76600000Y-98110000D03*
X74100000Y-98110000D03*
D20*
X76203300Y-147645320D03*
D30*
X74191620Y-147647860D03*
D31*
X53300000Y-138800000D03*
X152800000Y-101300000D03*
X64500000Y-110000000D03*
X152800000Y-138800000D03*
D12*
X120120000Y-140830000D03*
X117580000Y-140830000D03*
X117580000Y-143370000D03*
X120120000Y-143370000D03*
X112500000Y-140830000D03*
X109960000Y-143370000D03*
X112500000Y-143370000D03*
X109960000Y-140830000D03*
X104880000Y-140830000D03*
X107420000Y-143370000D03*
X107420000Y-140830000D03*
X104880000Y-143370000D03*
X115040000Y-140830000D03*
X115040000Y-143370000D03*
X122660000Y-140830000D03*
X122660000Y-143370000D03*
X125200000Y-140830000D03*
X125200000Y-143370000D03*
X127740000Y-140830000D03*
X127740000Y-143370000D03*
X130280000Y-140830000D03*
X130280000Y-143370000D03*
X132820000Y-140830000D03*
X132820000Y-143370000D03*
X135360000Y-143370000D03*
X135360000Y-140830000D03*
X137900000Y-143370000D03*
X137900000Y-140830000D03*
X140440000Y-143370000D03*
X140440000Y-140830000D03*
X142980000Y-143370000D03*
X142980000Y-140830000D03*
X145520000Y-143370000D03*
D14*
X145520000Y-140830000D03*
M02*
